<?xml version="1.0" encoding="UTF-8" standalone="no"?>
<!DOCTYPE svg PUBLIC "-//W3C//DTD SVG 1.1//EN" "http://www.w3.org/Graphics/SVG/1.1/DTD/svg11.dtd">
<svg width="100%" height="100%" viewBox="0 0 641 360" version="1.1" xmlns="http://www.w3.org/2000/svg" xmlns:xlink="http://www.w3.org/1999/xlink" xml:space="preserve" xmlns:serif="http://www.serif.com/" style="fill-rule:evenodd;clip-rule:evenodd;stroke-linejoin:round;stroke-miterlimit:2;">
    <g id="background-purple" transform="matrix(1.00156,0,0,1,0,0)">
        <g id="Background">
            <clipPath id="_clip1">
                <rect x="0" y="0" width="640" height="360"/>
            </clipPath>
            <g clip-path="url(#_clip1)">
                <rect id="Back" x="0" y="0" width="640" height="360" style="fill:rgb(121,8,235);"/>
                <g id="Far" transform="matrix(0.964404,-0.264432,0.264432,0.964404,-139.43,-126.091)">
                    <path d="M695.071,412.586L623.148,674.894L5.929,505.658L74.086,257.083L166.833,257.083C174.56,257.083 180.833,263.357 180.833,271.083L180.833,303.491L186.5,293.807C189.344,288.945 195.601,287.308 200.463,290.152L270.937,331.389C274.855,333.681 276.679,338.191 275.75,342.4L299.262,333.306C302.939,331.884 307.079,333.715 308.501,337.392L318.173,362.399L345.952,314.924C349.983,308.035 358.848,305.715 365.736,309.746L445.463,356.396L508.518,339.893C514.464,338.337 520.555,341.9 522.111,347.846L533.244,390.383L551.595,359.021C554.699,353.716 561.526,351.929 566.83,355.033L643.721,400.024C649.026,403.128 650.813,409.955 647.709,415.26L645.766,418.581L690.164,411.911C691.895,411.651 693.585,411.916 695.071,412.586Z" style="fill:rgb(155,8,235);"/>
                </g>
                <g id="Mid" transform="matrix(-1.03822,-0.284672,-0.284672,1.03822,798.784,-72.4959)">
                    <path d="M82.448,257.083L36.01,426.448L609.346,583.653L651.821,428.743L627.544,432.389L556.515,390.828C551.21,387.724 544.383,389.511 541.279,394.816L529.923,414.223L515.7,359.881C514.144,353.935 508.054,350.371 502.108,351.927L439.052,368.431L359.326,321.78C352.437,317.75 343.573,320.07 339.542,326.958L326.99,348.41L320.382,331.326C318.528,326.532 313.13,324.145 308.336,325.999L272.184,339.982L275.582,334.174C278.427,329.312 276.79,323.055 271.928,320.21L201.454,278.974C196.592,276.13 190.336,277.767 187.491,282.629L180.833,294.007L180.833,271.083C180.833,263.357 174.56,257.083 166.833,257.083L82.448,257.083Z" style="fill:rgb(177,34,255);"/>
                </g>
                <g id="Front" transform="matrix(1.51282,0.405943,-0.405358,1.515,15.0745,-170.11)">
                    <path d="M447.406,128.078L472.893,223.196L78.18,328.959L58.921,257.083L131.672,257.083L170.605,218.15C174.813,213.943 181.644,213.943 185.852,218.15L234.231,266.529L234.231,212.051C234.231,203.525 241.153,196.603 249.679,196.603L363.524,196.603L355.816,174.744C353.329,167.689 357.037,159.942 364.092,157.454L447.406,128.078Z" style="fill:rgb(192,76,255);"/>
                </g>
            </g>
        </g>
    </g>
</svg>
