<?xml version="1.0" encoding="UTF-8" standalone="no"?>
<!DOCTYPE svg PUBLIC "-//W3C//DTD SVG 1.1//EN" "http://www.w3.org/Graphics/SVG/1.1/DTD/svg11.dtd">
<svg width="100%" height="100%" viewBox="0 0 128 128" version="1.1" xmlns="http://www.w3.org/2000/svg" xmlns:xlink="http://www.w3.org/1999/xlink" xml:space="preserve" xmlns:serif="http://www.serif.com/" style="fill-rule:evenodd;clip-rule:evenodd;stroke-linejoin:round;stroke-miterlimit:2;">
    <g transform="matrix(0.52786,0,0,0.873109,-99.4855,-98.9476)">
        <rect x="188.469" y="113.328" width="242.489" height="146.603" style="fill:rgb(255,203,76);"/>
    </g>
    <g transform="matrix(1.13398,-0.303848,0.303848,1.13398,-66.7785,-45.3708)">
        <path d="M64.791,68.533C65.114,67.844 65.806,67.405 66.566,67.405C67.326,67.405 68.018,67.844 68.34,68.533L74.037,80.688L87.357,82.349C88.111,82.443 88.743,82.965 88.978,83.688C89.213,84.411 89.009,85.205 88.454,85.725L78.654,94.898L81.19,108.08C81.334,108.827 81.032,109.589 80.417,110.036C79.802,110.483 78.984,110.533 78.319,110.166L66.566,103.681L54.813,110.166C54.147,110.533 53.329,110.483 52.714,110.036C52.099,109.589 51.798,108.827 51.942,108.08L54.478,94.898L44.678,85.725C44.123,85.205 43.918,84.411 44.153,83.688C44.388,82.965 45.02,82.443 45.775,82.349L59.095,80.688L64.791,68.533Z" style="fill:rgb(255,162,23);"/>
    </g>
    <g transform="matrix(0.474712,-0.127199,0.127199,0.474712,-1.66608,53.3321)">
        <path d="M64.791,68.533C65.114,67.844 65.806,67.405 66.566,67.405C67.326,67.405 68.018,67.844 68.34,68.533L74.037,80.688L87.357,82.349C88.111,82.443 88.743,82.965 88.978,83.688C89.213,84.411 89.009,85.205 88.454,85.725L78.654,94.898L81.19,108.08C81.334,108.827 81.032,109.589 80.417,110.036C79.802,110.483 78.984,110.533 78.319,110.166L66.566,103.681L54.813,110.166C54.147,110.533 53.329,110.483 52.714,110.036C52.099,109.589 51.798,108.827 51.942,108.08L54.478,94.898L44.678,85.725C44.123,85.205 43.918,84.411 44.153,83.688C44.388,82.965 45.02,82.443 45.775,82.349L59.095,80.688L64.791,68.533Z" style="fill:rgb(255,162,23);"/>
    </g>
    <g transform="matrix(0.22973,-0.0615561,0.0615561,0.22973,-2.6122,98.3682)">
        <path d="M64.791,68.533C65.114,67.844 65.806,67.405 66.566,67.405C67.326,67.405 68.018,67.844 68.34,68.533L74.037,80.688L87.357,82.349C88.111,82.443 88.743,82.965 88.978,83.688C89.213,84.411 89.009,85.205 88.454,85.725L78.654,94.898L81.19,108.08C81.334,108.827 81.032,109.589 80.417,110.036C79.802,110.483 78.984,110.533 78.319,110.166L66.566,103.681L54.813,110.166C54.147,110.533 53.329,110.483 52.714,110.036C52.099,109.589 51.798,108.827 51.942,108.08L54.478,94.898L44.678,85.725C44.123,85.205 43.918,84.411 44.153,83.688C44.388,82.965 45.02,82.443 45.775,82.349L59.095,80.688L64.791,68.533Z" style="fill:rgb(255,162,23);"/>
    </g>
    <g transform="matrix(0.39562,-0.106006,0.106006,0.39562,54.7975,-13.9977)">
        <g transform="matrix(0.670612,0,0,0.670612,-11.1092,75.0404)">
            <path d="M64.791,68.533C65.114,67.844 65.806,67.405 66.566,67.405C67.326,67.405 68.018,67.844 68.34,68.533L74.037,80.688L87.357,82.349C88.111,82.443 88.743,82.965 88.978,83.688C89.213,84.411 89.009,85.205 88.454,85.725L78.654,94.898L81.19,108.08C81.334,108.827 81.032,109.589 80.417,110.036C79.802,110.483 78.984,110.533 78.319,110.166L66.566,103.681L54.813,110.166C54.147,110.533 53.329,110.483 52.714,110.036C52.099,109.589 51.798,108.827 51.942,108.08L54.478,94.898L44.678,85.725C44.123,85.205 43.918,84.411 44.153,83.688C44.388,82.965 45.02,82.443 45.775,82.349L59.095,80.688L64.791,68.533Z" style="fill:rgb(255,162,23);"/>
        </g>
        <g transform="matrix(1.06956,0,0,1.06956,43.2943,-0.905151)">
            <path d="M64.791,68.533C65.114,67.844 65.806,67.405 66.566,67.405C67.326,67.405 68.018,67.844 68.34,68.533L74.037,80.688L87.357,82.349C88.111,82.443 88.743,82.965 88.978,83.688C89.213,84.411 89.009,85.205 88.454,85.725L78.654,94.898L81.19,108.08C81.334,108.827 81.032,109.589 80.417,110.036C79.802,110.483 78.984,110.533 78.319,110.166L66.566,103.681L54.813,110.166C54.147,110.533 53.329,110.483 52.714,110.036C52.099,109.589 51.798,108.827 51.942,108.08L54.478,94.898L44.678,85.725C44.123,85.205 43.918,84.411 44.153,83.688C44.388,82.965 45.02,82.443 45.775,82.349L59.095,80.688L64.791,68.533Z" style="fill:rgb(255,162,23);"/>
        </g>
    </g>
    <g transform="matrix(0.241972,-0.0648362,0.0648362,0.241972,89.0763,36.0118)">
        <path d="M64.791,68.533C65.114,67.844 65.806,67.405 66.566,67.405C67.326,67.405 68.018,67.844 68.34,68.533L74.037,80.688L87.357,82.349C88.111,82.443 88.743,82.965 88.978,83.688C89.213,84.411 89.009,85.205 88.454,85.725L78.654,94.898L81.19,108.08C81.334,108.827 81.032,109.589 80.417,110.036C79.802,110.483 78.984,110.533 78.319,110.166L66.566,103.681L54.813,110.166C54.147,110.533 53.329,110.483 52.714,110.036C52.099,109.589 51.798,108.827 51.942,108.08L54.478,94.898L44.678,85.725C44.123,85.205 43.918,84.411 44.153,83.688C44.388,82.965 45.02,82.443 45.775,82.349L59.095,80.688L64.791,68.533Z" style="fill:rgb(255,162,23);"/>
    </g>
    <g transform="matrix(0.919499,-0.246379,0.246379,0.919499,11.8409,28.9672)">
        <path d="M64.791,68.533C65.114,67.844 65.806,67.405 66.566,67.405C67.326,67.405 68.018,67.844 68.34,68.533L74.037,80.688L87.357,82.349C88.111,82.443 88.743,82.965 88.978,83.688C89.213,84.411 89.009,85.205 88.454,85.725L78.654,94.898L81.19,108.08C81.334,108.827 81.032,109.589 80.417,110.036C79.802,110.483 78.984,110.533 78.319,110.166L66.566,103.681L54.813,110.166C54.147,110.533 53.329,110.483 52.714,110.036C52.099,109.589 51.798,108.827 51.942,108.08L54.478,94.898L44.678,85.725C44.123,85.205 43.918,84.411 44.153,83.688C44.388,82.965 45.02,82.443 45.775,82.349L59.095,80.688L64.791,68.533Z" style="fill:rgb(255,162,23);"/>
    </g>
</svg>
