<?xml version="1.0" encoding="UTF-8" standalone="no"?>
<!DOCTYPE svg PUBLIC "-//W3C//DTD SVG 1.1//EN" "http://www.w3.org/Graphics/SVG/1.1/DTD/svg11.dtd">
<svg width="100%" height="100%" viewBox="0 0 128 128" version="1.1" xmlns="http://www.w3.org/2000/svg" xmlns:xlink="http://www.w3.org/1999/xlink" xml:space="preserve" xmlns:serif="http://www.serif.com/" style="fill-rule:evenodd;clip-rule:evenodd;stroke-linejoin:round;stroke-miterlimit:2;">
    <g id="Background" transform="matrix(0.52786,0,0,0.873109,-99.4855,-98.9476)">
        <rect x="188.469" y="113.328" width="242.489" height="146.603" style="fill:rgb(159,0,255);"/>
    </g>
    <g transform="matrix(0.489679,-0.131209,0.131209,0.489679,-18.7596,-19.8314)">
        <path d="M64.791,68.533C65.114,67.844 65.806,67.405 66.566,67.405C67.326,67.405 68.018,67.844 68.34,68.533L74.037,80.688L87.357,82.349C88.111,82.443 88.743,82.965 88.978,83.688C89.213,84.411 89.009,85.205 88.454,85.725L78.654,94.898L81.19,108.08C81.334,108.827 81.032,109.589 80.417,110.036C79.802,110.483 78.984,110.533 78.319,110.166L66.566,103.681L54.813,110.166C54.147,110.533 53.329,110.483 52.714,110.036C52.099,109.589 51.798,108.827 51.942,108.08L54.478,94.898L44.678,85.725C44.123,85.205 43.918,84.411 44.153,83.688C44.388,82.965 45.02,82.443 45.775,82.349L59.095,80.688L64.791,68.533Z" style="fill:rgb(142,15,219);"/>
    </g>
    <g transform="matrix(0.327868,-0.0878521,0.0878521,0.327868,-5.40627,88.7707)">
        <path d="M64.791,68.533C65.114,67.844 65.806,67.405 66.566,67.405C67.326,67.405 68.018,67.844 68.34,68.533L74.037,80.688L87.357,82.349C88.111,82.443 88.743,82.965 88.978,83.688C89.213,84.411 89.009,85.205 88.454,85.725L78.654,94.898L81.19,108.08C81.334,108.827 81.032,109.589 80.417,110.036C79.802,110.483 78.984,110.533 78.319,110.166L66.566,103.681L54.813,110.166C54.147,110.533 53.329,110.483 52.714,110.036C52.099,109.589 51.798,108.827 51.942,108.08L54.478,94.898L44.678,85.725C44.123,85.205 43.918,84.411 44.153,83.688C44.388,82.965 45.02,82.443 45.775,82.349L59.095,80.688L64.791,68.533Z" style="fill:rgb(142,15,219);"/>
    </g>
    <g transform="matrix(0.618193,-0.165644,0.165644,0.618193,45.9295,60.6252)">
        <path d="M64.791,68.533C65.114,67.844 65.806,67.405 66.566,67.405C67.326,67.405 68.018,67.844 68.34,68.533L74.037,80.688L87.357,82.349C88.111,82.443 88.743,82.965 88.978,83.688C89.213,84.411 89.009,85.205 88.454,85.725L78.654,94.898L81.19,108.08C81.334,108.827 81.032,109.589 80.417,110.036C79.802,110.483 78.984,110.533 78.319,110.166L66.566,103.681L54.813,110.166C54.147,110.533 53.329,110.483 52.714,110.036C52.099,109.589 51.798,108.827 51.942,108.08L54.478,94.898L44.678,85.725C44.123,85.205 43.918,84.411 44.153,83.688C44.388,82.965 45.02,82.443 45.775,82.349L59.095,80.688L64.791,68.533Z" style="fill:rgb(142,15,219);"/>
    </g>
    <g transform="matrix(0.356966,-0.0956488,0.0956488,0.356966,46.235,40.7149)">
        <path d="M64.791,68.533C65.114,67.844 65.806,67.405 66.566,67.405C67.326,67.405 68.018,67.844 68.34,68.533L74.037,80.688L87.357,82.349C88.111,82.443 88.743,82.965 88.978,83.688C89.213,84.411 89.009,85.205 88.454,85.725L78.654,94.898L81.19,108.08C81.334,108.827 81.032,109.589 80.417,110.036C79.802,110.483 78.984,110.533 78.319,110.166L66.566,103.681L54.813,110.166C54.147,110.533 53.329,110.483 52.714,110.036C52.099,109.589 51.798,108.827 51.942,108.08L54.478,94.898L44.678,85.725C44.123,85.205 43.918,84.411 44.153,83.688C44.388,82.965 45.02,82.443 45.775,82.349L59.095,80.688L64.791,68.533Z" style="fill:rgb(142,15,219);"/>
    </g>
    <g transform="matrix(0.903467,-0.242083,0.242083,0.903467,-38.9663,17.6172)">
        <path d="M64.791,68.533C65.114,67.844 65.806,67.405 66.566,67.405C67.326,67.405 68.018,67.844 68.34,68.533L74.037,80.688L87.357,82.349C88.111,82.443 88.743,82.965 88.978,83.688C89.213,84.411 89.009,85.205 88.454,85.725L78.654,94.898L81.19,108.08C81.334,108.827 81.032,109.589 80.417,110.036C79.802,110.483 78.984,110.533 78.319,110.166L66.566,103.681L54.813,110.166C54.147,110.533 53.329,110.483 52.714,110.036C52.099,109.589 51.798,108.827 51.942,108.08L54.478,94.898L44.678,85.725C44.123,85.205 43.918,84.411 44.153,83.688C44.388,82.965 45.02,82.443 45.775,82.349L59.095,80.688L64.791,68.533Z" style="fill:rgb(142,15,219);"/>
    </g>
    <g transform="matrix(0.260901,-0.0699083,0.0699083,0.260901,87.6305,66.1669)">
        <path d="M64.791,68.533C65.114,67.844 65.806,67.405 66.566,67.405C67.326,67.405 68.018,67.844 68.34,68.533L74.037,80.688L87.357,82.349C88.111,82.443 88.743,82.965 88.978,83.688C89.213,84.411 89.009,85.205 88.454,85.725L78.654,94.898L81.19,108.08C81.334,108.827 81.032,109.589 80.417,110.036C79.802,110.483 78.984,110.533 78.319,110.166L66.566,103.681L54.813,110.166C54.147,110.533 53.329,110.483 52.714,110.036C52.099,109.589 51.798,108.827 51.942,108.08L54.478,94.898L44.678,85.725C44.123,85.205 43.918,84.411 44.153,83.688C44.388,82.965 45.02,82.443 45.775,82.349L59.095,80.688L64.791,68.533Z" style="fill:rgb(142,15,219);"/>
    </g>
    <g transform="matrix(0.260901,-0.0699083,0.0699083,0.260901,-12.7289,16.2614)">
        <path d="M64.791,68.533C65.114,67.844 65.806,67.405 66.566,67.405C67.326,67.405 68.018,67.844 68.34,68.533L74.037,80.688L87.357,82.349C88.111,82.443 88.743,82.965 88.978,83.688C89.213,84.411 89.009,85.205 88.454,85.725L78.654,94.898L81.19,108.08C81.334,108.827 81.032,109.589 80.417,110.036C79.802,110.483 78.984,110.533 78.319,110.166L66.566,103.681L54.813,110.166C54.147,110.533 53.329,110.483 52.714,110.036C52.099,109.589 51.798,108.827 51.942,108.08L54.478,94.898L44.678,85.725C44.123,85.205 43.918,84.411 44.153,83.688C44.388,82.965 45.02,82.443 45.775,82.349L59.095,80.688L64.791,68.533Z" style="fill:rgb(142,15,219);"/>
    </g>
    <g transform="matrix(0.260901,-0.0699083,0.0699083,0.260901,85.8496,-2.91444)">
        <path d="M64.791,68.533C65.114,67.844 65.806,67.405 66.566,67.405C67.326,67.405 68.018,67.844 68.34,68.533L74.037,80.688L87.357,82.349C88.111,82.443 88.743,82.965 88.978,83.688C89.213,84.411 89.009,85.205 88.454,85.725L78.654,94.898L81.19,108.08C81.334,108.827 81.032,109.589 80.417,110.036C79.802,110.483 78.984,110.533 78.319,110.166L66.566,103.681L54.813,110.166C54.147,110.533 53.329,110.483 52.714,110.036C52.099,109.589 51.798,108.827 51.942,108.08L54.478,94.898L44.678,85.725C44.123,85.205 43.918,84.411 44.153,83.688C44.388,82.965 45.02,82.443 45.775,82.349L59.095,80.688L64.791,68.533Z" style="fill:rgb(142,15,219);"/>
    </g>
    <g transform="matrix(0.607692,-0.162831,0.162831,0.607692,29.543,-10.7759)">
        <path d="M64.791,68.533C65.114,67.844 65.806,67.405 66.566,67.405C67.326,67.405 68.018,67.844 68.34,68.533L74.037,80.688L87.357,82.349C88.111,82.443 88.743,82.965 88.978,83.688C89.213,84.411 89.009,85.205 88.454,85.725L78.654,94.898L81.19,108.08C81.334,108.827 81.032,109.589 80.417,110.036C79.802,110.483 78.984,110.533 78.319,110.166L66.566,103.681L54.813,110.166C54.147,110.533 53.329,110.483 52.714,110.036C52.099,109.589 51.798,108.827 51.942,108.08L54.478,94.898L44.678,85.725C44.123,85.205 43.918,84.411 44.153,83.688C44.388,82.965 45.02,82.443 45.775,82.349L59.095,80.688L64.791,68.533Z" style="fill:rgb(142,15,219);"/>
    </g>
</svg>
