<?xml version="1.0" encoding="UTF-8" standalone="no"?>
<!DOCTYPE svg PUBLIC "-//W3C//DTD SVG 1.1//EN" "http://www.w3.org/Graphics/SVG/1.1/DTD/svg11.dtd">
<svg width="100%" height="100%" viewBox="0 0 100 100" version="1.1" xmlns="http://www.w3.org/2000/svg" xmlns:xlink="http://www.w3.org/1999/xlink" xml:space="preserve" xmlns:serif="http://www.serif.com/" style="fill-rule:evenodd;clip-rule:evenodd;stroke-linejoin:round;stroke-miterlimit:2;">
    <g id="background-pack-kargohs-levels" transform="matrix(1,0,0,1,-270,-180)">
        <clipPath id="_clip1">
            <rect x="270" y="180" width="100" height="100"/>
        </clipPath>
        <g clip-path="url(#_clip1)">
            <g id="Background" transform="matrix(0.412391,0,0,0.682116,192.277,102.697)">
                <rect x="188.469" y="113.328" width="242.489" height="146.603" style="fill:rgb(85,3,168);"/>
            </g>
            <g transform="matrix(4.34573e-17,-1.16422,0.454504,-4.34573e-17,174.406,1374.42)">
                <path d="M989,251L989,279C989,286.727 986.551,293 983.534,293L938.466,293C935.449,293 933,286.727 933,279L933,251C933,243.273 935.449,237 938.466,237L983.534,237C986.551,237 989,243.273 989,251Z" style="fill:url(#_Linear2);"/>
            </g>
            <g transform="matrix(6.09522e-17,-1.44993,0.454504,-6.09522e-17,211.987,1640.99)">
                <path d="M989,251L989,279C989,286.727 987.034,293 984.611,293L937.389,293C934.966,293 933,286.727 933,279L933,251C933,243.273 934.966,237 937.389,237L984.611,237C987.034,237 989,243.273 989,251Z" style="fill:url(#_Linear3);"/>
            </g>
            <g transform="matrix(1,0,0,1,-804.281,-1130.79)">
                <circle cx="1103.22" cy="1332.22" r="8.222" style="fill:white;fill-opacity:0.5;"/>
            </g>
            <g transform="matrix(0.513473,0,0,0.513473,-267.534,-482.632)">
                <circle cx="1103.22" cy="1332.22" r="8.222" style="fill:white;"/>
            </g>
            <g transform="matrix(0.565426,0,0,0.565426,-292.453,76.8438)">
                <path d="M1131.94,192.888C1132.09,192.527 1132.44,192.291 1132.83,192.291C1133.23,192.291 1133.58,192.527 1133.73,192.888L1135.6,197.356L1140.07,199.228C1140.43,199.379 1140.67,199.733 1140.67,200.126C1140.67,200.518 1140.43,200.872 1140.07,201.024L1135.6,202.896L1133.73,207.363C1133.58,207.725 1133.23,207.96 1132.83,207.96C1132.44,207.96 1132.09,207.725 1131.94,207.363L1130.07,202.896L1125.6,201.024C1125.24,200.872 1125,200.518 1125,200.126C1125,199.733 1125.24,199.379 1125.6,199.228L1130.07,197.356L1131.94,192.888Z" style="fill:white;"/>
            </g>
            <g transform="matrix(0.589265,0,0,0.589265,-392.923,117.706)">
                <path d="M1131.94,192.888C1132.09,192.527 1132.44,192.291 1132.83,192.291C1133.23,192.291 1133.58,192.527 1133.73,192.888L1135.6,197.356L1140.07,199.228C1140.43,199.379 1140.67,199.733 1140.67,200.126C1140.67,200.518 1140.43,200.872 1140.07,201.024L1135.6,202.896L1133.73,207.363C1133.58,207.725 1133.23,207.96 1132.83,207.96C1132.44,207.96 1132.09,207.725 1131.94,207.363L1130.07,202.896L1125.6,201.024C1125.24,200.872 1125,200.518 1125,200.126C1125,199.733 1125.24,199.379 1125.6,199.228L1130.07,197.356L1131.94,192.888Z" style="fill:white;"/>
            </g>
            <g transform="matrix(0.333984,0,0,0.333984,-14.2104,149.221)">
                <path d="M1131.94,192.888C1132.09,192.527 1132.44,192.291 1132.83,192.291C1133.23,192.291 1133.58,192.527 1133.73,192.888L1135.6,197.356L1140.07,199.228C1140.43,199.379 1140.67,199.733 1140.67,200.126C1140.67,200.518 1140.43,200.872 1140.07,201.024L1135.6,202.896L1133.73,207.363C1133.58,207.725 1133.23,207.96 1132.83,207.96C1132.44,207.96 1132.09,207.725 1131.94,207.363L1130.07,202.896L1125.6,201.024C1125.24,200.872 1125,200.518 1125,200.126C1125,199.733 1125.24,199.379 1125.6,199.228L1130.07,197.356L1131.94,192.888Z" style="fill:white;"/>
            </g>
            <g transform="matrix(2.34966e-17,-0.891805,0.508076,-2.34966e-17,211.436,1120.26)">
                <path d="M989,251L989,279C989,286.727 985.426,293 981.024,293L940.976,293C936.574,293 933,286.727 933,279L933,251C933,243.273 936.574,237 940.976,237L981.024,237C985.426,237 989,243.273 989,251Z" style="fill:url(#_Linear4);"/>
            </g>
            <g transform="matrix(-0.353766,0,-6.74253e-17,0.881713,745.125,30.7563)">
                <path d="M1100,252.402L1100,258.598C1100,260.475 1096.2,262 1091.52,262L1058.48,262C1053.8,262 1050,260.475 1050,258.598L1050,252.402C1050,250.525 1053.8,249 1058.48,249L1091.52,249C1096.2,249 1100,250.525 1100,252.402Z" style="fill:white;"/>
            </g>
            <g transform="matrix(-0.753766,0,-1.43662e-16,0.881713,1093.07,40.9526)">
                <path d="M1100,252.402L1100,258.598C1100,260.475 1098.22,262 1096.02,262L1053.98,262C1051.78,262 1050,260.475 1050,258.598L1050,252.402C1050,250.525 1051.78,249 1053.98,249L1096.02,249C1098.22,249 1100,250.525 1100,252.402Z" style="fill:white;"/>
            </g>
            <g transform="matrix(-0.353766,0,-2.24751e-17,0.266328,745.125,183.987)">
                <path d="M1100,255.5C1100,259.087 1097.81,262 1095.11,262L1054.89,262C1052.19,262 1050,259.087 1050,255.5C1050,251.913 1052.19,249 1054.89,249L1095.11,249C1097.81,249 1100,251.913 1100,255.5Z" style="fill:rgb(215,215,215);"/>
            </g>
            <g transform="matrix(-0.753766,0,-4.78874e-17,0.266328,1093.07,194.183)">
                <path d="M1100,255.5C1100,259.087 1098.97,262 1097.7,262L1052.3,262C1051.03,262 1050,259.087 1050,255.5C1050,251.913 1051.03,249 1052.3,249L1097.7,249C1098.97,249 1100,251.913 1100,255.5Z" style="fill:rgb(215,215,215);"/>
            </g>
            <g transform="matrix(0.244876,0.0656142,-0.258819,0.965926,127.382,-54.2479)">
                <path d="M1100,252L1100,259C1100,260.656 1094.7,262 1088.17,262L1061.83,262C1055.3,262 1050,260.656 1050,259L1050,252C1050,250.344 1055.3,249 1061.83,249L1088.17,249C1094.7,249 1100,250.344 1100,252Z" style="fill:rgb(255,203,76);"/>
            </g>
            <g transform="matrix(0.244876,0.0656142,-0.0796366,0.297208,82.7654,112.263)">
                <path d="M1100,255.5C1100,259.087 1096.46,262 1092.11,262L1057.89,262C1053.54,262 1050,259.087 1050,255.5C1050,251.913 1053.54,249 1057.89,249L1092.11,249C1096.46,249 1100,251.913 1100,255.5Z" style="fill:rgb(255,138,76);"/>
            </g>
        </g>
    </g>
    <defs>
        <linearGradient id="_Linear2" x1="0" y1="0" x2="1" y2="0" gradientUnits="userSpaceOnUse" gradientTransform="matrix(56,0,0,56,933,265)"><stop offset="0" style="stop-color:rgb(85,3,168);stop-opacity:1"/><stop offset="1" style="stop-color:rgb(155,8,235);stop-opacity:1"/></linearGradient>
        <linearGradient id="_Linear3" x1="0" y1="0" x2="1" y2="0" gradientUnits="userSpaceOnUse" gradientTransform="matrix(56,0,0,56,933,265)"><stop offset="0" style="stop-color:rgb(85,3,168);stop-opacity:1"/><stop offset="1" style="stop-color:rgb(155,8,235);stop-opacity:1"/></linearGradient>
        <linearGradient id="_Linear4" x1="0" y1="0" x2="1" y2="0" gradientUnits="userSpaceOnUse" gradientTransform="matrix(56,0,0,56,933,265)"><stop offset="0" style="stop-color:rgb(85,3,168);stop-opacity:1"/><stop offset="1" style="stop-color:rgb(155,8,235);stop-opacity:1"/></linearGradient>
    </defs>
</svg>
