<?xml version="1.0" encoding="UTF-8" standalone="no"?>
<!DOCTYPE svg PUBLIC "-//W3C//DTD SVG 1.1//EN" "http://www.w3.org/Graphics/SVG/1.1/DTD/svg11.dtd">
<svg width="100%" height="100%" viewBox="0 0 100 100" version="1.1" xmlns="http://www.w3.org/2000/svg" xmlns:xlink="http://www.w3.org/1999/xlink" xml:space="preserve" xmlns:serif="http://www.serif.com/" style="fill-rule:evenodd;clip-rule:evenodd;stroke-linecap:round;stroke-linejoin:round;stroke-miterlimit:1.5;">
    <g id="background-pack-spider-cube" transform="matrix(1,0,0,1,-270,-180)">
        <g>
            <clipPath id="_clip1">
                <rect x="270" y="180" width="100" height="100"/>
            </clipPath>
            <g clip-path="url(#_clip1)">
                <g id="Background" transform="matrix(0.412391,0,0,0.682116,192.277,102.697)">
                    <rect x="188.469" y="113.328" width="242.489" height="146.603" style="fill:rgb(254,194,240);"/>
                </g>
                <g transform="matrix(-2.28132e-17,-1.59874,-1.22617,-2.28132e-17,643.859,1790.55)">
                    <path d="M989,245.4L989,284.6C989,289.236 986.113,293 982.558,293L939.442,293C935.887,293 933,289.236 933,284.6L933,245.4C933,240.764 935.887,237 939.442,237L982.558,237C986.113,237 989,240.764 989,245.4Z" style="fill:url(#_Linear2);"/>
                </g>
                <g transform="matrix(-2.55366e-17,-0.688523,-0.271479,-2.55366e-17,379.117,930.602)">
                    <path d="M989,251L989,279C989,286.727 986.527,293 983.48,293L938.52,293C935.473,293 933,286.727 933,279L933,251C933,243.273 935.473,237 938.52,237L983.48,237C986.527,237 989,243.273 989,251Z" style="fill:url(#_Linear3);"/>
                </g>
                <g transform="matrix(-7.31267e-18,-0.390904,-0.271479,-7.31267e-18,414.693,652.923)">
                    <path d="M989,251L989,279C989,286.727 984.643,293 979.277,293L942.723,293C937.357,293 933,286.727 933,279L933,251C933,243.273 937.357,237 942.723,237L979.277,237C984.643,237 989,243.273 989,251Z" style="fill:url(#_Linear4);"/>
                </g>
                <g transform="matrix(-2.64057e-17,-0.702717,-0.271479,-2.64057e-17,439.46,940.25)">
                    <path d="M989,251L989,279C989,286.727 986.576,293 983.591,293L938.409,293C935.424,293 933,286.727 933,279L933,251C933,243.273 935.424,237 938.409,237L983.591,237C986.576,237 989,243.273 989,251Z" style="fill:url(#_Linear5);"/>
                </g>
                <g transform="matrix(-1.51229e-17,-0.518455,-0.271479,-1.51229e-17,353.839,772.24)">
                    <path d="M989,251L989,279C989,286.727 985.715,293 981.669,293L940.331,293C936.285,293 933,286.727 933,279L933,251C933,243.273 936.285,237 940.331,237L981.669,237C985.715,237 989,243.273 989,251Z" style="fill:url(#_Linear6);"/>
                </g>
                <g transform="matrix(0.415674,0,0,0.546793,-112.776,55.6986)">
                    <path d="M1100,255.5C1100,259.087 1096.17,262 1091.45,262L1058.55,262C1053.83,262 1050,259.087 1050,255.5C1050,251.913 1053.83,249 1058.55,249L1091.45,249C1096.17,249 1100,251.913 1100,255.5Z" style="fill:white;"/>
                </g>
                <g transform="matrix(0.140064,0,0,0.546793,180.843,51.0001)">
                    <path d="M1100,255.404L1100,255.596C1100,259.131 1088.8,262 1075,262C1061.2,262 1050,259.131 1050,255.596L1050,255.404C1050,251.869 1061.2,249 1075,249C1088.8,249 1100,251.869 1100,255.404Z" style="fill:white;"/>
                </g>
                <g transform="matrix(0.140064,0,0,0.546793,186.745,51.0001)">
                    <path d="M1100,255.404L1100,255.596C1100,259.131 1088.8,262 1075,262C1061.2,262 1050,259.131 1050,255.596L1050,255.404C1050,251.869 1061.2,249 1075,249C1088.8,249 1100,251.869 1100,255.404Z" style="fill:white;"/>
                </g>
                <g transform="matrix(0.415674,0,0,0.546793,-162.259,110.255)">
                    <path d="M1100,255.5C1100,259.087 1096.17,262 1091.45,262L1058.55,262C1053.83,262 1050,259.087 1050,255.5C1050,251.913 1053.83,249 1058.55,249L1091.45,249C1096.17,249 1100,251.913 1100,255.5Z" style="fill:white;"/>
                </g>
                <g transform="matrix(0.140064,0,0,0.546793,131.36,105.557)">
                    <path d="M1100,255.404L1100,255.596C1100,259.131 1088.8,262 1075,262C1061.2,262 1050,259.131 1050,255.596L1050,255.404C1050,251.869 1061.2,249 1075,249C1088.8,249 1100,251.869 1100,255.404Z" style="fill:white;"/>
                </g>
                <g transform="matrix(0.140064,0,0,0.546793,137.262,105.557)">
                    <path d="M1100,255.404L1100,255.596C1100,259.131 1088.8,262 1075,262C1061.2,262 1050,259.131 1050,255.596L1050,255.404C1050,251.869 1061.2,249 1075,249C1088.8,249 1100,251.869 1100,255.404Z" style="fill:white;"/>
                </g>
                <g transform="matrix(1,0,0,1,-660,-1130.02)">
                    <path d="M1020.3,1349L1016.98,1372.03L1002,1389.63L978.496,1397.1" style="fill:none;stroke:white;stroke-width:2.38px;"/>
                </g>
                <g transform="matrix(-0.353766,0,-6.74253e-17,0.881713,745.125,-7.99517)">
                    <path d="M1100,252.402L1100,258.598C1100,260.475 1096.2,262 1091.52,262L1058.48,262C1053.8,262 1050,260.475 1050,258.598L1050,252.402C1050,250.525 1053.8,249 1058.48,249L1091.52,249C1096.2,249 1100,250.525 1100,252.402Z" style="fill:rgb(235,43,109);"/>
                </g>
                <g transform="matrix(-0.753766,0,-1.43662e-16,0.881713,1093.07,-29.5465)">
                    <path d="M1100,252.402L1100,258.598C1100,260.475 1098.22,262 1096.02,262L1053.98,262C1051.78,262 1050,260.475 1050,258.598L1050,252.402C1050,250.525 1051.78,249 1053.98,249L1096.02,249C1098.22,249 1100,250.525 1100,252.402Z" style="fill:rgb(235,43,109);"/>
                </g>
                <g transform="matrix(-0.353766,0,-2.24751e-17,0.266328,745.125,145.236)">
                    <path d="M1100,255.5C1100,259.087 1097.81,262 1095.11,262L1054.89,262C1052.19,262 1050,259.087 1050,255.5C1050,251.913 1052.19,249 1054.89,249L1095.11,249C1097.81,249 1100,251.913 1100,255.5Z" style="fill:rgb(196,12,75);"/>
                </g>
                <g transform="matrix(-0.753766,0,-4.78874e-17,0.266328,1093.07,123.684)">
                    <path d="M1100,255.5C1100,259.087 1098.97,262 1097.7,262L1052.3,262C1051.03,262 1050,259.087 1050,255.5C1050,251.913 1051.03,249 1052.3,249L1097.7,249C1098.97,249 1100,251.913 1100,255.5Z" style="fill:rgb(196,12,75);"/>
                </g>
                <g transform="matrix(0.244876,0.0656142,-0.258819,0.965926,120.013,-50.1356)">
                    <path d="M1100,252L1100,259C1100,260.656 1094.7,262 1088.17,262L1061.83,262C1055.3,262 1050,260.656 1050,259L1050,252C1050,250.344 1055.3,249 1061.83,249L1088.17,249C1094.7,249 1100,250.344 1100,252Z" style="fill:rgb(255,203,76);"/>
                </g>
                <g transform="matrix(0.244876,0.0656142,-0.0796366,0.297208,75.3966,116.375)">
                    <path d="M1100,255.5C1100,259.087 1096.46,262 1092.11,262L1057.89,262C1053.54,262 1050,259.087 1050,255.5C1050,251.913 1053.54,249 1057.89,249L1092.11,249C1096.46,249 1100,251.913 1100,255.5Z" style="fill:rgb(255,143,65);"/>
                </g>
                <g transform="matrix(0.415674,0,0,0.546793,-90.0718,127.679)">
                    <path d="M1100,255.5C1100,259.087 1096.17,262 1091.45,262L1058.55,262C1053.83,262 1050,259.087 1050,255.5C1050,251.913 1053.83,249 1058.55,249L1091.45,249C1096.17,249 1100,251.913 1100,255.5Z" style="fill:white;"/>
                </g>
                <g transform="matrix(0.140064,0,0,0.546793,203.547,122.98)">
                    <path d="M1100,255.404L1100,255.596C1100,259.131 1088.8,262 1075,262C1061.2,262 1050,259.131 1050,255.596L1050,255.404C1050,251.869 1061.2,249 1075,249C1088.8,249 1100,251.869 1100,255.404Z" style="fill:white;"/>
                </g>
                <g transform="matrix(0.140064,0,0,0.546793,209.449,122.98)">
                    <path d="M1100,255.404L1100,255.596C1100,259.131 1088.8,262 1075,262C1061.2,262 1050,259.131 1050,255.596L1050,255.404C1050,251.869 1061.2,249 1075,249C1088.8,249 1100,251.869 1100,255.404Z" style="fill:white;"/>
                </g>
            </g>
        </g>
    </g>
    <defs>
        <linearGradient id="_Linear2" x1="0" y1="0" x2="1" y2="0" gradientUnits="userSpaceOnUse" gradientTransform="matrix(56,0,0,56,933,265)"><stop offset="0" style="stop-color:rgb(254,152,240);stop-opacity:1"/><stop offset="1" style="stop-color:rgb(213,113,240);stop-opacity:1"/></linearGradient>
        <linearGradient id="_Linear3" x1="0" y1="0" x2="1" y2="0" gradientUnits="userSpaceOnUse" gradientTransform="matrix(56,0,0,56,933,265)"><stop offset="0" style="stop-color:rgb(254,152,240);stop-opacity:1"/><stop offset="1" style="stop-color:rgb(213,113,240);stop-opacity:1"/></linearGradient>
        <linearGradient id="_Linear4" x1="0" y1="0" x2="1" y2="0" gradientUnits="userSpaceOnUse" gradientTransform="matrix(56,0,0,56,933,265)"><stop offset="0" style="stop-color:rgb(254,152,240);stop-opacity:1"/><stop offset="1" style="stop-color:rgb(213,113,240);stop-opacity:1"/></linearGradient>
        <linearGradient id="_Linear5" x1="0" y1="0" x2="1" y2="0" gradientUnits="userSpaceOnUse" gradientTransform="matrix(56,0,0,56,933,265)"><stop offset="0" style="stop-color:rgb(254,152,240);stop-opacity:1"/><stop offset="1" style="stop-color:rgb(213,113,240);stop-opacity:1"/></linearGradient>
        <linearGradient id="_Linear6" x1="0" y1="0" x2="1" y2="0" gradientUnits="userSpaceOnUse" gradientTransform="matrix(56,0,0,56,933,265)"><stop offset="0" style="stop-color:rgb(254,152,240);stop-opacity:1"/><stop offset="1" style="stop-color:rgb(213,113,240);stop-opacity:1"/></linearGradient>
    </defs>
</svg>
