<?xml version="1.0" encoding="UTF-8" standalone="no"?>
<!DOCTYPE svg PUBLIC "-//W3C//DTD SVG 1.1//EN" "http://www.w3.org/Graphics/SVG/1.1/DTD/svg11.dtd">
<svg width="100%" height="100%" viewBox="0 0 100 100" version="1.1" xmlns="http://www.w3.org/2000/svg" xmlns:xlink="http://www.w3.org/1999/xlink" xml:space="preserve" xmlns:serif="http://www.serif.com/" style="fill-rule:evenodd;clip-rule:evenodd;stroke-linejoin:round;stroke-miterlimit:2;">
    <g id="background-pack-lemon-difficult" transform="matrix(1,0,0,1,-270,-180)">
        <g>
            <g>
                <clipPath id="_clip1">
                    <rect x="270" y="180" width="100" height="100"/>
                </clipPath>
                <g clip-path="url(#_clip1)">
                    <g id="Background" transform="matrix(0.412391,0,0,0.682116,192.277,102.697)">
                        <rect x="188.469" y="113.328" width="242.489" height="146.603" style="fill:rgb(76,125,255);"/>
                    </g>
                    <g transform="matrix(4.92046e-17,-1.33655,0.532982,-4.92046e-17,152.647,1532.28)">
                        <path d="M989,245.4L989,284.6C989,289.236 987.499,293 985.65,293L936.35,293C934.501,293 933,289.236 933,284.6L933,245.4C933,240.764 934.501,237 936.35,237L985.65,237C987.499,237 989,240.764 989,245.4Z" style="fill:url(#_Linear2);"/>
                    </g>
                    <g transform="matrix(2.64795e-17,-0.719265,0.286825,-2.64795e-17,248.399,956.353)">
                        <path d="M989,245.4L989,284.6C989,289.236 987.499,293 985.65,293L936.35,293C934.501,293 933,289.236 933,284.6L933,245.4C933,240.764 934.501,237 936.35,237L985.65,237C987.499,237 989,240.764 989,245.4Z" style="fill:url(#_Linear3);"/>
                    </g>
                    <g transform="matrix(3.58373e-17,-0.791833,0.206567,-3.58374e-17,286.476,1020.78)">
                        <path d="M989,245.4L989,284.6C989,289.236 987.499,293 985.65,293L936.35,293C934.501,293 933,289.236 933,284.6L933,245.4C933,240.764 934.501,237 936.35,237L985.65,237C987.499,237 989,240.764 989,245.4Z" style="fill:url(#_Linear4);"/>
                    </g>
                    <g transform="matrix(4.6254e-17,-1.02199,0.266608,-4.62541e-17,288.814,1235.52)">
                        <path d="M989,245.4L989,284.6C989,289.236 987.499,293 985.65,293L936.35,293C934.501,293 933,289.236 933,284.6L933,245.4C933,240.764 934.501,237 936.35,237L985.65,237C987.499,237 989,240.764 989,245.4Z" style="fill:url(#_Linear5);"/>
                    </g>
                    <g transform="matrix(0.898878,0.240854,-0.228204,0.851669,-622.743,-204.39)">
                        <g transform="matrix(1,0,2.77556e-17,1,-6.59879,-4.021)">
                            <path d="M1100,252.402L1100,258.598C1100,260.475 1098.56,262 1096.78,262L1053.22,262C1051.44,262 1050,260.475 1050,258.598L1050,252.402C1050,250.525 1051.44,249 1053.22,249L1096.78,249C1098.56,249 1100,250.525 1100,252.402Z" style="fill:white;"/>
                        </g>
                        <g transform="matrix(1,0,1.11022e-16,1,91.4457,-38.7314)">
                            <path d="M1100,252.402L1100,258.598C1100,260.475 1098.56,262 1096.78,262L1053.22,262C1051.44,262 1050,260.475 1050,258.598L1050,252.402C1050,250.525 1051.44,249 1053.22,249L1096.78,249C1098.56,249 1100,250.525 1100,252.402Z" style="fill:white;"/>
                        </g>
                    </g>
                    <g transform="matrix(0.898878,0.240854,-0.0689309,0.257254,-662.402,-56.3801)">
                        <g transform="matrix(1,0,0,1,-6.59879,-13.312)">
                            <path d="M1100,255.5C1100,259.087 1099.17,262 1098.14,262L1051.86,262C1050.83,262 1050,259.087 1050,255.5C1050,251.913 1050.83,249 1051.86,249L1098.14,249C1099.17,249 1100,251.913 1100,255.5Z" style="fill:rgb(218,218,218);"/>
                        </g>
                        <g transform="matrix(1,0,0,1,91.4457,-128.225)">
                            <path d="M1100,255.5C1100,259.087 1099.17,262 1098.14,262L1051.86,262C1050.83,262 1050,259.087 1050,255.5C1050,251.913 1050.83,249 1051.86,249L1098.14,249C1099.17,249 1100,251.913 1100,255.5Z" style="fill:rgb(218,218,218);"/>
                        </g>
                    </g>
                    <g transform="matrix(0.244876,0.0656142,-0.258819,0.965926,96.5841,-57.459)">
                        <g transform="matrix(1.00418,1.22647e-07,-1.62856e-06,1.00418,-27.3986,-1.30522)">
                            <path d="M1100,251.988L1100,259.012C1100,260.661 1094.72,262 1088.22,262L1061.78,262C1055.28,262 1050,260.661 1050,259.012L1050,251.988C1050,250.339 1055.28,249 1061.78,249L1088.22,249C1094.72,249 1100,250.339 1100,251.988Z" style="fill:rgb(255,203,76);"/>
                        </g>
                        <g transform="matrix(1.00418,1.22647e-07,-5.01095e-07,0.308978,-27.3989,171.8)">
                            <path d="M1100,255.5C1100,259.087 1096.46,262 1092.11,262L1057.89,262C1053.54,262 1050,259.087 1050,255.5C1050,251.913 1053.54,249 1057.89,249L1092.11,249C1096.46,249 1100,251.913 1100,255.5Z" style="fill:rgb(255,143,65);"/>
                        </g>
                    </g>
                    <g transform="matrix(1,0,0,1,-8,1)">
                        <g transform="matrix(2.49204,0,0,0.899252,202.477,194.511)">
                            <path d="M69,8.25L69,12.75C69,13.992 68.636,15 68.188,15L60.812,15C60.364,15 60,13.992 60,12.75L60,8.25C60,7.008 60.364,6 60.812,6L68.188,6C68.636,6 69,7.008 69,8.25Z" style="fill:white;"/>
                        </g>
                        <g transform="matrix(1.02772,0,0,0.899252,293.42,188.73)">
                            <path d="M69,8.25L69,12.75C69,13.992 68.118,15 67.031,15L61.969,15C60.882,15 60,13.992 60,12.75L60,8.25C60,7.008 60.882,6 61.969,6L67.031,6C68.118,6 69,7.008 69,8.25Z" style="fill:white;"/>
                        </g>
                        <g transform="matrix(1.02772,0,0,0.899252,299.975,191.188)">
                            <path d="M69,8.25L69,12.75C69,13.992 68.118,15 67.031,15L61.969,15C60.882,15 60,13.992 60,12.75L60,8.25C60,7.008 60.882,6 61.969,6L67.031,6C68.118,6 69,7.008 69,8.25Z" style="fill:white;"/>
                        </g>
                    </g>
                    <g transform="matrix(1,0,0,1,-0.0909317,0.895103)">
                        <g transform="matrix(2.49204,0,0,0.899252,125.14,183.616)">
                            <path d="M69,8.25L69,12.75C69,13.992 68.636,15 68.188,15L60.812,15C60.364,15 60,13.992 60,12.75L60,8.25C60,7.008 60.364,6 60.812,6L68.188,6C68.636,6 69,7.008 69,8.25Z" style="fill:white;"/>
                        </g>
                        <g transform="matrix(1.02772,0,0,0.899252,216.083,177.835)">
                            <path d="M69,8.25L69,12.75C69,13.992 68.118,15 67.031,15L61.969,15C60.882,15 60,13.992 60,12.75L60,8.25C60,7.008 60.882,6 61.969,6L67.031,6C68.118,6 69,7.008 69,8.25Z" style="fill:white;"/>
                        </g>
                        <g transform="matrix(1.02772,0,0,0.899252,222.637,180.293)">
                            <path d="M69,8.25L69,12.75C69,13.992 68.118,15 67.031,15L61.969,15C60.882,15 60,13.992 60,12.75L60,8.25C60,7.008 60.882,6 61.969,6L67.031,6C68.118,6 69,7.008 69,8.25Z" style="fill:white;"/>
                        </g>
                    </g>
                </g>
            </g>
        </g>
    </g>
    <defs>
        <linearGradient id="_Linear2" x1="0" y1="0" x2="1" y2="0.177271" gradientUnits="userSpaceOnUse" gradientTransform="matrix(55.5751,1.87624,-1.87624,55.5751,933,263.335)"><stop offset="0" style="stop-color:rgb(76,125,255);stop-opacity:1"/><stop offset="1" style="stop-color:rgb(76,169,255);stop-opacity:1"/></linearGradient>
        <linearGradient id="_Linear3" x1="0" y1="0" x2="1" y2="0.17727" gradientUnits="userSpaceOnUse" gradientTransform="matrix(55.5751,1.87624,-1.87624,55.5751,933,263.335)"><stop offset="0" style="stop-color:rgb(76,125,255);stop-opacity:1"/><stop offset="1" style="stop-color:rgb(76,169,255);stop-opacity:1"/></linearGradient>
        <linearGradient id="_Linear4" x1="0" y1="0" x2="1" y2="0.989791" gradientUnits="userSpaceOnUse" gradientTransform="matrix(55.5616,4.38314,-4.38314,55.5616,933,263.335)"><stop offset="0" style="stop-color:rgb(76,125,255);stop-opacity:1"/><stop offset="1" style="stop-color:rgb(76,169,255);stop-opacity:1"/></linearGradient>
        <linearGradient id="_Linear5" x1="0" y1="0" x2="1" y2="0.989795" gradientUnits="userSpaceOnUse" gradientTransform="matrix(55.5616,4.38314,-4.38314,55.5616,933,263.335)"><stop offset="0" style="stop-color:rgb(76,125,255);stop-opacity:1"/><stop offset="1" style="stop-color:rgb(76,169,255);stop-opacity:1"/></linearGradient>
    </defs>
</svg>
