<?xml version="1.0" encoding="UTF-8" standalone="no"?>
<!DOCTYPE svg PUBLIC "-//W3C//DTD SVG 1.1//EN" "http://www.w3.org/Graphics/SVG/1.1/DTD/svg11.dtd">
<svg width="100%" height="100%" viewBox="0 0 100 100" version="1.1" xmlns="http://www.w3.org/2000/svg" xmlns:xlink="http://www.w3.org/1999/xlink" xml:space="preserve" xmlns:serif="http://www.serif.com/" style="fill-rule:evenodd;clip-rule:evenodd;stroke-linejoin:round;stroke-miterlimit:2;">
    <g id="background-pack-lemon-difficult" transform="matrix(1,0,0,1,-270,-180)">
        <g>
            <clipPath id="_clip1">
                <rect x="270" y="180" width="100" height="100"/>
            </clipPath>
            <g clip-path="url(#_clip1)">
                <g id="Background" transform="matrix(0.412391,0,0,0.682116,192.277,102.697)">
                    <rect x="188.469" y="113.328" width="242.489" height="146.603" style="fill:rgb(255,138,76);"/>
                </g>
                <g transform="matrix(4.92046e-17,-1.33655,0.532982,-4.92046e-17,152.647,1532.28)">
                    <path d="M989,245.4L989,284.6C989,289.236 987.499,293 985.65,293L936.35,293C934.501,293 933,289.236 933,284.6L933,245.4C933,240.764 934.501,237 936.35,237L985.65,237C987.499,237 989,240.764 989,245.4Z" style="fill:url(#_Linear2);"/>
                </g>
                <g transform="matrix(3.71768e-17,-0.890125,0.282982,-3.71768e-17,254.593,1112.39)">
                    <path d="M989,245.4L989,284.6C989,289.236 987.803,293 986.33,293L935.67,293C934.197,293 933,289.236 933,284.6L933,245.4C933,240.764 934.197,237 935.67,237L986.33,237C987.803,237 989,240.764 989,245.4Z" style="fill:url(#_Linear3);"/>
                </g>
                <g transform="matrix(2.19524e-17,-0.570062,0.211553,-2.19524e-17,263.938,814.889)">
                    <path d="M989,245.4L989,284.6C989,289.236 987.603,293 985.883,293L936.117,293C934.397,293 933,289.236 933,284.6L933,245.4C933,240.764 934.397,237 936.117,237L985.883,237C987.603,237 989,240.764 989,245.4Z" style="fill:url(#_Linear4);"/>
                </g>
                <g transform="matrix(5.57652e-17,-1.14012,0.22941,-5.57652e-17,297.494,1346.76)">
                    <path d="M989,245.4L989,284.6C989,289.236 988.243,293 987.31,293L934.69,293C933.757,293 933,289.236 933,284.6L933,245.4C933,240.764 933.757,237 934.69,237L987.31,237C988.243,237 989,240.764 989,245.4Z" style="fill:url(#_Linear5);"/>
                </g>
                <g transform="matrix(0.898878,0.240854,-0.228204,0.851669,-622.743,-204.39)">
                    <path d="M1100,252.402L1100,258.598C1100,260.475 1098.56,262 1096.78,262L1053.22,262C1051.44,262 1050,260.475 1050,258.598L1050,252.402C1050,250.525 1051.44,249 1053.22,249L1096.78,249C1098.56,249 1100,250.525 1100,252.402Z" style="fill:rgb(196,12,75);"/>
                </g>
                <g transform="matrix(0.898878,0.240854,-0.0689309,0.257254,-662.402,-56.3801)">
                    <path d="M1100,255.5C1100,259.087 1099.17,262 1098.14,262L1051.86,262C1050.83,262 1050,259.087 1050,255.5C1050,251.913 1050.83,249 1051.86,249L1098.14,249C1099.17,249 1100,251.913 1100,255.5Z" style="fill:rgb(235,43,109);"/>
                </g>
                <g transform="matrix(0.843993,-0.226147,0.228204,0.851669,-679.656,219.039)">
                    <path d="M1100,252.402L1100,258.598C1100,260.475 1098.46,262 1096.57,262L1053.43,262C1051.54,262 1050,260.475 1050,258.598L1050,252.402C1050,250.525 1051.54,249 1053.43,249L1096.57,249C1098.46,249 1100,250.525 1100,252.402Z" style="fill:rgb(196,12,75);"/>
                </g>
                <g transform="matrix(0.5939,0.159135,-0.228204,0.851669,-215.866,-195.72)">
                    <path d="M1100,252.402L1100,258.598C1100,260.475 1097.81,262 1095.12,262L1054.88,262C1052.19,262 1050,260.475 1050,258.598L1050,252.402C1050,250.525 1052.19,249 1054.88,249L1095.12,249C1097.81,249 1100,250.525 1100,252.402Z" style="fill:rgb(196,12,75);"/>
                </g>
                <g transform="matrix(0.843993,-0.226147,0.0689309,0.257254,-639.997,367.048)">
                    <path d="M1100,255.5C1100,259.087 1099.11,262 1098.02,262L1051.98,262C1050.89,262 1050,259.087 1050,255.5C1050,251.913 1050.89,249 1051.98,249L1098.02,249C1099.11,249 1100,251.913 1100,255.5Z" style="fill:rgb(235,43,109);"/>
                </g>
                <g transform="matrix(0.5939,0.159135,-0.0689309,0.257254,-255.525,-47.7102)">
                    <path d="M1100,255.5C1100,259.087 1098.74,262 1097.18,262L1052.82,262C1051.26,262 1050,259.087 1050,255.5C1050,251.913 1051.26,249 1052.82,249L1097.18,249C1098.74,249 1100,251.913 1100,255.5Z" style="fill:rgb(235,43,109);"/>
                </g>
                <g transform="matrix(0.902996,-0.241957,0.228204,0.851669,-666.692,307.609)">
                    <path d="M1100,252.402L1100,258.598C1100,260.475 1098.56,262 1096.79,262L1053.21,262C1051.44,262 1050,260.475 1050,258.598L1050,252.402C1050,250.525 1051.44,249 1053.21,249L1096.79,249C1098.56,249 1100,250.525 1100,252.402Z" style="fill:rgb(196,12,75);"/>
                </g>
                <g transform="matrix(0.902996,-0.241957,0.0689309,0.257254,-627.033,455.618)">
                    <path d="M1100,255.5C1100,259.087 1099.17,262 1098.15,262L1051.85,262C1050.83,262 1050,259.087 1050,255.5C1050,251.913 1050.83,249 1051.85,249L1098.15,249C1099.17,249 1100,251.913 1100,255.5Z" style="fill:rgb(235,43,109);"/>
                </g>
                <g transform="matrix(0.244876,0.0656142,-0.258819,0.965926,101.598,-52.4451)">
                    <path d="M1100,252L1100,259C1100,260.656 1094.7,262 1088.17,262L1061.83,262C1055.3,262 1050,260.656 1050,259L1050,252C1050,250.344 1055.3,249 1061.83,249L1088.17,249C1094.7,249 1100,250.344 1100,252Z" style="fill:rgb(255,203,76);"/>
                </g>
                <g transform="matrix(0.244876,0.0656142,-0.0796366,0.297208,56.9821,114.066)">
                    <path d="M1100,255.5C1100,259.087 1096.46,262 1092.11,262L1057.89,262C1053.54,262 1050,259.087 1050,255.5C1050,251.913 1053.54,249 1057.89,249L1092.11,249C1096.46,249 1100,251.913 1100,255.5Z" style="fill:rgb(255,143,65);"/>
                </g>
                <g transform="matrix(1,0,0,1,-772,-1137.02)">
                    <circle cx="1103.22" cy="1332.22" r="8.222" style="fill:white;fill-opacity:0.5;"/>
                </g>
                <g transform="matrix(0.513473,0,0,0.513473,-235.253,-488.854)">
                    <circle cx="1103.22" cy="1332.22" r="8.222" style="fill:white;"/>
                </g>
            </g>
        </g>
    </g>
    <defs>
        <linearGradient id="_Linear2" x1="0" y1="0" x2="1" y2="0" gradientUnits="userSpaceOnUse" gradientTransform="matrix(56,0,0,56,933,265)"><stop offset="0" style="stop-color:rgb(255,135,78);stop-opacity:1"/><stop offset="1" style="stop-color:rgb(255,103,76);stop-opacity:1"/></linearGradient>
        <linearGradient id="_Linear3" x1="0" y1="0" x2="1" y2="0" gradientUnits="userSpaceOnUse" gradientTransform="matrix(56,0,0,56,933,265)"><stop offset="0" style="stop-color:rgb(255,135,78);stop-opacity:1"/><stop offset="1" style="stop-color:rgb(255,103,76);stop-opacity:1"/></linearGradient>
        <linearGradient id="_Linear4" x1="0" y1="0" x2="1" y2="0" gradientUnits="userSpaceOnUse" gradientTransform="matrix(56,0,0,56,933,265)"><stop offset="0" style="stop-color:rgb(255,135,78);stop-opacity:1"/><stop offset="1" style="stop-color:rgb(255,103,76);stop-opacity:1"/></linearGradient>
        <linearGradient id="_Linear5" x1="0" y1="0" x2="1" y2="0" gradientUnits="userSpaceOnUse" gradientTransform="matrix(56,0,0,56,933,265)"><stop offset="0" style="stop-color:rgb(255,135,78);stop-opacity:1"/><stop offset="1" style="stop-color:rgb(255,103,76);stop-opacity:1"/></linearGradient>
    </defs>
</svg>
