<?xml version="1.0" encoding="UTF-8" standalone="no"?><!DOCTYPE svg PUBLIC "-//W3C//DTD SVG 1.1//EN" "http://www.w3.org/Graphics/SVG/1.1/DTD/svg11.dtd"><svg width="100%" height="100%" viewBox="0 0 100 100" version="1.1" xmlns="http://www.w3.org/2000/svg" xmlns:xlink="http://www.w3.org/1999/xlink" xml:space="preserve" xmlns:serif="http://www.serif.com/" style="fill-rule:evenodd;clip-rule:evenodd;stroke-linecap:round;stroke-linejoin:round;stroke-miterlimit:1.5;"><g id="background-level-editor"><g><clipPath id="_clip1"><rect x="0" y="0" width="100" height="100"/></clipPath><g clip-path="url(#_clip1)"><g id="Background"><rect x="-0" y="-0" width="100" height="100" style="fill:#4ca9ff;"/></g><g><path d="M22.098,45.903l54.098,54.098l-54.098,54.098l-54.098,-54.098l54.098,-54.098Z" style="fill:url(#_Linear2);"/></g><g><path d="M81.108,62.227l37.773,37.773l-37.773,37.773l-37.773,-37.773l37.773,-37.773Z" style="fill:url(#_Linear3);"/></g><g><path d="M26.228,76.227l23.773,23.773l-23.773,23.773l-23.773,-23.773l23.773,-23.773Z" style="fill:url(#_Linear4);"/></g></g></g><g id="Add"><g><path d="M64.043,52.196l-24,0" style="fill:none;stroke:#000;stroke-opacity:0.25;stroke-width:7.23px;"/><path d="M52.043,40.196l0,24" style="fill:none;stroke:#000;stroke-opacity:0.25;stroke-width:7.23px;"/></g><g><path d="M64.043,50l-24,0" style="fill:none;stroke:#fff;stroke-width:7.23px;"/><path d="M52.043,38l0,24" style="fill:none;stroke:#fff;stroke-width:7.23px;"/></g></g></g><defs><linearGradient id="_Linear2" x1="0" y1="0" x2="1" y2="0" gradientUnits="userSpaceOnUse" gradientTransform="matrix(0,54.09796,-54.09796,0,22.09791,45.90268)"><stop offset="0" style="stop-color:#4c7dff;stop-opacity:1"/><stop offset="1" style="stop-color:#4ca9ff;stop-opacity:1"/></linearGradient><linearGradient id="_Linear3" x1="0" y1="0" x2="1" y2="0" gradientUnits="userSpaceOnUse" gradientTransform="matrix(0,37.772504,-37.772504,0,81.108034,62.227232)"><stop offset="0" style="stop-color:#4c7dff;stop-opacity:1"/><stop offset="1" style="stop-color:#4ca9ff;stop-opacity:1"/></linearGradient><linearGradient id="_Linear4" x1="0" y1="0" x2="1" y2="0" gradientUnits="userSpaceOnUse" gradientTransform="matrix(0,23.772504,-23.772504,0,26.228034,76.227232)"><stop offset="0" style="stop-color:#4c7dff;stop-opacity:1"/><stop offset="1" style="stop-color:#4ca9ff;stop-opacity:1"/></linearGradient></defs></svg>