<?xml version="1.0" encoding="UTF-8" standalone="no"?>
<!DOCTYPE svg PUBLIC "-//W3C//DTD SVG 1.1//EN" "http://www.w3.org/Graphics/SVG/1.1/DTD/svg11.dtd">
<svg width="100%" height="100%" viewBox="0 0 100 100" version="1.1" xmlns="http://www.w3.org/2000/svg" xmlns:xlink="http://www.w3.org/1999/xlink" xml:space="preserve" xmlns:serif="http://www.serif.com/" style="fill-rule:evenodd;clip-rule:evenodd;stroke-linejoin:round;stroke-miterlimit:2;">
    <g id="background-pack-boxel-classics" transform="matrix(1,0,0,1,-270,-180)">
        <g>
            <clipPath id="_clip1">
                <rect x="270" y="180" width="100" height="100"/>
            </clipPath>
            <g clip-path="url(#_clip1)">
                <g id="Background" transform="matrix(0.412391,0,0,0.682116,192.277,102.697)">
                    <rect x="188.469" y="113.328" width="242.489" height="146.603" style="fill:rgb(72,9,63);"/>
                </g>
                <g transform="matrix(0.322476,0.186181,-0.805315,1.39485,1022.99,-1916.69)">
                    <path d="M1205.16,1361.44L1205.16,1412.57C1205.16,1413.36 1202.39,1414 1198.99,1414L1170.17,1414C1166.77,1414 1164,1413.36 1164,1412.57L1164,1361.44C1164,1360.65 1166.77,1360.02 1170.17,1360.02L1198.99,1360.02C1202.39,1360.02 1205.16,1360.65 1205.16,1361.44Z" style="fill:url(#_Linear2);"/>
                </g>
                <g transform="matrix(0.322476,0.186181,-0.499007,0.864305,584.034,-1176.13)">
                    <path d="M1205.16,1362.32L1205.16,1411.7C1205.16,1412.97 1202.39,1414 1198.99,1414L1170.17,1414C1166.77,1414 1164,1412.97 1164,1411.7L1164,1362.32C1164,1361.05 1166.77,1360.02 1170.17,1360.02L1198.99,1360.02C1202.39,1360.02 1205.16,1361.05 1205.16,1362.32Z" style="fill:url(#_Linear3);"/>
                </g>
                <g transform="matrix(0.322476,0.186181,-0.639643,1.10789,807.065,-1501.82)">
                    <path d="M1205.16,1361.81L1205.16,1412.2C1205.16,1413.19 1202.39,1414 1198.99,1414L1170.17,1414C1166.77,1414 1164,1413.19 1164,1412.2L1164,1361.81C1164,1360.82 1166.77,1360.02 1170.17,1360.02L1198.99,1360.02C1202.39,1360.02 1205.16,1360.82 1205.16,1361.81Z" style="fill:url(#_Linear4);"/>
                </g>
                <g transform="matrix(0.462895,0.267252,-0.594449,1.02962,614.897,-1481.96)">
                    <path d="M1205.16,1362.79L1205.16,1411.22C1205.16,1412.76 1202.39,1414 1198.99,1414L1170.17,1414C1166.77,1414 1164,1412.76 1164,1411.22L1164,1362.79C1164,1361.26 1166.77,1360.02 1170.17,1360.02L1198.99,1360.02C1202.39,1360.02 1205.16,1361.26 1205.16,1362.79Z" style="fill:url(#_Linear5);"/>
                </g>
                <g transform="matrix(0.462895,0.267252,-0.594449,1.02962,652.925,-1484.19)">
                    <path d="M1205.16,1362.79L1205.16,1411.22C1205.16,1412.76 1202.39,1414 1198.99,1414L1170.17,1414C1166.77,1414 1164,1412.76 1164,1411.22L1164,1362.79C1164,1361.26 1166.77,1360.02 1170.17,1360.02L1198.99,1360.02C1202.39,1360.02 1205.16,1361.26 1205.16,1362.79Z" style="fill:url(#_Linear6);"/>
                </g>
                <g transform="matrix(0.462895,0.267252,-0.389605,0.674816,311.941,-980.27)">
                    <path d="M1205.16,1364.25L1205.16,1409.77C1205.16,1412.1 1202.39,1414 1198.99,1414L1170.17,1414C1166.77,1414 1164,1412.1 1164,1409.77L1164,1364.25C1164,1361.91 1166.77,1360.02 1170.17,1360.02L1198.99,1360.02C1202.39,1360.02 1205.16,1361.91 1205.16,1364.25Z" style="fill:url(#_Linear7);"/>
                </g>
                <g transform="matrix(-0.490406,-0.283136,-0.440857,0.763586,934.186,382.438)">
                    <path d="M1100,252.402L1100,258.598C1100,260.475 1097.63,262 1094.7,262L1055.3,262C1052.37,262 1050,260.475 1050,258.598L1050,252.402C1050,250.525 1052.37,249 1055.3,249L1094.7,249C1097.63,249 1100,250.525 1100,252.402Z" style="fill:rgb(153,7,153);"/>
                </g>
                <g transform="matrix(-0.886272,-6.34704e-17,-9.07509e-16,0.881713,1274.72,53.0981)">
                    <path d="M1100,252.402L1100,258.598C1100,260.475 1098.48,262 1096.62,262L1053.38,262C1051.52,262 1050,260.475 1050,258.598L1050,252.402C1050,250.525 1051.52,249 1053.38,249L1096.62,249C1098.48,249 1100,250.525 1100,252.402Z" style="fill:rgb(153,7,153);"/>
                </g>
                <g transform="matrix(-0.430406,-0.248495,-0.133164,0.230647,791.571,477.035)">
                    <path d="M1100,255.5C1100,259.087 1098.44,262 1096.52,262L1053.48,262C1051.56,262 1050,259.087 1050,255.5C1050,251.913 1051.56,249 1053.48,249L1096.52,249C1098.44,249 1100,251.913 1100,255.5Z" style="fill:rgb(247,4,93);"/>
                </g>
                <g transform="matrix(-0.826272,-6.34704e-17,-2.60488e-16,0.266328,1211.72,206.329)">
                    <path d="M1100,255.5C1100,259.087 1099.06,262 1097.9,262L1052.1,262C1050.94,262 1050,259.087 1050,255.5C1050,251.913 1050.94,249 1052.1,249L1097.9,249C1099.06,249 1100,251.913 1100,255.5Z" style="fill:rgb(247,4,93);"/>
                </g>
                <g transform="matrix(-0.566272,-6.34704e-17,-5.79841e-16,0.881713,975.29,41.6182)">
                    <path d="M1100,252.402L1100,258.598C1100,260.475 1097.63,262 1094.7,262L1055.3,262C1052.37,262 1050,260.475 1050,258.598L1050,252.402C1050,250.525 1052.37,249 1055.3,249L1094.7,249C1097.63,249 1100,250.525 1100,252.402Z" style="fill:rgb(153,7,153);"/>
                </g>
                <g transform="matrix(-0.566272,-6.34704e-17,-1.78521e-16,0.266328,975.29,194.849)">
                    <path d="M1100,255.5C1100,259.087 1098.63,262 1096.94,262L1053.06,262C1051.37,262 1050,259.087 1050,255.5C1050,251.913 1051.37,249 1053.06,249L1096.94,249C1098.63,249 1100,251.913 1100,255.5Z" style="fill:rgb(247,4,93);"/>
                </g>
                <g transform="matrix(0.253514,6.2093e-17,-2.44929e-16,1,41.1348,12.1648)">
                    <path d="M1100,252L1100,259C1100,260.656 1094.7,262 1088.17,262L1061.83,262C1055.3,262 1050,260.656 1050,259L1050,252C1050,250.344 1055.3,249 1061.83,249L1088.17,249C1094.7,249 1100,250.344 1100,252Z" style="fill:rgb(255,203,76);"/>
                </g>
                <g transform="matrix(0.253514,6.2093e-17,-8.92407e-17,0.307692,41.1348,184.549)">
                    <path d="M1100,255.5C1100,259.087 1096.46,262 1092.11,262L1057.89,262C1053.54,262 1050,259.087 1050,255.5C1050,251.913 1053.54,249 1057.89,249L1092.11,249C1096.46,249 1100,251.913 1100,255.5Z" style="fill:rgb(255,143,65);"/>
                </g>
            </g>
        </g>
    </g>
    <defs>
        <linearGradient id="_Linear2" x1="0" y1="0" x2="1" y2="-1.38539e-06" gradientUnits="userSpaceOnUse" gradientTransform="matrix(3.3056e-15,53.9845,-53.9845,3.3056e-15,1184.58,1360.02)"><stop offset="0" style="stop-color:rgb(128,9,92);stop-opacity:1"/><stop offset="1" style="stop-color:rgb(72,9,63);stop-opacity:1"/></linearGradient>
        <linearGradient id="_Linear3" x1="0" y1="0" x2="1" y2="-4.41478e-06" gradientUnits="userSpaceOnUse" gradientTransform="matrix(3.3056e-15,53.9845,-53.9845,3.3056e-15,1184.58,1360.02)"><stop offset="0" style="stop-color:rgb(128,9,92);stop-opacity:1"/><stop offset="1" style="stop-color:rgb(72,9,63);stop-opacity:1"/></linearGradient>
        <linearGradient id="_Linear4" x1="0" y1="0" x2="1" y2="-1.04431e-05" gradientUnits="userSpaceOnUse" gradientTransform="matrix(3.3056e-15,53.9845,-53.9845,3.3056e-15,1184.58,1360.02)"><stop offset="0" style="stop-color:rgb(128,9,92);stop-opacity:1"/><stop offset="1" style="stop-color:rgb(72,9,63);stop-opacity:1"/></linearGradient>
        <linearGradient id="_Linear5" x1="0" y1="0" x2="1" y2="1.87047e-06" gradientUnits="userSpaceOnUse" gradientTransform="matrix(3.3056e-15,53.9845,-53.9845,3.3056e-15,1184.58,1360.02)"><stop offset="0" style="stop-color:rgb(128,9,92);stop-opacity:1"/><stop offset="1" style="stop-color:rgb(72,9,63);stop-opacity:1"/></linearGradient>
        <linearGradient id="_Linear6" x1="0" y1="0" x2="1" y2="1.87047e-06" gradientUnits="userSpaceOnUse" gradientTransform="matrix(3.3056e-15,53.9845,-53.9845,3.3056e-15,1184.58,1360.02)"><stop offset="0" style="stop-color:rgb(128,9,92);stop-opacity:1"/><stop offset="1" style="stop-color:rgb(72,9,63);stop-opacity:1"/></linearGradient>
        <linearGradient id="_Linear7" x1="0" y1="0" x2="1" y2="0" gradientUnits="userSpaceOnUse" gradientTransform="matrix(3.3056e-15,53.9845,-53.9845,3.3056e-15,1184.58,1360.02)"><stop offset="0" style="stop-color:rgb(128,9,92);stop-opacity:1"/><stop offset="1" style="stop-color:rgb(72,9,63);stop-opacity:1"/></linearGradient>
    </defs>
</svg>
