<?xml version="1.0" encoding="UTF-8" standalone="no"?>
<!DOCTYPE svg PUBLIC "-//W3C//DTD SVG 1.1//EN" "http://www.w3.org/Graphics/SVG/1.1/DTD/svg11.dtd">
<svg width="100%" height="100%" viewBox="0 0 100 100" version="1.1" xmlns="http://www.w3.org/2000/svg" xmlns:xlink="http://www.w3.org/1999/xlink" xml:space="preserve" xmlns:serif="http://www.serif.com/" style="fill-rule:evenodd;clip-rule:evenodd;stroke-linejoin:round;stroke-miterlimit:2;">
    <g id="background-play" transform="matrix(1,0,0,1,-378,-180)">
        <clipPath id="_clip1">
            <rect x="378" y="180" width="100" height="100"/>
        </clipPath>
        <g clip-path="url(#_clip1)">
            <g id="Background" transform="matrix(0.412391,0,0,0.682116,300.277,102.697)">
                <rect x="188.469" y="113.328" width="242.489" height="146.603" style="fill:rgb(255,76,138);"/>
            </g>
            <g transform="matrix(0.46,0,0,7.30769,-97.8378,-1612.66)">
                <path d="M1100,250.574L1100,260.426C1100,261.295 1088.8,262 1075,262C1061.2,262 1050,261.295 1050,260.426L1050,250.574C1050,249.705 1061.2,249 1075,249C1088.8,249 1100,249.705 1100,250.574Z" style="fill:url(#_Linear2);"/>
            </g>
            <g transform="matrix(0.28,0,0,4.46154,109.629,-873.382)">
                <path d="M1100,250.569L1100,260.431C1100,261.297 1088.8,262 1075,262C1061.2,262 1050,261.297 1050,260.431L1050,250.569C1050,249.703 1061.2,249 1075,249C1088.8,249 1100,249.703 1100,250.569Z" style="fill:url(#_Linear3);"/>
            </g>
            <g transform="matrix(0.46,0,0,5.61538,-33.1183,-1176.82)">
                <path d="M1100,251.048L1100,259.952C1100,261.082 1088.8,262 1075,262C1061.2,262 1050,261.082 1050,259.952L1050,251.048C1050,249.918 1061.2,249 1075,249C1088.8,249 1100,249.918 1100,251.048Z" style="fill:url(#_Linear4);"/>
            </g>
            <g transform="matrix(0.46,0,0,4.07451,-49.8534,-773.108)">
                <path d="M1100,251.822L1100,259.178C1100,260.735 1088.8,262 1075,262C1061.2,262 1050,260.735 1050,259.178L1050,251.822C1050,250.265 1061.2,249 1075,249C1088.8,249 1100,250.265 1100,251.822Z" style="fill:url(#_Linear5);"/>
            </g>
            <g transform="matrix(0.965926,-0.258819,0.258819,0.965926,-705.169,296.39)">
                <path d="M1100,252L1100,259C1100,260.656 1098.66,262 1097,262L1053,262C1051.34,262 1050,260.656 1050,259L1050,252C1050,250.344 1051.34,249 1053,249L1097,249C1098.66,249 1100,250.344 1100,252Z" style="fill:rgb(255,214,135);"/>
            </g>
            <g transform="matrix(0.680899,0,0,0.680899,-303.011,63.1085)">
                <path d="M1131.94,192.888C1132.09,192.527 1132.44,192.291 1132.83,192.291C1133.23,192.291 1133.58,192.527 1133.73,192.888L1135.6,197.356L1140.07,199.228C1140.43,199.379 1140.67,199.733 1140.67,200.126C1140.67,200.518 1140.43,200.872 1140.07,201.024L1135.6,202.896L1133.73,207.363C1133.58,207.725 1133.23,207.96 1132.83,207.96C1132.44,207.96 1132.09,207.725 1131.94,207.363L1130.07,202.896L1125.6,201.024C1125.24,200.872 1125,200.518 1125,200.126C1125,199.733 1125.24,199.379 1125.6,199.228L1130.07,197.356L1131.94,192.888Z" style="fill:rgb(255,125,170);"/>
            </g>
            <g transform="matrix(0.680899,0,0,0.680899,-367.342,55.4395)">
                <path d="M1131.94,192.888C1132.09,192.527 1132.44,192.291 1132.83,192.291C1133.23,192.291 1133.58,192.527 1133.73,192.888L1135.6,197.356L1140.07,199.228C1140.43,199.379 1140.67,199.733 1140.67,200.126C1140.67,200.518 1140.43,200.872 1140.07,201.024L1135.6,202.896L1133.73,207.363C1133.58,207.725 1133.23,207.96 1132.83,207.96C1132.44,207.96 1132.09,207.725 1131.94,207.363L1130.07,202.896L1125.6,201.024C1125.24,200.872 1125,200.518 1125,200.126C1125,199.733 1125.24,199.379 1125.6,199.228L1130.07,197.356L1131.94,192.888Z" style="fill:rgb(255,125,170);"/>
            </g>
            <g transform="matrix(0.680899,0,0,0.680899,-337.945,76.7775)">
                <path d="M1131.94,192.888C1132.09,192.527 1132.44,192.291 1132.83,192.291C1133.23,192.291 1133.58,192.527 1133.73,192.888L1135.6,197.356L1140.07,199.228C1140.43,199.379 1140.67,199.733 1140.67,200.126C1140.67,200.518 1140.43,200.872 1140.07,201.024L1135.6,202.896L1133.73,207.363C1133.58,207.725 1133.23,207.96 1132.83,207.96C1132.44,207.96 1132.09,207.725 1131.94,207.363L1130.07,202.896L1125.6,201.024C1125.24,200.872 1125,200.518 1125,200.126C1125,199.733 1125.24,199.379 1125.6,199.228L1130.07,197.356L1131.94,192.888Z" style="fill:rgb(255,125,170);"/>
            </g>
            <g transform="matrix(0.965926,-0.258819,0.258819,0.965926,-634.672,277.501)">
                <path d="M1100,252L1100,259C1100,260.656 1098.66,262 1097,262L1053,262C1051.34,262 1050,260.656 1050,259L1050,252C1050,250.344 1051.34,249 1053,249L1097,249C1098.66,249 1100,250.344 1100,252Z" style="fill:rgb(255,214,135);"/>
            </g>
            <g transform="matrix(0.965926,-0.258819,0.0796366,0.297208,-660.553,462.901)">
                <path d="M1100,255.5C1100,259.087 1099.1,262 1098,262L1052,262C1050.9,262 1050,259.087 1050,255.5C1050,251.913 1050.9,249 1052,249L1098,249C1099.1,249 1100,251.913 1100,255.5Z" style="fill:rgb(255,194,76);"/>
            </g>
            <g transform="matrix(0.965926,-0.258819,0.0796366,0.297208,-590.055,444.011)">
                <path d="M1100,255.5C1100,259.087 1099.1,262 1098,262L1052,262C1050.9,262 1050,259.087 1050,255.5C1050,251.913 1050.9,249 1052,249L1098,249C1099.1,249 1100,251.913 1100,255.5Z" style="fill:rgb(255,194,76);"/>
            </g>
            <g transform="matrix(0.244876,-0.0656142,0.258819,0.965926,73.2345,76.4297)">
                <path d="M1100,252L1100,259C1100,260.656 1094.7,262 1088.17,262L1061.83,262C1055.3,262 1050,260.656 1050,259L1050,252C1050,250.344 1055.3,249 1061.83,249L1088.17,249C1094.7,249 1100,250.344 1100,252Z" style="fill:white;"/>
            </g>
            <g transform="matrix(0.244876,-0.0656142,0.0796366,0.297208,117.851,242.94)">
                <path d="M1100,255.5C1100,259.087 1096.46,262 1092.11,262L1057.89,262C1053.54,262 1050,259.087 1050,255.5C1050,251.913 1053.54,249 1057.89,249L1092.11,249C1096.46,249 1100,251.913 1100,255.5Z" style="fill:rgb(215,215,215);"/>
            </g>
        </g>
    </g>
    <defs>
        <linearGradient id="_Linear2" x1="0" y1="0" x2="1" y2="0" gradientUnits="userSpaceOnUse" gradientTransform="matrix(9.72261e-15,9.99493,-158.782,6.12013e-16,1075,249)"><stop offset="0" style="stop-color:rgb(235,43,109);stop-opacity:1"/><stop offset="1" style="stop-color:rgb(255,76,138);stop-opacity:1"/></linearGradient>
        <linearGradient id="_Linear3" x1="0" y1="0" x2="1" y2="0" gradientUnits="userSpaceOnUse" gradientTransform="matrix(9.72261e-15,9.99493,-158.782,6.12013e-16,1075,249)"><stop offset="0" style="stop-color:rgb(235,43,109);stop-opacity:1"/><stop offset="1" style="stop-color:rgb(255,76,138);stop-opacity:1"/></linearGradient>
        <linearGradient id="_Linear4" x1="0" y1="0" x2="1" y2="0" gradientUnits="userSpaceOnUse" gradientTransform="matrix(9.72261e-15,9.99493,-158.782,6.12013e-16,1075,249)"><stop offset="0" style="stop-color:rgb(235,43,109);stop-opacity:1"/><stop offset="1" style="stop-color:rgb(255,76,138);stop-opacity:1"/></linearGradient>
        <linearGradient id="_Linear5" x1="0" y1="0" x2="1" y2="0" gradientUnits="userSpaceOnUse" gradientTransform="matrix(9.72261e-15,9.99493,-158.782,6.12013e-16,1075,249)"><stop offset="0" style="stop-color:rgb(235,43,109);stop-opacity:1"/><stop offset="1" style="stop-color:rgb(255,76,138);stop-opacity:1"/></linearGradient>
    </defs>
</svg>
