<?xml version="1.0" encoding="UTF-8" standalone="no"?>
<!DOCTYPE svg PUBLIC "-//W3C//DTD SVG 1.1//EN" "http://www.w3.org/Graphics/SVG/1.1/DTD/svg11.dtd">
<svg width="100%" height="100%" viewBox="0 0 100 100" version="1.1" xmlns="http://www.w3.org/2000/svg" xmlns:xlink="http://www.w3.org/1999/xlink" xml:space="preserve" xmlns:serif="http://www.serif.com/" style="fill-rule:evenodd;clip-rule:evenodd;stroke-linejoin:round;stroke-miterlimit:2;">
    <g id="Background-Forest" serif:id="Background Forest" transform="matrix(0.169168,0,0,0.169106,-11.3683,3.64141)">
        <g id="Steam-Button" serif:id="Steam Button">
            <g id="Background-Forest1" serif:id="Background Forest">
                <g id="Layer-1" serif:id="Layer 1" transform="matrix(1.01697,0,0,1.22606,-7.80764,-48.6039)">
                    <rect x="0" y="0" width="920" height="430" style="fill:rgb(168,225,72);"/>
                    <g transform="matrix(1.60764,0,0,1.01535,-949.944,84.859)">
                        <path d="M710.247,440.98C696.907,478.767 667.767,505 634,505C587.639,505 550,455.55 550,394.641L550,205.359C550,144.45 587.639,95 634,95C658.716,95 680.953,109.054 696.33,131.407C703.646,110.682 715.716,93.432 730.696,82.08L721.327,82.08L728.87,62.268L724.328,62.268L736.419,30.509L748.51,62.268L743.969,62.268L747.781,72.282C755.62,69.1 763.947,67.387 772.577,67.387C810.01,67.387 841.757,99.625 852.596,144.104C861.624,139.344 871.48,136.725 881.797,136.725C883.557,136.725 885.304,136.801 887.036,136.952L887.036,124.757L877.172,124.757L884.714,104.945L880.173,104.945L892.264,73.186L904.355,104.945L899.814,104.945L907.357,124.757L895.982,124.757L895.982,138.407C903.073,140.109 909.832,143.064 916.122,147.091C917.149,118.616 926.979,93.147 942.112,75.283L942.112,61.646L935.527,61.646L940.562,48.42L937.531,48.42L945.602,27.219L953.674,48.42L950.642,48.42L955.677,61.646L948.084,61.646L948.084,68.896C961.103,56.307 977.18,48.865 994.57,48.865C1037.92,48.865 1073.11,95.099 1073.11,152.047L1073.11,329.019C1073.11,385.967 1037.92,432.201 994.57,432.201C982.265,432.201 970.617,428.475 960.244,421.836C958.273,476.486 923.878,520.061 881.797,520.061C851.498,520.061 825.184,497.472 812.088,464.423C800.308,472.696 786.856,477.387 772.577,477.387C747.861,477.387 725.624,463.332 710.247,440.98Z" style="fill:rgb(141,210,27);"/>
                    </g>
                    <g transform="matrix(8.93682,0,0,7.73511,-147.353,88.0685)">
                        <path d="M83.953,23L83,23L85.127,18.746L87.254,23L86.3,23L87.254,24.907L85.936,24.907L85.936,28.258L84.317,28.258L84.317,24.907L83,24.907L83.953,23Z" style="fill:rgb(111,187,0);"/>
                    </g>
                    <g transform="matrix(7.17917,0,0,6.21381,-456.229,116.588)">
                        <path d="M83.953,23L83,23L85.127,18.746L87.254,23L86.3,23L87.254,24.907L85.936,24.907L85.936,28.258L84.317,28.258L84.317,24.907L83,24.907L83.953,23Z" style="fill:rgb(111,187,0);"/>
                    </g>
                    <g id="Logo" transform="matrix(5.81264,0,0,4.82313,73.7572,12.4331)">
                        <g transform="matrix(1.73913,0,0,1.73913,-46.5217,-41.3043)">
                            <circle cx="55.5" cy="52.5" r="11.5" style="fill:url(#_Linear1);"/>
                        </g>
                        <g transform="matrix(0.025,0,0,0.025,38,62)">
                            <path d="M840,-440L760,-440C748.667,-440 739.167,-443.833 731.5,-451.5C723.833,-459.167 720,-468.667 720,-480C720,-491.333 723.833,-500.833 731.5,-508.5C739.167,-516.167 748.667,-520 760,-520L840,-520C851.333,-520 860.833,-516.167 868.5,-508.5C876.167,-500.833 880,-491.333 880,-480C880,-468.667 876.167,-459.167 868.5,-451.5C860.833,-443.833 851.333,-440 840,-440ZM664,-288C670.667,-297.333 679.333,-302.667 690,-304C700.667,-305.333 710.667,-302.667 720,-296L784,-248C793.333,-241.333 798.667,-232.667 800,-222C801.333,-211.333 798.667,-201.333 792,-192C785.333,-182.667 776.667,-177.333 766,-176C755.333,-174.667 745.333,-177.333 736,-184L672,-232C662.667,-238.667 657.333,-247.333 656,-258C654.667,-268.667 657.333,-278.667 664,-288ZM784,-712L720,-664C710.667,-657.333 700.667,-654.667 690,-656C679.333,-657.333 670.667,-662.667 664,-672C657.333,-681.333 654.667,-691.333 656,-702C657.333,-712.667 662.667,-721.333 672,-728L736,-776C745.333,-782.667 755.333,-785.333 766,-784C776.667,-782.667 785.333,-777.333 792,-768C798.667,-758.667 801.333,-748.667 800,-738C798.667,-727.333 793.333,-718.667 784,-712ZM200,-360L160,-360C138,-360 119.167,-367.833 103.5,-383.5C87.833,-399.167 80,-418 80,-440L80,-520C80,-542 87.833,-560.833 103.5,-576.5C119.167,-592.167 138,-600 160,-600L320,-600L459,-684C472.333,-692 485.833,-692 499.5,-684C513.167,-676 520,-664.333 520,-649L520,-311C520,-295.667 513.167,-284 499.5,-276C485.833,-268 472.333,-268 459,-276L320,-360L280,-360L280,-240C280,-228.667 276.167,-219.167 268.5,-211.5C260.833,-203.833 251.333,-200 240,-200C228.667,-200 219.167,-203.833 211.5,-211.5C203.833,-219.167 200,-228.667 200,-240L200,-360ZM560,-346L560,-614C578,-598 592.5,-578.5 603.5,-555.5C614.5,-532.5 620,-507.333 620,-480C620,-452.667 614.5,-427.5 603.5,-404.5C592.5,-381.5 578,-362 560,-346Z" style="fill:white;fill-rule:nonzero;"/>
                        </g>
                    </g>
                    <g transform="matrix(1.4722,0,0,0.929808,-809.708,196.973)">
                        <g transform="matrix(3.7882,0,0,4.97694,510.409,-157.254)">
                            <path d="M40,64.5L40,105.5C40,114.607 32.607,122 23.5,122C14.393,122 7,114.607 7,105.5L7,64.5C7,55.393 14.393,48 23.5,48C32.607,48 40,55.393 40,64.5Z" style="fill:rgb(111,187,0);"/>
                        </g>
                        <g transform="matrix(4.32175,0,0,5.67792,580.468,-190.9)">
                            <path d="M40,64.5L40,105.5C40,114.607 32.607,122 23.5,122C14.393,122 7,114.607 7,105.5L7,64.5C7,55.393 14.393,48 23.5,48C32.607,48 40,55.393 40,64.5Z" style="fill:rgb(111,187,0);"/>
                        </g>
                        <g transform="matrix(4.32175,0,0,5.67792,685.847,-145.371)">
                            <path d="M40,64.5L40,105.5C40,114.607 32.607,122 23.5,122C14.393,122 7,114.607 7,105.5L7,64.5C7,55.393 14.393,48 23.5,48C32.607,48 40,55.393 40,64.5Z" style="fill:rgb(111,187,0);"/>
                        </g>
                        <g transform="matrix(4.32175,0,0,5.67792,813.498,-158.365)">
                            <path d="M40,64.5L40,105.5C40,114.607 32.607,122 23.5,122C14.393,122 7,114.607 7,105.5L7,64.5C7,55.393 14.393,48 23.5,48C32.607,48 40,55.393 40,64.5Z" style="fill:rgb(111,187,0);"/>
                        </g>
                        <g transform="matrix(4.32175,0,0,5.67792,902.05,-180.222)">
                            <path d="M40,64.5L40,105.5C40,114.607 32.607,122 23.5,122C14.393,122 7,114.607 7,105.5L7,64.5C7,55.393 14.393,48 23.5,48C32.607,48 40,55.393 40,64.5Z" style="fill:rgb(111,187,0);"/>
                        </g>
                    </g>
                    <g transform="matrix(1.32002,0,0,0.625318,-737.636,349.488)">
                        <path d="M700.436,447.871C685.065,482.617 661.013,505 634,505C587.639,505 550,439.071 550,357.866L550,242.134C550,160.929 587.639,95 634,95C636.16,95 638.302,95.143 640.422,95.424L640.422,54.482L624.988,54.482L636.789,13.156L629.684,13.156L648.601,-53.089L667.518,13.156L660.413,13.156L672.214,54.482L654.418,54.482L654.418,99.385C667.749,105.225 679.822,116.65 689.779,132.157C705.149,97.411 729.201,75.028 756.214,75.028C772.517,75.028 787.741,83.18 800.629,97.282C814.819,83.12 831.236,75.027 848.723,75.027C888.031,75.027 921.929,115.918 937.298,174.719C948.722,141.158 966.538,115.033 987.794,101.515L974.449,101.515L986.25,60.189L979.145,60.189L998.062,-6.056L1016.98,60.189L1009.87,60.189L1018.78,91.374C1019.51,91.346 1020.25,91.331 1020.99,91.331C1074.72,91.331 1118.35,167.747 1118.35,261.869L1118.35,396.01C1118.35,490.132 1074.72,566.548 1020.99,566.548C981.678,566.548 947.78,525.657 932.411,466.856C915.419,516.775 884.285,550.244 848.723,550.244C817.072,550.244 788.929,523.733 771.142,482.708C766.297,484.232 761.308,485.028 756.214,485.028C734.815,485.028 715.275,470.982 700.436,447.871Z" style="fill:rgb(78,162,0);"/>
                    </g>
                </g>
                <g id="Cloud" transform="matrix(0.928177,0,0,0.928177,-691.103,-171.385)">
                    <g transform="matrix(0.609756,0,0,1,360.908,-76.8235)">
                        <path d="M764.189,374L675.712,374C660.149,374 647.515,366.293 647.515,356.8L647.515,348.2C647.515,338.707 660.149,331 675.712,331L700,331L700,324.2C700,314.707 712.635,307 728.198,307L794.802,307C810.365,307 823,314.707 823,324.2L823,331L916.157,331C931.72,331 944.354,338.707 944.354,348.2L944.354,356.8C944.354,366.293 931.72,374 916.157,374L886.731,374C886.882,374.72 886.96,375.455 886.96,376.2L886.96,384.8C886.96,394.293 874.325,402 858.762,402L792.158,402C776.595,402 763.96,394.293 763.96,384.8L763.96,376.2C763.96,375.455 764.038,374.72 764.189,374Z" style="fill:rgb(245,255,229);"/>
                    </g>
                    <g transform="matrix(0.768072,0,0,1.57455,861.61,-302.825)">
                        <path d="M821.899,337.079C839.763,337.913 853.751,345.266 853.751,354.2L853.751,362.8C853.751,372.293 837.958,380 818.504,380L681.948,380C662.494,380 646.701,372.293 646.701,362.8L646.701,354.2C646.701,344.707 662.494,337 681.948,337L701.06,337C700.368,335.656 700,334.249 700,332.8L700,324.2C700,314.707 715.794,307 735.247,307L787.753,307C807.206,307 823,314.707 823,324.2L823,332.8C823,334.277 822.618,335.711 821.899,337.079Z" style="fill:rgb(245,255,229);"/>
                    </g>
                    <g transform="matrix(0.435003,0,0,1.09195,828.744,-183.671)">
                        <path d="M822.253,336L830.041,336C853.863,336 873.202,343.707 873.202,353.2L873.202,361.8C873.202,371.293 853.863,379 830.041,379L572.465,379C548.644,379 529.304,371.293 529.304,361.8L529.304,353.2C529.304,343.707 548.644,336 572.465,336L584.601,336C584.554,335.6 584.53,335.198 584.53,334.793L584.53,317.211C584.53,303.298 612.875,292.002 647.787,292.002L679.416,292.002C705.356,292.002 727.671,298.238 737.427,307.151C739.303,307.051 741.216,307 743.16,307L779.84,307C803.661,307 823,314.707 823,324.2L823,332.8C823,333.893 822.743,334.963 822.253,336Z" style="fill:rgb(245,255,229);"/>
                    </g>
                </g>
            </g>
        </g>
    </g>
    <defs>
        <linearGradient id="_Linear1" x1="0" y1="0" x2="1" y2="0" gradientUnits="userSpaceOnUse" gradientTransform="matrix(1.40834e-15,23,-23,1.40834e-15,55.5,41)"><stop offset="0" style="stop-color:rgb(193,18,242);stop-opacity:1"/><stop offset="1" style="stop-color:rgb(88,101,242);stop-opacity:1"/></linearGradient>
    </defs>
</svg>
