<?xml version="1.0" encoding="UTF-8" standalone="no"?>
<!DOCTYPE svg PUBLIC "-//W3C//DTD SVG 1.1//EN" "http://www.w3.org/Graphics/SVG/1.1/DTD/svg11.dtd">
<svg width="100%" height="100%" viewBox="0 0 100 100" version="1.1" xmlns="http://www.w3.org/2000/svg" xmlns:xlink="http://www.w3.org/1999/xlink" xml:space="preserve" xmlns:serif="http://www.serif.com/" style="fill-rule:evenodd;clip-rule:evenodd;stroke-linejoin:round;stroke-miterlimit:2;">
    <g id="background-pack-blank" transform="matrix(1,0,0,1,-270,-180)">
        <g transform="matrix(0.125,0,0,0.125,270,180)">
            <rect x="0" y="0" width="100" height="100" style="fill:rgb(229,229,229);"/>
        </g>
        <g transform="matrix(0.125,0,0,0.125,270,230)">
            <rect x="0" y="0" width="100" height="100" style="fill:rgb(229,229,229);"/>
        </g>
        <g transform="matrix(0.125,0,0,0.125,320,180)">
            <rect x="0" y="0" width="100" height="100" style="fill:rgb(229,229,229);"/>
        </g>
        <g transform="matrix(0.125,0,0,0.125,320,230)">
            <rect x="0" y="0" width="100" height="100" style="fill:rgb(229,229,229);"/>
        </g>
        <g transform="matrix(0.125,0,0,0.125,270,205)">
            <rect x="0" y="0" width="100" height="100" style="fill:rgb(229,229,229);"/>
        </g>
        <g transform="matrix(0.125,0,0,0.125,270,255)">
            <rect x="0" y="0" width="100" height="100" style="fill:rgb(229,229,229);"/>
        </g>
        <g transform="matrix(0.125,0,0,0.125,320,205)">
            <rect x="0" y="0" width="100" height="100" style="fill:rgb(229,229,229);"/>
        </g>
        <g transform="matrix(0.125,0,0,0.125,320,255)">
            <rect x="0" y="0" width="100" height="100" style="fill:rgb(229,229,229);"/>
        </g>
        <g transform="matrix(0.125,0,0,0.125,295,180)">
            <rect x="0" y="0" width="100" height="100" style="fill:rgb(229,229,229);"/>
        </g>
        <g transform="matrix(0.125,0,0,0.125,295,230)">
            <rect x="0" y="0" width="100" height="100" style="fill:rgb(229,229,229);"/>
        </g>
        <g transform="matrix(0.125,0,0,0.125,345,180)">
            <rect x="0" y="0" width="100" height="100" style="fill:rgb(229,229,229);"/>
        </g>
        <g transform="matrix(0.125,0,0,0.125,345,230)">
            <rect x="0" y="0" width="100" height="100" style="fill:rgb(229,229,229);"/>
        </g>
        <g transform="matrix(0.125,0,0,0.125,295,205)">
            <rect x="0" y="0" width="100" height="100" style="fill:rgb(229,229,229);"/>
        </g>
        <g transform="matrix(0.125,0,0,0.125,295,255)">
            <rect x="0" y="0" width="100" height="100" style="fill:rgb(229,229,229);"/>
        </g>
        <g transform="matrix(0.125,0,0,0.125,345,205)">
            <rect x="0" y="0" width="100" height="100" style="fill:rgb(229,229,229);"/>
        </g>
        <g transform="matrix(0.125,0,0,0.125,345,255)">
            <rect x="0" y="0" width="100" height="100" style="fill:rgb(229,229,229);"/>
        </g>
        <g transform="matrix(0.125,0,0,0.125,282.5,192.5)">
            <rect x="0" y="0" width="100" height="100" style="fill:rgb(229,229,229);"/>
        </g>
        <g transform="matrix(0.125,0,0,0.125,282.5,242.5)">
            <rect x="0" y="0" width="100" height="100" style="fill:rgb(229,229,229);"/>
        </g>
        <g transform="matrix(0.125,0,0,0.125,332.5,192.5)">
            <rect x="0" y="0" width="100" height="100" style="fill:rgb(229,229,229);"/>
        </g>
        <g transform="matrix(0.125,0,0,0.125,332.5,242.5)">
            <rect x="0" y="0" width="100" height="100" style="fill:rgb(229,229,229);"/>
        </g>
        <g transform="matrix(0.125,0,0,0.125,282.5,217.5)">
            <rect x="0" y="0" width="100" height="100" style="fill:rgb(229,229,229);"/>
        </g>
        <g transform="matrix(0.125,0,0,0.125,282.5,267.5)">
            <rect x="0" y="0" width="100" height="100" style="fill:rgb(229,229,229);"/>
        </g>
        <g transform="matrix(0.125,0,0,0.125,332.5,217.5)">
            <rect x="0" y="0" width="100" height="100" style="fill:rgb(229,229,229);"/>
        </g>
        <g transform="matrix(0.125,0,0,0.125,332.5,267.5)">
            <rect x="0" y="0" width="100" height="100" style="fill:rgb(229,229,229);"/>
        </g>
        <g transform="matrix(0.125,0,0,0.125,307.5,192.5)">
            <rect x="0" y="0" width="100" height="100" style="fill:rgb(229,229,229);"/>
        </g>
        <g transform="matrix(0.125,0,0,0.125,307.5,242.5)">
            <rect x="0" y="0" width="100" height="100" style="fill:rgb(229,229,229);"/>
        </g>
        <g transform="matrix(0.125,0,0,0.125,357.5,192.5)">
            <rect x="0" y="0" width="100" height="100" style="fill:rgb(229,229,229);"/>
        </g>
        <g transform="matrix(0.125,0,0,0.125,357.5,242.5)">
            <rect x="0" y="0" width="100" height="100" style="fill:rgb(229,229,229);"/>
        </g>
        <g transform="matrix(0.125,0,0,0.125,307.5,217.5)">
            <rect x="0" y="0" width="100" height="100" style="fill:rgb(229,229,229);"/>
        </g>
        <g transform="matrix(0.125,0,0,0.125,307.5,267.5)">
            <rect x="0" y="0" width="100" height="100" style="fill:rgb(229,229,229);"/>
        </g>
        <g transform="matrix(0.125,0,0,0.125,357.5,217.5)">
            <rect x="0" y="0" width="100" height="100" style="fill:rgb(229,229,229);"/>
        </g>
        <g transform="matrix(0.125,0,0,0.125,357.5,267.5)">
            <rect x="0" y="0" width="100" height="100" style="fill:rgb(229,229,229);"/>
        </g>
        <g transform="matrix(0.125,0,0,0.125,282.5,180)">
            <rect x="0" y="0" width="100" height="100" style="fill:white;"/>
        </g>
        <g transform="matrix(0.125,0,0,0.125,282.5,230)">
            <rect x="0" y="0" width="100" height="100" style="fill:white;"/>
        </g>
        <g transform="matrix(0.125,0,0,0.125,332.5,180)">
            <rect x="0" y="0" width="100" height="100" style="fill:white;"/>
        </g>
        <g transform="matrix(0.125,0,0,0.125,332.5,230)">
            <rect x="0" y="0" width="100" height="100" style="fill:white;"/>
        </g>
        <g transform="matrix(0.125,0,0,0.125,282.5,205)">
            <rect x="0" y="0" width="100" height="100" style="fill:white;"/>
        </g>
        <g transform="matrix(0.125,0,0,0.125,282.5,255)">
            <rect x="0" y="0" width="100" height="100" style="fill:white;"/>
        </g>
        <g transform="matrix(0.125,0,0,0.125,332.5,205)">
            <rect x="0" y="0" width="100" height="100" style="fill:white;"/>
        </g>
        <g transform="matrix(0.125,0,0,0.125,332.5,255)">
            <rect x="0" y="0" width="100" height="100" style="fill:white;"/>
        </g>
        <g transform="matrix(0.125,0,0,0.125,307.5,180)">
            <rect x="0" y="0" width="100" height="100" style="fill:white;"/>
        </g>
        <g transform="matrix(0.125,0,0,0.125,307.5,230)">
            <rect x="0" y="0" width="100" height="100" style="fill:white;"/>
        </g>
        <g transform="matrix(0.125,0,0,0.125,357.5,180)">
            <rect x="0" y="0" width="100" height="100" style="fill:white;"/>
        </g>
        <g transform="matrix(0.125,0,0,0.125,357.5,230)">
            <rect x="0" y="0" width="100" height="100" style="fill:white;"/>
        </g>
        <g transform="matrix(0.125,0,0,0.125,307.5,205)">
            <rect x="0" y="0" width="100" height="100" style="fill:white;"/>
        </g>
        <g transform="matrix(0.125,0,0,0.125,307.5,255)">
            <rect x="0" y="0" width="100" height="100" style="fill:white;"/>
        </g>
        <g transform="matrix(0.125,0,0,0.125,357.5,205)">
            <rect x="0" y="0" width="100" height="100" style="fill:white;"/>
        </g>
        <g transform="matrix(0.125,0,0,0.125,357.5,255)">
            <rect x="0" y="0" width="100" height="100" style="fill:white;"/>
        </g>
        <g transform="matrix(0.125,0,0,0.125,270,192.5)">
            <rect x="0" y="0" width="100" height="100" style="fill:white;"/>
        </g>
        <g transform="matrix(0.125,0,0,0.125,270,242.5)">
            <rect x="0" y="0" width="100" height="100" style="fill:white;"/>
        </g>
        <g transform="matrix(0.125,0,0,0.125,320,192.5)">
            <rect x="0" y="0" width="100" height="100" style="fill:white;"/>
        </g>
        <g transform="matrix(0.125,0,0,0.125,320,242.5)">
            <rect x="0" y="0" width="100" height="100" style="fill:white;"/>
        </g>
        <g transform="matrix(0.125,0,0,0.125,270,217.5)">
            <rect x="0" y="0" width="100" height="100" style="fill:white;"/>
        </g>
        <g transform="matrix(0.125,0,0,0.125,270,267.5)">
            <rect x="0" y="0" width="100" height="100" style="fill:white;"/>
        </g>
        <g transform="matrix(0.125,0,0,0.125,320,217.5)">
            <rect x="0" y="0" width="100" height="100" style="fill:white;"/>
        </g>
        <g transform="matrix(0.125,0,0,0.125,320,267.5)">
            <rect x="0" y="0" width="100" height="100" style="fill:white;"/>
        </g>
        <g transform="matrix(0.125,0,0,0.125,295,192.5)">
            <rect x="0" y="0" width="100" height="100" style="fill:white;"/>
        </g>
        <g transform="matrix(0.125,0,0,0.125,295,242.5)">
            <rect x="0" y="0" width="100" height="100" style="fill:white;"/>
        </g>
        <g transform="matrix(0.125,0,0,0.125,345,192.5)">
            <rect x="0" y="0" width="100" height="100" style="fill:white;"/>
        </g>
        <g transform="matrix(0.125,0,0,0.125,345,242.5)">
            <rect x="0" y="0" width="100" height="100" style="fill:white;"/>
        </g>
        <g transform="matrix(0.125,0,0,0.125,295,217.5)">
            <rect x="0" y="0" width="100" height="100" style="fill:white;"/>
        </g>
        <g transform="matrix(0.125,0,0,0.125,295,267.5)">
            <rect x="0" y="0" width="100" height="100" style="fill:white;"/>
        </g>
        <g transform="matrix(0.125,0,0,0.125,345,217.5)">
            <rect x="0" y="0" width="100" height="100" style="fill:white;"/>
        </g>
        <g transform="matrix(0.125,0,0,0.125,345,267.5)">
            <rect x="0" y="0" width="100" height="100" style="fill:white;"/>
        </g>
    </g>
</svg>
