<?xml version="1.0" encoding="UTF-8" standalone="no"?>
<!DOCTYPE svg PUBLIC "-//W3C//DTD SVG 1.1//EN" "http://www.w3.org/Graphics/SVG/1.1/DTD/svg11.dtd">
<svg width="100%" height="100%" viewBox="0 0 100 100" version="1.1" xmlns="http://www.w3.org/2000/svg" xmlns:xlink="http://www.w3.org/1999/xlink" xml:space="preserve" xmlns:serif="http://www.serif.com/" style="fill-rule:evenodd;clip-rule:evenodd;stroke-linejoin:round;stroke-miterlimit:2;">
    <g id="background-pack-easy-peasy" transform="matrix(1,0,0,1,-270,-180)">
        <g>
            <clipPath id="_clip1">
                <rect x="270" y="180" width="100" height="100"/>
            </clipPath>
            <g clip-path="url(#_clip1)">
                <g id="Background" transform="matrix(0.412391,0,0,0.682116,192.277,102.697)">
                    <rect x="188.469" y="113.328" width="242.489" height="146.603" style="fill:rgb(76,169,255);"/>
                </g>
                <g transform="matrix(1.14465,-1.14465,1.14465,1.14465,-1111.25,1066.68)">
                    <rect x="933" y="237" width="56" height="56" style="fill:url(#_Linear2);"/>
                </g>
                <g transform="matrix(0.870937,-0.870937,0.870937,0.870937,-716.662,875.172)">
                    <rect x="933" y="237" width="56" height="56" style="fill:url(#_Linear3);"/>
                </g>
                <g transform="matrix(0.64204,-0.64204,0.64204,0.64204,-448.852,726.86)">
                    <rect x="933" y="237" width="56" height="56" style="fill:url(#_Linear4);"/>
                </g>
                <g transform="matrix(1.34765,0,0,0.881713,-1150.88,43.6809)">
                    <path d="M1100,252.402L1100,258.598C1100,260.475 1099,262 1097.77,262L1052.23,262C1051,262 1050,260.475 1050,258.598L1050,252.402C1050,250.525 1051,249 1052.23,249L1097.77,249C1099,249 1100,250.525 1100,252.402Z" style="fill:rgb(148,217,255);"/>
                </g>
                <g transform="matrix(0.41485,0,0,0.881713,-110.228,53.2947)">
                    <path d="M1100,252.402L1100,258.598C1100,260.475 1096.76,262 1092.77,262L1057.23,262C1053.24,262 1050,260.475 1050,258.598L1050,252.402C1050,250.525 1053.24,249 1057.23,249L1092.77,249C1096.76,249 1100,250.525 1100,252.402Z" style="fill:rgb(148,217,255);"/>
                </g>
                <g transform="matrix(0.41485,0,0,0.881713,-80.9555,43.6809)">
                    <path d="M1100,252.402L1100,258.598C1100,260.475 1096.76,262 1092.77,262L1057.23,262C1053.24,262 1050,260.475 1050,258.598L1050,252.402C1050,250.525 1053.24,249 1057.23,249L1092.77,249C1096.76,249 1100,250.525 1100,252.402Z" style="fill:rgb(148,217,255);"/>
                </g>
                <g transform="matrix(0.230731,0,0,2.65094,77.732,-396.858)">
                    <path d="M1100,250.132L1100,260.868C1100,261.493 1094.17,262 1087,262L1063,262C1055.83,262 1050,261.493 1050,260.868L1050,250.132C1050,249.507 1055.83,249 1063,249L1087,249C1094.17,249 1100,249.507 1100,250.132Z" style="fill:rgb(148,217,255);"/>
                </g>
                <g transform="matrix(1.34765,0,0,0.266328,-1150.88,196.912)">
                    <path d="M1100,255.5C1100,259.087 1099.42,262 1098.71,262L1051.29,262C1050.58,262 1050,259.087 1050,255.5C1050,251.913 1050.58,249 1051.29,249L1098.71,249C1099.42,249 1100,251.913 1100,255.5Z" style="fill:rgb(216,241,255);"/>
                </g>
                <g transform="matrix(0.253514,0,0,1,10.6404,3.18844)">
                    <path d="M1100,252L1100,259C1100,260.656 1094.7,262 1088.17,262L1061.83,262C1055.3,262 1050,260.656 1050,259L1050,252C1050,250.344 1055.3,249 1061.83,249L1088.17,249C1094.7,249 1100,250.344 1100,252Z" style="fill:rgb(255,203,76);"/>
                </g>
                <g transform="matrix(0.253514,0,0,0.307692,10.6404,175.573)">
                    <path d="M1100,255.5C1100,259.087 1096.46,262 1092.11,262L1057.89,262C1053.54,262 1050,259.087 1050,255.5C1050,251.913 1053.54,249 1057.89,249L1092.11,249C1096.46,249 1100,251.913 1100,255.5Z" style="fill:rgb(255,143,65);"/>
                </g>
                <g transform="matrix(0.41485,0,0,0.266328,-110.228,206.525)">
                    <path d="M1100,255.5C1100,259.087 1098.13,262 1095.83,262L1054.17,262C1051.87,262 1050,259.087 1050,255.5C1050,251.913 1051.87,249 1054.17,249L1095.83,249C1098.13,249 1100,251.913 1100,255.5Z" style="fill:rgb(216,241,255);"/>
                </g>
                <g transform="matrix(0.49485,0,0,0.650944,-247.551,37.9233)">
                    <path d="M1100,255.5C1100,259.087 1096.17,262 1091.45,262L1058.55,262C1053.83,262 1050,259.087 1050,255.5C1050,251.913 1053.83,249 1058.55,249L1091.45,249C1096.17,249 1100,251.913 1100,255.5Z" style="fill:white;"/>
                </g>
                <g transform="matrix(0.49485,0,0,0.650944,-178.529,27.3298)">
                    <path d="M1100,255.5C1100,259.087 1096.17,262 1091.45,262L1058.55,262C1053.83,262 1050,259.087 1050,255.5C1050,251.913 1053.83,249 1058.55,249L1091.45,249C1096.17,249 1100,251.913 1100,255.5Z" style="fill:white;"/>
                </g>
                <g transform="matrix(0.166743,0,0,0.650944,101.995,32.3298)">
                    <path d="M1100,255.404L1100,255.596C1100,259.131 1088.8,262 1075,262C1061.2,262 1050,259.131 1050,255.596L1050,255.404C1050,251.869 1061.2,249 1075,249C1088.8,249 1100,251.869 1100,255.404Z" style="fill:white;"/>
                </g>
                <g transform="matrix(0.166743,0,0,0.650944,171.018,21.7364)">
                    <path d="M1100,255.404L1100,255.596C1100,259.131 1088.8,262 1075,262C1061.2,262 1050,259.131 1050,255.596L1050,255.404C1050,251.869 1061.2,249 1075,249C1088.8,249 1100,251.869 1100,255.404Z" style="fill:white;"/>
                </g>
                <g transform="matrix(0.166743,0,0,0.650944,109.021,32.3298)">
                    <path d="M1100,255.404L1100,255.596C1100,259.131 1088.8,262 1075,262C1061.2,262 1050,259.131 1050,255.596L1050,255.404C1050,251.869 1061.2,249 1075,249C1088.8,249 1100,251.869 1100,255.404Z" style="fill:white;"/>
                </g>
                <g transform="matrix(0.166743,0,0,0.650944,178.044,21.7364)">
                    <path d="M1100,255.404L1100,255.596C1100,259.131 1088.8,262 1075,262C1061.2,262 1050,259.131 1050,255.596L1050,255.404C1050,251.869 1061.2,249 1075,249C1088.8,249 1100,251.869 1100,255.404Z" style="fill:white;"/>
                </g>
                <g transform="matrix(0.41485,0,0,0.266328,-80.9555,196.912)">
                    <path d="M1100,255.5C1100,259.087 1098.13,262 1095.83,262L1054.17,262C1051.87,262 1050,259.087 1050,255.5C1050,251.913 1051.87,249 1054.17,249L1095.83,249C1098.13,249 1100,251.913 1100,255.5Z" style="fill:rgb(216,241,255);"/>
                </g>
            </g>
        </g>
    </g>
    <defs>
        <linearGradient id="_Linear2" x1="0" y1="0" x2="1" y2="0" gradientUnits="userSpaceOnUse" gradientTransform="matrix(-28,28,-28,-28,989,237)"><stop offset="0" style="stop-color:rgb(76,125,255);stop-opacity:1"/><stop offset="1" style="stop-color:rgb(76,169,255);stop-opacity:1"/></linearGradient>
        <linearGradient id="_Linear3" x1="0" y1="0" x2="1" y2="0" gradientUnits="userSpaceOnUse" gradientTransform="matrix(-28,28,-28,-28,989,237)"><stop offset="0" style="stop-color:rgb(76,125,255);stop-opacity:1"/><stop offset="1" style="stop-color:rgb(76,169,255);stop-opacity:1"/></linearGradient>
        <linearGradient id="_Linear4" x1="0" y1="0" x2="1" y2="0" gradientUnits="userSpaceOnUse" gradientTransform="matrix(-28,28,-28,-28,989,237)"><stop offset="0" style="stop-color:rgb(76,125,255);stop-opacity:1"/><stop offset="1" style="stop-color:rgb(76,169,255);stop-opacity:1"/></linearGradient>
    </defs>
</svg>
