<?xml version="1.0" encoding="UTF-8" standalone="no"?>
<!DOCTYPE svg PUBLIC "-//W3C//DTD SVG 1.1//EN" "http://www.w3.org/Graphics/SVG/1.1/DTD/svg11.dtd">
<svg width="100%" height="100%" viewBox="0 0 100 100" version="1.1" xmlns="http://www.w3.org/2000/svg" xmlns:xlink="http://www.w3.org/1999/xlink" xml:space="preserve" xmlns:serif="http://www.serif.com/" style="fill-rule:evenodd;clip-rule:evenodd;stroke-linejoin:round;stroke-miterlimit:2;">
    <g id="background-pack-zacks-levels" transform="matrix(1,0,0,1,-270,-180)">
        <g>
            <clipPath id="_clip1">
                <rect x="270" y="180" width="100" height="100"/>
            </clipPath>
            <g clip-path="url(#_clip1)">
                <g id="Background" transform="matrix(0.412391,0,0,0.682116,192.277,102.697)">
                    <rect x="188.469" y="113.328" width="242.489" height="146.603" style="fill:rgb(173,232,74);"/>
                </g>
                <g transform="matrix(4.00504e-17,-1.47185,0.749661,-3.86456e-17,116.016,1653.23)">
                    <path d="M989,265C989,280.454 982.61,293 974.739,293L933,293L933,237L974.739,237C982.61,237 989,249.546 989,265Z" style="fill:url(#_Linear2);"/>
                </g>
                <g transform="matrix(3.77489e-17,-1.42933,0.749661,-3.57807e-17,153.532,1613.57)">
                    <path d="M989,265C989,280.454 982.42,293 974.314,293L933,293L933,237L974.314,237C982.42,237 989,249.546 989,265Z" style="fill:url(#_Linear3);"/>
                </g>
                <g transform="matrix(3.16362e-17,-1.32467,0.749661,-2.93515e-17,85.4518,1515.92)">
                    <path d="M989,265C989,280.454 981.9,293 973.154,293L933,293L933,237L973.154,237C981.9,237 989,249.546 989,265Z" style="fill:url(#_Linear4);"/>
                </g>
                <g transform="matrix(1.72113e-18,-0.777769,0.749661,-1.72114e-18,112.689,1005.66)">
                    <path d="M989,265C989,280.454 976.907,293 962.012,293L933,293L933,237L962.012,237C976.907,237 989,249.546 989,265Z" style="fill:url(#_Linear5);"/>
                </g>
                <g transform="matrix(-0.273766,0,-5.21779e-17,0.881713,630.174,43.0322)">
                    <path d="M1100,252.402L1100,258.598C1100,260.475 1095.09,262 1089.04,262L1060.96,262C1054.91,262 1050,260.475 1050,258.598L1050,252.402C1050,250.525 1054.91,249 1060.96,249L1089.04,249C1095.09,249 1100,250.525 1100,252.402Z" style="fill:rgb(85,3,168);"/>
                </g>
                <g transform="matrix(-0.353766,0,-6.74253e-17,0.881713,745.125,24.574)">
                    <path d="M1100,252.402L1100,258.598C1100,260.475 1096.2,262 1091.52,262L1058.48,262C1053.8,262 1050,260.475 1050,258.598L1050,252.402C1050,250.525 1053.8,249 1058.48,249L1091.52,249C1096.2,249 1100,250.525 1100,252.402Z" style="fill:rgb(85,3,168);"/>
                </g>
                <g transform="matrix(0.427614,0.246883,-0.440857,0.763586,-70.3657,-207.04)">
                    <path d="M1100,252.402L1100,258.598C1100,260.475 1097.28,262 1093.92,262L1056.08,262C1052.72,262 1050,260.475 1050,258.598L1050,252.402C1050,250.525 1052.72,249 1056.08,249L1093.92,249C1097.28,249 1100,250.525 1100,252.402Z" style="fill:rgb(85,3,168);"/>
                </g>
                <g transform="matrix(-0.427614,0.246883,0.440857,0.763586,670.464,-187.415)">
                    <path d="M1100,252.402L1100,258.598C1100,260.475 1097.28,262 1093.92,262L1056.08,262C1052.72,262 1050,260.475 1050,258.598L1050,252.402C1050,250.525 1052.72,249 1056.08,249L1093.92,249C1097.28,249 1100,250.525 1100,252.402Z" style="fill:rgb(85,3,168);"/>
                </g>
                <g transform="matrix(-0.273766,0,-1.73926e-17,0.266328,630.174,196.263)">
                    <path d="M1100,255.5C1100,259.087 1097.17,262 1093.68,262L1056.32,262C1052.83,262 1050,259.087 1050,255.5C1050,251.913 1052.83,249 1056.32,249L1093.68,249C1097.17,249 1100,251.913 1100,255.5Z" style="fill:rgb(165,3,168);"/>
                </g>
                <g transform="matrix(-0.353766,0,-2.24751e-17,0.266328,745.125,177.805)">
                    <path d="M1100,255.5C1100,259.087 1097.81,262 1095.11,262L1054.89,262C1052.19,262 1050,259.087 1050,255.5C1050,251.913 1052.19,249 1054.89,249L1095.11,249C1097.81,249 1100,251.913 1100,255.5Z" style="fill:rgb(165,3,168);"/>
                </g>
                <g transform="matrix(0.427614,0.246883,-0.133164,0.230647,-146.981,-74.3383)">
                    <path d="M1100,255.5C1100,259.087 1098.43,262 1096.49,262L1053.51,262C1051.57,262 1050,259.087 1050,255.5C1050,251.913 1051.57,249 1053.51,249L1096.49,249C1098.43,249 1100,251.913 1100,255.5Z" style="fill:rgb(165,3,168);"/>
                </g>
                <g transform="matrix(-0.427614,0.246883,0.133164,0.230647,747.08,-54.7133)">
                    <path d="M1100,255.5C1100,259.087 1098.43,262 1096.49,262L1053.51,262C1051.57,262 1050,259.087 1050,255.5C1050,251.913 1051.57,249 1053.51,249L1096.49,249C1098.43,249 1100,251.913 1100,255.5Z" style="fill:rgb(165,3,168);"/>
                </g>
                <g transform="matrix(0.219549,-0.126757,0.5,0.866025,-45.4703,179.487)">
                    <path d="M1100,252L1100,259C1100,260.656 1094.7,262 1088.17,262L1061.83,262C1055.3,262 1050,260.656 1050,259L1050,252C1050,250.344 1055.3,249 1061.83,249L1088.17,249C1094.7,249 1100,250.344 1100,252Z" style="fill:rgb(255,203,76);"/>
                </g>
                <g transform="matrix(0.219549,-0.126757,0.153846,0.266469,40.722,328.777)">
                    <path d="M1100,255.5C1100,259.087 1096.46,262 1092.11,262L1057.89,262C1053.54,262 1050,259.087 1050,255.5C1050,251.913 1053.54,249 1057.89,249L1092.11,249C1096.46,249 1100,251.913 1100,255.5Z" style="fill:rgb(255,143,65);"/>
                </g>
                <g transform="matrix(0.49485,0,0,0.650944,-245.167,29.4101)">
                    <path d="M1100,255.5C1100,259.087 1096.17,262 1091.45,262L1058.55,262C1053.83,262 1050,259.087 1050,255.5C1050,251.913 1053.83,249 1058.55,249L1091.45,249C1096.17,249 1100,251.913 1100,255.5Z" style="fill:white;"/>
                </g>
                <g transform="matrix(0.49485,0,0,0.650944,-236.428,23.875)">
                    <path d="M1100,255.5C1100,259.087 1096.17,262 1091.45,262L1058.55,262C1053.83,262 1050,259.087 1050,255.5C1050,251.913 1053.83,249 1058.55,249L1091.45,249C1096.17,249 1100,251.913 1100,255.5Z" style="fill:white;"/>
                </g>
                <g transform="matrix(0.49485,0,0,0.650944,-187.253,20.7721)">
                    <path d="M1100,255.5C1100,259.087 1096.17,262 1091.45,262L1058.55,262C1053.83,262 1050,259.087 1050,255.5C1050,251.913 1053.83,249 1058.55,249L1091.45,249C1096.17,249 1100,251.913 1100,255.5Z" style="fill:white;"/>
                </g>
                <g transform="matrix(0.27485,0,0,0.650944,51.5475,25.8387)">
                    <path d="M1100,255.5C1100,259.087 1093.1,262 1084.61,262L1065.39,262C1056.9,262 1050,259.087 1050,255.5C1050,251.913 1056.9,249 1065.39,249L1084.61,249C1093.1,249 1100,251.913 1100,255.5Z" style="fill:white;"/>
                </g>
            </g>
        </g>
    </g>
    <defs>
        <linearGradient id="_Linear2" x1="0" y1="0" x2="1" y2="0" gradientUnits="userSpaceOnUse" gradientTransform="matrix(-56,-3.11548e-12,3.11548e-12,-56,989,265)"><stop offset="0" style="stop-color:rgb(80,167,0);stop-opacity:1"/><stop offset="1" style="stop-color:rgb(145,216,28);stop-opacity:1"/></linearGradient>
        <linearGradient id="_Linear3" x1="0" y1="0" x2="1" y2="0" gradientUnits="userSpaceOnUse" gradientTransform="matrix(-56,-3.11548e-12,3.11548e-12,-56,989,265)"><stop offset="0" style="stop-color:rgb(80,167,0);stop-opacity:1"/><stop offset="1" style="stop-color:rgb(145,216,28);stop-opacity:1"/></linearGradient>
        <linearGradient id="_Linear4" x1="0" y1="0" x2="1" y2="0" gradientUnits="userSpaceOnUse" gradientTransform="matrix(-56,-3.11548e-12,3.11548e-12,-56,989,265)"><stop offset="0" style="stop-color:rgb(80,167,0);stop-opacity:1"/><stop offset="1" style="stop-color:rgb(145,216,28);stop-opacity:1"/></linearGradient>
        <linearGradient id="_Linear5" x1="0" y1="0" x2="1" y2="0" gradientUnits="userSpaceOnUse" gradientTransform="matrix(-56,-3.11548e-12,3.11548e-12,-56,989,265)"><stop offset="0" style="stop-color:rgb(80,167,0);stop-opacity:1"/><stop offset="1" style="stop-color:rgb(145,216,28);stop-opacity:1"/></linearGradient>
    </defs>
</svg>
