<?xml version="1.0" encoding="UTF-8" standalone="no"?>
<!DOCTYPE svg PUBLIC "-//W3C//DTD SVG 1.1//EN" "http://www.w3.org/Graphics/SVG/1.1/DTD/svg11.dtd">
<svg width="100%" height="100%" viewBox="0 0 100 100" version="1.1" xmlns="http://www.w3.org/2000/svg" xmlns:xlink="http://www.w3.org/1999/xlink" xml:space="preserve" xmlns:serif="http://www.serif.com/" style="fill-rule:evenodd;clip-rule:evenodd;stroke-linejoin:round;stroke-miterlimit:2;">
    <g id="background-play" transform="matrix(1,0,0,1,-378,-180)">
        <g>
            <g>
                <g>
                    <clipPath id="_clip1">
                        <rect x="378" y="180" width="100" height="100"/>
                    </clipPath>
                    <g clip-path="url(#_clip1)">
                        <g id="Background" transform="matrix(0.412391,0,0,0.682116,300.277,102.697)">
                            <rect x="188.469" y="113.328" width="242.489" height="146.603" style="fill:rgb(255,76,138);"/>
                        </g>
                        <g transform="matrix(0.46,0,0,7.30769,-92.8378,-1604.66)">
                            <path d="M1100,253.721L1100,260.426C1100,261.295 1088.8,262 1075,262C1061.2,262 1050,261.295 1050,260.426L1050,253.721C1050,252.852 1061.2,252.147 1075,252.147C1088.8,252.147 1100,252.852 1100,253.721Z" style="fill:url(#_Linear2);"/>
                        </g>
                        <g transform="matrix(0.28,0,0,4.46154,87.629,-878.382)">
                            <path d="M1100,250.569L1100,260.431C1100,261.297 1088.8,262 1075,262C1061.2,262 1050,261.297 1050,260.431L1050,250.569C1050,249.703 1061.2,249 1075,249C1088.8,249 1100,249.703 1100,250.569Z" style="fill:url(#_Linear3);"/>
                        </g>
                        <g transform="matrix(0.46,0,0,5.61538,-33.1183,-1176.82)">
                            <path d="M1100,251.048L1100,259.952C1100,261.082 1088.8,262 1075,262C1061.2,262 1050,261.082 1050,259.952L1050,251.048C1050,249.918 1061.2,249 1075,249C1088.8,249 1100,249.918 1100,251.048Z" style="fill:url(#_Linear4);"/>
                        </g>
                        <g transform="matrix(0.46,0,0,4.07451,-49.8534,-773.108)">
                            <path d="M1100,251.822L1100,259.178C1100,260.735 1088.8,262 1075,262C1061.2,262 1050,260.735 1050,259.178L1050,251.822C1050,250.265 1061.2,249 1075,249C1088.8,249 1100,250.265 1100,251.822Z" style="fill:url(#_Linear5);"/>
                        </g>
                        <g transform="matrix(0.680899,0,0,0.680899,-303.011,63.1085)">
                            <path d="M1131.94,192.888C1132.09,192.527 1132.44,192.291 1132.83,192.291C1133.23,192.291 1133.58,192.527 1133.73,192.888L1135.6,197.356L1140.07,199.228C1140.43,199.379 1140.67,199.733 1140.67,200.126C1140.67,200.518 1140.43,200.872 1140.07,201.024L1135.6,202.896L1133.73,207.363C1133.58,207.725 1133.23,207.96 1132.83,207.96C1132.44,207.96 1132.09,207.725 1131.94,207.363L1130.07,202.896L1125.6,201.024C1125.24,200.872 1125,200.518 1125,200.126C1125,199.733 1125.24,199.379 1125.6,199.228L1130.07,197.356L1131.94,192.888Z" style="fill:rgb(255,125,170);"/>
                        </g>
                        <g transform="matrix(0.680899,0,0,0.680899,-367.342,55.4395)">
                            <path d="M1131.94,192.888C1132.09,192.527 1132.44,192.291 1132.83,192.291C1133.23,192.291 1133.58,192.527 1133.73,192.888L1135.6,197.356L1140.07,199.228C1140.43,199.379 1140.67,199.733 1140.67,200.126C1140.67,200.518 1140.43,200.872 1140.07,201.024L1135.6,202.896L1133.73,207.363C1133.58,207.725 1133.23,207.96 1132.83,207.96C1132.44,207.96 1132.09,207.725 1131.94,207.363L1130.07,202.896L1125.6,201.024C1125.24,200.872 1125,200.518 1125,200.126C1125,199.733 1125.24,199.379 1125.6,199.228L1130.07,197.356L1131.94,192.888Z" style="fill:rgb(255,125,170);"/>
                        </g>
                        <g transform="matrix(0.680899,0,0,0.680899,-337.945,76.7775)">
                            <path d="M1131.94,192.888C1132.09,192.527 1132.44,192.291 1132.83,192.291C1133.23,192.291 1133.58,192.527 1133.73,192.888L1135.6,197.356L1140.07,199.228C1140.43,199.379 1140.67,199.733 1140.67,200.126C1140.67,200.518 1140.43,200.872 1140.07,201.024L1135.6,202.896L1133.73,207.363C1133.58,207.725 1133.23,207.96 1132.83,207.96C1132.44,207.96 1132.09,207.725 1131.94,207.363L1130.07,202.896L1125.6,201.024C1125.24,200.872 1125,200.518 1125,200.126C1125,199.733 1125.24,199.379 1125.6,199.228L1130.07,197.356L1131.94,192.888Z" style="fill:rgb(255,125,170);"/>
                        </g>
                        <g id="Cube" transform="matrix(0.965926,-0.258819,0.258819,0.965926,-44.5606,145.647)">
                            <g transform="matrix(0.874755,0.50504,-0.53703,0.930163,403.127,159.004)">
                                <path d="M44.381,34.862L44.381,44.173C44.381,45.2 43.494,46.035 42.401,46.035L-15.02,46.035C-16.113,46.035 -17,45.2 -17,44.173L-17,34.862C-17,33.834 -16.113,33 -15.02,33L42.401,33C43.494,33 44.381,33.834 44.381,34.862Z" style="fill:rgb(255,214,135);"/>
                            </g>
                            <g transform="matrix(0.874755,0.50504,-0.153437,0.265761,390.468,180.929)">
                                <path d="M44.381,39.517C44.381,43.114 43.494,46.035 42.401,46.035L-15.02,46.035C-16.113,46.035 -17,43.114 -17,39.517C-17,35.92 -16.113,33 -15.02,33L42.401,33C43.494,33 44.381,35.92 44.381,39.517Z" style="fill:rgb(255,194,76);"/>
                            </g>
                        </g>
                        <g id="Cube1" serif:id="Cube" transform="matrix(0.965926,-0.258819,0.258819,0.965926,40.4409,122.871)">
                            <g transform="matrix(0.874755,0.50504,-0.53703,0.930163,391.337,203.004)">
                                <path d="M44.381,34.862L44.381,44.173C44.381,45.2 43.494,46.035 42.401,46.035L-15.02,46.035C-16.113,46.035 -17,45.2 -17,44.173L-17,34.862C-17,33.834 -16.113,33 -15.02,33L42.401,33C43.494,33 44.381,33.834 44.381,34.862Z" style="fill:rgb(255,214,135);"/>
                            </g>
                            <g transform="matrix(0.874755,0.50504,-0.153437,0.265761,378.679,224.929)">
                                <path d="M44.381,39.517C44.381,43.114 43.494,46.035 42.401,46.035L-15.02,46.035C-16.113,46.035 -17,43.114 -17,39.517C-17,35.92 -16.113,33 -15.02,33L42.401,33C43.494,33 44.381,35.92 44.381,39.517Z" style="fill:rgb(255,194,76);"/>
                            </g>
                        </g>
                        <g id="Player" transform="matrix(0.00104885,0.000281037,-0.000281037,0.00104885,423.596,202.474)">
                            <g transform="matrix(19.5631,-19.5631,25.4377,25.4377,-32725.2,15339.1)">
                                <path d="M512,25.6L512,486.4C512,500.529 497.084,512 478.713,512L33.287,512C14.916,512 0,500.529 0,486.4L0,25.6C0,11.471 14.916,0 33.287,0L478.713,0C497.084,0 512,11.471 512,25.6Z" style="fill:rgb(255,114,120);"/>
                            </g>
                            <g transform="matrix(22.8955,-11.9863,16.6851,31.8709,-23834.5,6136.39)">
                                <path d="M512,25.6L512,486.4C512,500.529 496.032,512 476.364,512L35.636,512C15.968,512 0,500.529 0,486.4L0,25.6C0,11.471 15.968,0 35.636,0L476.364,0C496.032,0 512,11.471 512,25.6Z" style="fill:rgb(255,139,107);"/>
                            </g>
                            <g transform="matrix(24.7545,-6.63295,9.31083,34.7485,-13551.7,570.431)">
                                <path d="M512,25.6L512,486.4C512,500.529 495.898,512 476.065,512L35.935,512C16.102,512 0,500.529 0,486.4L0,25.6C0,11.471 16.102,0 35.935,0L476.065,0C495.898,0 512,11.471 512,25.6Z" style="fill:rgb(255,165,95);"/>
                            </g>
                            <g id="Skin" transform="matrix(1.66939,1.10934e-31,3.64848e-30,1.66939,-4308.34,-4469.98)">
                                <g transform="matrix(21.5493,0,1.92771e-30,21.5493,919.578,1161.04)">
                                    <g transform="matrix(1,0,0,1,13.2515,49.4554)">
                                        <path d="M512,25.6L512,486.4C512,500.529 500.529,512 486.4,512L25.6,512C11.471,512 0,500.529 0,486.4L0,25.6C0,11.471 11.471,0 25.6,0L486.4,0C500.529,0 512,11.471 512,25.6Z" style="fill-opacity:0.25;"/>
                                    </g>
                                    <path d="M512,25.6L512,486.4C512,500.529 500.529,512 486.4,512L25.6,512C11.471,512 0,500.529 0,486.4L0,25.6C0,11.471 11.471,0 25.6,0L486.4,0C500.529,0 512,11.471 512,25.6Z" style="fill:rgb(255,203,76);"/>
                                </g>
                                <g transform="matrix(21.5493,0,2.12493e-30,21.5493,3533.89,10566.3)">
                                    <path d="M0,-145.689C-7.369,-146.643 -13.763,-140.517 -13.053,-133.122C-5.837,-57.881 57.552,0.954 134.683,0.954C211.813,0.954 275.202,-57.881 282.419,-133.122C283.128,-140.517 276.734,-146.643 269.365,-145.689L250.389,-143.235C173.571,-133.297 95.794,-133.297 18.977,-143.235L0,-145.689Z" style="fill:rgb(101,71,27);fill-rule:nonzero;"/>
                                </g>
                                <g transform="matrix(21.5493,0,2.12493e-30,21.5493,4906.16,4732.69)">
                                    <path d="M0,50.424C8.841,53.783 17.562,45.184 14.292,36.31C5.761,13.154 -16.499,-3.359 -42.615,-3.359C-68.732,-3.359 -90.992,13.154 -99.523,36.31C-102.792,45.184 -94.072,53.783 -85.231,50.424C-57.779,39.991 -27.452,39.991 0,50.424" style="fill:rgb(101,71,27);fill-rule:nonzero;"/>
                                </g>
                                <g transform="matrix(-2.12493e-30,-21.5493,-21.5493,0,8541.19,3421.03)">
                                    <path d="M-82.975,-82.974C-37.15,-82.974 0,-45.826 0,0.001C0,45.825 -37.15,82.975 -82.975,82.975C-128.8,82.975 -165.949,45.825 -165.949,0.001C-165.949,-45.826 -128.8,-82.974 -82.975,-82.974" style="fill:rgb(244,247,249);fill-rule:nonzero;"/>
                                </g>
                                <g transform="matrix(-2.12493e-30,-21.5493,-21.5493,0,8541.19,4525.88)">
                                    <path d="M-31.704,-31.703C-14.194,-31.703 0,-17.51 0,0C0,17.51 -14.194,31.704 -31.704,31.704C-49.213,31.704 -63.407,17.51 -63.407,0C-63.407,-17.51 -49.213,-31.703 -31.704,-31.703" style="fill:rgb(41,47,51);fill-rule:nonzero;"/>
                                </g>
                                <g transform="matrix(-2.12493e-30,-21.5493,-21.5493,0,9067.22,4254.82)">
                                    <path d="M-19.872,-19.872C-8.897,-19.872 0,-10.976 0,0C0,10.976 -8.897,19.872 -19.872,19.872C-30.847,19.872 -39.744,10.976 -39.744,0C-39.744,-10.976 -30.847,-19.872 -19.872,-19.872" style="fill:rgb(244,247,249);fill-rule:nonzero;"/>
                                </g>
                                <g transform="matrix(21.5493,0,2.12493e-30,21.5493,4837.03,11048)">
                                    <path d="M0,-109.097L0,-43.625C0,-2.706 32.729,31.211 73.647,31.514C114.891,31.82 148.42,-1.521 148.42,-42.694L148.42,-109.097C148.42,-126.67 134.174,-140.917 116.601,-140.917L31.819,-140.917C14.246,-140.917 0,-126.67 0,-109.097" style="fill:rgb(232,89,110);fill-rule:nonzero;"/>
                                </g>
                                <g transform="matrix(21.5493,0,2.12493e-30,21.5493,6272.59,11067.3)">
                                    <path d="M0,-141.812L0,-7.592C0,-3.399 3.399,0 7.593,0C11.786,0 15.186,-3.399 15.186,-7.592L15.186,-141.812L0,-141.812Z" style="fill:rgb(221,47,69);fill-rule:nonzero;"/>
                                </g>
                            </g>
                        </g>
                    </g>
                </g>
            </g>
        </g>
    </g>
    <defs>
        <linearGradient id="_Linear2" x1="0" y1="0" x2="1" y2="0" gradientUnits="userSpaceOnUse" gradientTransform="matrix(6.12013e-16,9.99493,-9.99493,6.12013e-16,1075,249)"><stop offset="0" style="stop-color:rgb(235,43,109);stop-opacity:1"/><stop offset="1" style="stop-color:rgb(255,76,138);stop-opacity:1"/></linearGradient>
        <linearGradient id="_Linear3" x1="0" y1="0" x2="1" y2="0" gradientUnits="userSpaceOnUse" gradientTransform="matrix(6.12013e-16,9.99493,-9.99493,6.12013e-16,1075,249)"><stop offset="0" style="stop-color:rgb(235,43,109);stop-opacity:1"/><stop offset="1" style="stop-color:rgb(255,76,138);stop-opacity:1"/></linearGradient>
        <linearGradient id="_Linear4" x1="0" y1="0" x2="1" y2="0" gradientUnits="userSpaceOnUse" gradientTransform="matrix(6.12013e-16,9.99493,-9.99493,6.12013e-16,1075,249)"><stop offset="0" style="stop-color:rgb(235,43,109);stop-opacity:1"/><stop offset="1" style="stop-color:rgb(255,76,138);stop-opacity:1"/></linearGradient>
        <linearGradient id="_Linear5" x1="0" y1="0" x2="1" y2="0" gradientUnits="userSpaceOnUse" gradientTransform="matrix(6.12013e-16,9.99493,-9.99493,6.12013e-16,1075,249)"><stop offset="0" style="stop-color:rgb(235,43,109);stop-opacity:1"/><stop offset="1" style="stop-color:rgb(255,76,138);stop-opacity:1"/></linearGradient>
    </defs>
</svg>
