<?xml version="1.0" encoding="UTF-8" standalone="no"?>
<!DOCTYPE svg PUBLIC "-//W3C//DTD SVG 1.1//EN" "http://www.w3.org/Graphics/SVG/1.1/DTD/svg11.dtd">
<svg width="100%" height="100%" viewBox="0 0 100 100" version="1.1" xmlns="http://www.w3.org/2000/svg" xmlns:xlink="http://www.w3.org/1999/xlink" xml:space="preserve" xmlns:serif="http://www.serif.com/" style="fill-rule:evenodd;clip-rule:evenodd;stroke-linejoin:round;stroke-miterlimit:2;">
    <g id="Background" transform="matrix(0.412391,0,0,0.682116,-77.723,-77.303)">
        <g>
            <g id="Steam-Button" serif:id="Steam Button">
                <g id="Background1" serif:id="Background">
                    <g id="Background2" serif:id="Background">
                        <rect x="188.469" y="113.328" width="242.489" height="146.603" style="fill:rgb(76,169,255);"/>
                        <g transform="matrix(2.77564,-1.67809,2.77564,1.67809,-3163.3,1382.58)">
                            <rect x="933" y="237" width="56" height="56" style="fill:url(#_Linear1);"/>
                            <g transform="matrix(0.146267,0.146267,-0.192405,0.192405,874.035,29.8646)">
                                <path d="M1090.8,249L1091.45,249C1096.17,249 1100,251.913 1100,255.5C1100,259.087 1096.17,262 1091.45,262L1058.55,262C1053.83,262 1050,259.087 1050,255.5C1050,251.913 1053.83,249 1058.55,249L1060.59,249C1060.32,248.372 1060.17,247.7 1060.17,247.003L1060.17,246.811C1060.17,243.276 1063.95,240.407 1068.6,240.407C1071.58,240.407 1074.2,241.586 1075.7,243.364C1077.19,241.586 1079.82,240.407 1082.8,240.407C1087.45,240.407 1091.22,243.276 1091.22,246.811L1091.22,247.003C1091.22,247.7 1091.07,248.372 1090.8,249Z" style="fill:white;"/>
                            </g>
                        </g>
                        <g transform="matrix(2.24182,-1.35536,2.24182,1.35536,-2369.62,1160.41)">
                            <rect x="933" y="237" width="56" height="56" style="fill:url(#_Linear2);"/>
                            <g transform="matrix(0.191912,0.191912,-0.252448,0.252448,845.784,-21.1898)">
                                <path d="M1090.8,249L1091.45,249C1096.17,249 1100,251.913 1100,255.5C1100,259.087 1096.17,262 1091.45,262L1058.55,262C1053.83,262 1050,259.087 1050,255.5C1050,251.913 1053.83,249 1058.55,249L1060.59,249C1060.32,248.372 1060.17,247.7 1060.17,247.003L1060.17,246.811C1060.17,243.276 1063.95,240.407 1068.6,240.407C1071.58,240.407 1074.2,241.586 1075.7,243.364C1077.19,241.586 1079.82,240.407 1082.8,240.407C1087.45,240.407 1091.22,243.276 1091.22,246.811L1091.22,247.003C1091.22,247.7 1091.07,248.372 1090.8,249Z" style="fill:white;"/>
                            </g>
                        </g>
                        <g transform="matrix(1.55687,-0.941248,1.55687,0.941248,-1700.97,875.389)">
                            <rect x="933" y="237" width="56" height="56" style="fill:url(#_Linear3);"/>
                            <g transform="matrix(1.06953,1.62044e-16,1.6225e-16,0.986093,-29.425,75.174)">
                                <rect x="933" y="237" width="56" height="56" style="fill:url(#_Linear4);"/>
                            </g>
                            <g transform="matrix(1,0,0,1,-13.5419,38.1164)">
                                <rect x="933" y="237" width="56" height="56" style="fill:url(#_Linear5);"/>
                            </g>
                        </g>
                    </g>
                    <g id="Search" transform="matrix(1,0,0,1,0,21.9904)">
                        <g transform="matrix(44.8603,0,0,7.33015,-452.913,-257.577)">
                            <g>
                                <g transform="matrix(1,0,0,1,0,0.399999)">
                                    <path d="M19,61C19,62.104 18.758,63 18.459,63L15.541,63C15.242,63 15,62.104 15,61C15,59.896 15.242,59 15.541,59L18.459,59C18.758,59 19,59.896 19,61Z" style="fill-opacity:0.25;"/>
                                </g>
                                <path d="M19,61C19,62.104 18.758,63 18.459,63L15.541,63C15.242,63 15,62.104 15,61C15,59.896 15.242,59 15.541,59L18.459,59C18.758,59 19,59.896 19,61Z" style="fill:white;"/>
                            </g>
                        </g>
                        <g id="Steam" transform="matrix(0.914286,0,0,0.914286,26.5465,-22.4162)">
                            <g transform="matrix(1.32696,0,0,0.801733,267.278,146.867)">
                                <path d="M1.305,41.202C5.259,54.386 17.488,64 31.959,64C49.632,64 63.959,49.673 63.959,32C63.959,14.327 49.632,0 31.959,0C15.001,0 1.124,13.193 0.028,29.874C2.102,33.351 2.907,35.502 1.303,41.202L1.305,41.202Z" style="fill:url(#_Linear6);fill-rule:nonzero;"/>
                            </g>
                            <g transform="matrix(1.32696,0,0,0.801733,267.278,146.867)">
                                <path d="M30.31,23.985L30.313,24.143L22.483,35.518C21.215,35.46 19.943,35.683 18.735,36.18C18.209,36.394 17.707,36.662 17.237,36.98L0.042,29.893C0.042,29.893 -0.356,36.439 1.302,41.317L13.458,46.333C14.058,49.061 15.938,51.453 18.7,52.603C23.194,54.47 28.43,52.313 30.303,47.821C30.786,46.664 31.019,45.418 30.987,44.165L42.18,36.16L42.455,36.165C49.16,36.165 54.61,30.699 54.61,23.985C54.61,17.271 49.17,11.825 42.455,11.811C35.753,11.811 30.3,17.271 30.3,23.985L30.31,23.985ZM28.43,47.035C26.976,50.535 22.964,52.182 19.477,50.729C17.93,50.079 16.675,48.882 15.953,47.367L19.91,49.007C20.524,49.262 21.182,49.394 21.847,49.394C23.879,49.394 25.721,48.165 26.501,46.288C27.565,43.733 26.34,40.754 23.786,39.687L19.686,37.992C21.264,37.392 23.058,37.372 24.736,38.069C26.436,38.772 27.736,40.096 28.432,41.789C29.128,43.482 29.124,45.349 28.422,47.035M42.466,32.1C38.022,32.088 34.372,28.431 34.368,23.987C34.373,19.544 38.023,15.888 42.466,15.876C46.91,15.887 50.561,19.543 50.566,23.987C50.562,28.431 46.91,32.089 42.466,32.1M36.398,23.974C36.395,20.635 39.139,17.884 42.478,17.879C45.833,17.879 48.562,20.609 48.562,23.974C48.564,27.314 45.818,30.064 42.478,30.067C39.139,30.062 36.395,27.313 36.397,23.974L36.398,23.974Z" style="fill:white;fill-rule:nonzero;"/>
                            </g>
                        </g>
                        <g transform="matrix(0.041392,0,0,0.0250246,215.026,201.786)">
                            <path d="M614.334,-320C541.667,-320 480.167,-345.167 429.834,-395.5C379.501,-445.833 354.334,-507.333 354.334,-580C354.334,-652.667 379.501,-714.167 429.834,-764.5C480.167,-814.833 541.667,-840 614.334,-840C687.001,-840 748.501,-814.833 798.834,-764.5C849.167,-714.167 874.334,-652.667 874.334,-580C874.334,-550.667 869.667,-523 860.334,-497C851.001,-471 838.334,-448 822.334,-428L1046.33,-204C1053.67,-196.667 1057.33,-187.333 1057.33,-176C1057.33,-164.667 1053.67,-155.333 1046.33,-148C1039,-140.667 1029.67,-137 1018.33,-137C1007,-137 997.667,-140.667 990.334,-148L766.334,-372C746.334,-356 723.334,-343.333 697.334,-334C671.334,-324.667 643.667,-320 614.334,-320ZM614.334,-400C664.334,-400 706.834,-417.5 741.834,-452.5C776.834,-487.5 794.334,-530 794.334,-580C794.334,-630 776.834,-672.5 741.834,-707.5C706.834,-742.5 664.334,-760 614.334,-760C564.334,-760 521.834,-742.5 486.834,-707.5C451.834,-672.5 434.334,-630 434.334,-580C434.334,-530 451.834,-487.5 486.834,-452.5C521.834,-417.5 564.334,-400 614.334,-400Z" style="fill-rule:nonzero;"/>
                        </g>
                    </g>
                </g>
            </g>
        </g>
    </g>
    <defs>
        <linearGradient id="_Linear1" x1="0" y1="0" x2="1" y2="0" gradientUnits="userSpaceOnUse" gradientTransform="matrix(-31.0561,31.0561,-31.0561,-31.0561,989,237)"><stop offset="0" style="stop-color:rgb(76,125,255);stop-opacity:1"/><stop offset="1" style="stop-color:rgb(76,169,255);stop-opacity:1"/></linearGradient>
        <linearGradient id="_Linear2" x1="0" y1="0" x2="1" y2="0" gradientUnits="userSpaceOnUse" gradientTransform="matrix(-16.4532,16.4532,-16.4532,-16.4532,989,237)"><stop offset="0" style="stop-color:rgb(76,125,255);stop-opacity:1"/><stop offset="1" style="stop-color:rgb(76,169,255);stop-opacity:1"/></linearGradient>
        <linearGradient id="_Linear3" x1="0" y1="0" x2="1" y2="0" gradientUnits="userSpaceOnUse" gradientTransform="matrix(-21.9012,21.9012,-21.9012,-21.9012,989,237)"><stop offset="0" style="stop-color:rgb(76,125,255);stop-opacity:1"/><stop offset="1" style="stop-color:rgb(76,169,255);stop-opacity:1"/></linearGradient>
        <linearGradient id="_Linear4" x1="0" y1="0" x2="1" y2="-0.0635615" gradientUnits="userSpaceOnUse" gradientTransform="matrix(-14.5035,27.7762,-27.7762,-14.5035,989,237)"><stop offset="0" style="stop-color:rgb(76,125,255);stop-opacity:1"/><stop offset="1" style="stop-color:rgb(76,169,255);stop-opacity:1"/></linearGradient>
        <linearGradient id="_Linear5" x1="0" y1="0" x2="1" y2="0" gradientUnits="userSpaceOnUse" gradientTransform="matrix(-21.9012,21.9012,-21.9012,-21.9012,989,237)"><stop offset="0" style="stop-color:rgb(76,125,255);stop-opacity:1"/><stop offset="1" style="stop-color:rgb(76,169,255);stop-opacity:1"/></linearGradient>
        <linearGradient id="_Linear6" x1="0" y1="0" x2="1" y2="0" gradientUnits="userSpaceOnUse" gradientTransform="matrix(3.91887e-15,64,-64,3.91887e-15,31.9935,0)"><stop offset="0" style="stop-color:rgb(17,29,46);stop-opacity:1"/><stop offset="0.21" style="stop-color:rgb(5,24,57);stop-opacity:1"/><stop offset="0.41" style="stop-color:rgb(10,27,72);stop-opacity:1"/><stop offset="0.58" style="stop-color:rgb(19,46,98);stop-opacity:1"/><stop offset="0.74" style="stop-color:rgb(20,75,126);stop-opacity:1"/><stop offset="0.87" style="stop-color:rgb(19,100,151);stop-opacity:1"/><stop offset="1" style="stop-color:rgb(19,135,184);stop-opacity:1"/></linearGradient>
    </defs>
</svg>
