<?xml version="1.0" encoding="UTF-8" standalone="no"?>
<!DOCTYPE svg PUBLIC "-//W3C//DTD SVG 1.1//EN" "http://www.w3.org/Graphics/SVG/1.1/DTD/svg11.dtd">
<svg width="100%" height="100%" viewBox="0 0 100 100" version="1.1" xmlns="http://www.w3.org/2000/svg" xmlns:xlink="http://www.w3.org/1999/xlink" xml:space="preserve" xmlns:serif="http://www.serif.com/" style="fill-rule:evenodd;clip-rule:evenodd;stroke-linecap:round;stroke-linejoin:round;stroke-miterlimit:1.5;">
    <g id="background-level-editor" transform="matrix(1,0,0,1,-270,-180)">
        <clipPath id="_clip1">
            <rect x="270" y="180" width="100" height="100"/>
        </clipPath>
        <g clip-path="url(#_clip1)">
            <g id="Background" transform="matrix(0.412391,0,0,0.682116,192.277,102.697)">
                <rect x="188.469" y="113.328" width="242.489" height="146.603" style="fill:rgb(76,169,255);"/>
            </g>
            <g transform="matrix(0.966035,-0.966035,0.966035,0.966035,-892.261,952.361)">
                <rect x="933" y="237" width="56" height="56" style="fill:url(#_Linear2);"/>
            </g>
            <g transform="matrix(0.674509,-0.674509,0.674509,0.674509,-475.84,749.458)">
                <rect x="933" y="237" width="56" height="56" style="fill:url(#_Linear3);"/>
            </g>
            <g transform="matrix(0.424509,-0.424509,0.424509,0.424509,-224.22,575.458)">
                <rect x="933" y="237" width="56" height="56" style="fill:url(#_Linear4);"/>
            </g>
            <g transform="matrix(0.307652,0,0,0.881713,-19.2261,38.518)">
                <path d="M1100,252.402L1100,258.598C1100,260.475 1095.63,262 1090.25,262L1059.75,262C1054.37,262 1050,260.475 1050,258.598L1050,252.402C1050,250.525 1054.37,249 1059.75,249L1090.25,249C1095.63,249 1100,250.525 1100,252.402Z" style="fill:rgb(148,217,255);"/>
            </g>
            <g transform="matrix(0.307652,0,0,0.881713,-11.0282,51.9257)">
                <path d="M1100,252.402L1100,258.598C1100,260.475 1095.63,262 1090.25,262L1059.75,262C1054.37,262 1050,260.475 1050,258.598L1050,252.402C1050,250.525 1054.37,249 1059.75,249L1090.25,249C1095.63,249 1100,250.525 1100,252.402Z" style="fill:rgb(148,217,255);"/>
            </g>
            <g transform="matrix(0.307652,0,0,0.881713,-28.2025,51.9257)">
                <path d="M1100,252.402L1100,258.598C1100,260.475 1095.63,262 1090.25,262L1059.75,262C1054.37,262 1050,260.475 1050,258.598L1050,252.402C1050,250.525 1054.37,249 1059.75,249L1090.25,249C1095.63,249 1100,250.525 1100,252.402Z" style="fill:rgb(148,217,255);"/>
            </g>
            <g transform="matrix(0.307652,0,0,0.881713,5.81072,51.9257)">
                <path d="M1100,252.402L1100,258.598C1100,260.475 1095.63,262 1090.25,262L1059.75,262C1054.37,262 1050,260.475 1050,258.598L1050,252.402C1050,250.525 1054.37,249 1059.75,249L1090.25,249C1095.63,249 1100,250.525 1100,252.402Z" style="fill:rgb(148,217,255);"/>
            </g>
            <g transform="matrix(0.307652,0,0,0.881713,22.5389,51.9257)">
                <path d="M1100,252.402L1100,258.598C1100,260.475 1095.63,262 1090.25,262L1059.75,262C1054.37,262 1050,260.475 1050,258.598L1050,252.402C1050,250.525 1054.37,249 1059.75,249L1090.25,249C1095.63,249 1100,250.525 1100,252.402Z" style="fill:rgb(148,217,255);"/>
            </g>
            <g transform="matrix(0.307652,0,0,0.266328,-19.2261,191.749)">
                <path d="M1100,255.5C1100,259.087 1097.48,262 1094.37,262L1055.63,262C1052.52,262 1050,259.087 1050,255.5C1050,251.913 1052.52,249 1055.63,249L1094.37,249C1097.48,249 1100,251.913 1100,255.5Z" style="fill:rgb(216,241,255);"/>
            </g>
            <g transform="matrix(0.307652,0,0,0.266328,-11.0282,205.156)">
                <path d="M1100,255.5C1100,259.087 1097.48,262 1094.37,262L1055.63,262C1052.52,262 1050,259.087 1050,255.5C1050,251.913 1052.52,249 1055.63,249L1094.37,249C1097.48,249 1100,251.913 1100,255.5Z" style="fill:rgb(216,241,255);"/>
            </g>
            <g transform="matrix(0.307652,0,0,0.266328,-28.2025,205.156)">
                <path d="M1100,255.5C1100,259.087 1097.48,262 1094.37,262L1055.63,262C1052.52,262 1050,259.087 1050,255.5C1050,251.913 1052.52,249 1055.63,249L1094.37,249C1097.48,249 1100,251.913 1100,255.5Z" style="fill:rgb(216,241,255);"/>
            </g>
            <g transform="matrix(0.307652,0,0,0.266328,5.81072,205.156)">
                <path d="M1100,255.5C1100,259.087 1097.48,262 1094.37,262L1055.63,262C1052.52,262 1050,259.087 1050,255.5C1050,251.913 1052.52,249 1055.63,249L1094.37,249C1097.48,249 1100,251.913 1100,255.5Z" style="fill:rgb(216,241,255);"/>
            </g>
            <g transform="matrix(0.307652,0,0,0.266328,22.5389,205.156)">
                <path d="M1100,255.5C1100,259.087 1097.48,262 1094.37,262L1055.63,262C1052.52,262 1050,259.087 1050,255.5C1050,251.913 1052.52,249 1055.63,249L1094.37,249C1097.48,249 1100,251.913 1100,255.5Z" style="fill:rgb(216,241,255);"/>
            </g>
            <g id="Crane">
                <g transform="matrix(1,0,0,1,-661,-1)">
                    <path d="M939.354,222L947.242,229.888L939.164,237.967L947.256,246.059L939.369,253.947L947.345,261.923L939.413,269.855L947.522,277.964L939.324,286.162" style="fill:none;stroke:rgb(255,214,135);stroke-width:2px;"/>
                </g>
                <g transform="matrix(1,0,0,1,-583.433,-17)">
                    <path d="M848.433,220.45L865.933,201.794L939.446,213.234L939.354,222L939.332,262.652" style="fill:none;stroke:rgb(76,125,255);stroke-width:2px;"/>
                </g>
                <g transform="matrix(0.08,0,0,6.5705,192.354,-1433.06)">
                    <path d="M1100,249.304L1100,261.696C1100,261.864 1088.8,262 1075,262C1061.2,262 1050,261.864 1050,261.696L1050,249.304C1050,249.136 1061.2,249 1075,249C1088.8,249 1100,249.136 1100,249.304Z" style="fill:rgb(255,194,76);"/>
                </g>
                <g transform="matrix(0.08,0,0,6.5705,200.468,-1433.06)">
                    <path d="M1100,249.304L1100,261.696C1100,261.864 1088.8,262 1075,262C1061.2,262 1050,261.864 1050,261.696L1050,249.304C1050,249.136 1061.2,249 1075,249C1088.8,249 1100,249.136 1100,249.304Z" style="fill:rgb(255,194,76);"/>
                </g>
                <g transform="matrix(0.34,0,0,1,-83,-46)">
                    <path d="M1100,252L1100,259C1100,260.656 1096.05,262 1091.18,262L1058.82,262C1053.95,262 1050,260.656 1050,259L1050,252C1050,250.344 1053.95,249 1058.82,249L1091.18,249C1096.05,249 1100,250.344 1100,252Z" style="fill:rgb(255,214,135);"/>
                </g>
                <g transform="matrix(0.0895552,0,0,2.15385,186.228,-360.857)">
                    <path d="M1100,250.039L1100,260.961C1100,261.534 1088.8,262 1075,262C1061.2,262 1050,261.534 1050,260.961L1050,250.039C1050,249.466 1061.2,249 1075,249C1088.8,249 1100,249.466 1100,250.039Z" style="fill:rgb(255,194,76);"/>
                </g>
                <g transform="matrix(0.707107,0.707107,-0.707107,0.707107,-185.644,-643.265)">
                    <path d="M1011.56,245.559C1012.7,244.422 1014.27,243.718 1016,243.718C1019.47,243.718 1022.28,246.533 1022.28,250" style="fill:none;stroke:rgb(255,194,76);stroke-width:4px;"/>
                </g>
                <g transform="matrix(0.517179,-0.188293,0.301641,0.828511,-275.967,246.288)">
                    <path d="M1100,252.402L1100,258.598C1100,260.475 1097.56,262 1094.55,262L1055.45,262C1052.44,262 1050,260.475 1050,258.598L1050,252.402C1050,250.525 1052.44,249 1055.45,249L1094.55,249C1097.56,249 1100,250.525 1100,252.402Z" style="fill:rgb(148,217,255);"/>
                </g>
                <g transform="matrix(0.517179,-0.188293,0.0911131,0.250258,-223.545,390.273)">
                    <path d="M1100,255.5C1100,259.087 1098.59,262 1096.86,262L1053.14,262C1051.41,262 1050,259.087 1050,255.5C1050,251.913 1051.41,249 1053.14,249L1096.86,249C1098.59,249 1100,251.913 1100,255.5Z" style="fill:rgb(216,241,255);"/>
                </g>
                <g transform="matrix(0.707107,0.707107,-0.707107,0.707107,-185.644,-643.265)">
                    <path d="M1016,256.282C1012.53,256.282 1009.72,253.467 1009.72,250C1009.72,248.266 1010.42,246.696 1011.56,245.559" style="fill:none;stroke:rgb(255,194,76);stroke-width:4px;"/>
                </g>
                <g transform="matrix(2.1,0,0,0.656316,-1944.5,35.3113)">
                    <path d="M1100,253.571L1100,257.429C1100,259.952 1099.36,262 1098.57,262L1051.43,262C1050.64,262 1050,259.952 1050,257.429L1050,253.571C1050,251.048 1050.64,249 1051.43,249L1098.57,249C1099.36,249 1100,251.048 1100,253.571Z" style="fill:rgb(255,194,76);"/>
                </g>
                <g transform="matrix(2.1,0,0,0.194777,-1944.5,150.234)">
                    <path d="M1100,255.5C1100,259.087 1099.73,262 1099.4,262L1050.6,262C1050.27,262 1050,259.087 1050,255.5C1050,251.913 1050.27,249 1050.6,249L1099.4,249C1099.73,249 1100,251.913 1100,255.5Z" style="fill:rgb(255,214,135);"/>
                </g>
                <g transform="matrix(1.66667,0,0,1.66667,-1337.32,-136.266)">
                    <path d="M1013,201C1013,199.344 1014.34,198 1016,198C1017.66,198 1019,199.344 1019,201L1013,201Z" style="fill:rgb(255,194,76);"/>
                </g>
                <g transform="matrix(1.16988,0,0,1.16988,-820.089,-32.5635)">
                    <circle cx="942.343" cy="185.794" r="5.886" style="fill:rgb(255,194,76);"/>
                </g>
                <g transform="matrix(0.660232,0,0,0.660232,-339.822,62.1271)">
                    <path d="M942.343,191.681C939.094,191.681 936.457,189.043 936.457,185.794" style="fill:none;stroke:rgb(255,214,135);stroke-width:3.03px;"/>
                </g>
                <g transform="matrix(0.490347,0,0,0.490347,-106.181,107.515)">
                    <path d="M936.457,185.794C936.457,182.546 939.094,179.908 942.343,179.908" style="fill:none;stroke:rgb(255,214,135);stroke-width:4.08px;"/>
                </g>
            </g>
        </g>
    </g>
    <defs>
        <linearGradient id="_Linear2" x1="0" y1="0" x2="1" y2="0" gradientUnits="userSpaceOnUse" gradientTransform="matrix(-28,28,-28,-28,989,237)"><stop offset="0" style="stop-color:rgb(76,125,255);stop-opacity:1"/><stop offset="1" style="stop-color:rgb(76,169,255);stop-opacity:1"/></linearGradient>
        <linearGradient id="_Linear3" x1="0" y1="0" x2="1" y2="0" gradientUnits="userSpaceOnUse" gradientTransform="matrix(-28,28,-28,-28,989,237)"><stop offset="0" style="stop-color:rgb(76,125,255);stop-opacity:1"/><stop offset="1" style="stop-color:rgb(76,169,255);stop-opacity:1"/></linearGradient>
        <linearGradient id="_Linear4" x1="0" y1="0" x2="1" y2="0" gradientUnits="userSpaceOnUse" gradientTransform="matrix(-28,28,-28,-28,989,237)"><stop offset="0" style="stop-color:rgb(76,125,255);stop-opacity:1"/><stop offset="1" style="stop-color:rgb(76,169,255);stop-opacity:1"/></linearGradient>
    </defs>
</svg>
