<?xml version="1.0" encoding="UTF-8" standalone="no"?>
<!DOCTYPE svg PUBLIC "-//W3C//DTD SVG 1.1//EN" "http://www.w3.org/Graphics/SVG/1.1/DTD/svg11.dtd">
<svg width="100%" height="100%" viewBox="0 0 100 100" version="1.1" xmlns="http://www.w3.org/2000/svg" xmlns:xlink="http://www.w3.org/1999/xlink" xml:space="preserve" xmlns:serif="http://www.serif.com/" style="fill-rule:evenodd;clip-rule:evenodd;stroke-linejoin:round;stroke-miterlimit:2;">
    <g id="background-play" transform="matrix(1,0,0,1,-378,-180)">
        <g id="Background-Forest" serif:id="Background Forest" transform="matrix(0.169168,0,0,0.169106,366.632,183.641)">
            <g transform="matrix(1.01697,0,0,1.22606,-7.80764,-48.6039)">
                <g id="Layer-1" serif:id="Layer 1">
                    <rect x="0" y="0" width="920" height="430" style="fill:rgb(168,225,72);"/>
                </g>
            </g>
            <g id="Layer-2" serif:id="Layer 2" transform="matrix(1,0,0,1,0,-70.2495)">
                <g transform="matrix(1.63492,0,0,1.24488,-973.872,-13.2634)">
                    <path d="M718,205.359L718,394.641C718,455.55 680.361,505 634,505C587.639,505 550,455.55 550,394.641L550,205.359C550,144.45 587.639,95 634,95C680.361,95 718,144.45 718,205.359Z" style="fill:rgb(141,210,27);"/>
                </g>
                <g transform="matrix(1.63492,0,0,1.24488,-747.31,-47.6384)">
                    <path d="M718,205.359L718,394.641C718,455.55 680.361,505 634,505C587.639,505 550,455.55 550,394.641L550,205.359C550,144.45 587.639,95 634,95C680.361,95 718,144.45 718,205.359Z" style="fill:rgb(141,210,27);"/>
                </g>
                <g transform="matrix(1.52859,0,0,1.16392,-501.331,46.3706)">
                    <path d="M718,205.359L718,394.641C718,455.55 680.361,505 634,505C587.639,505 550,455.55 550,394.641L550,205.359C550,144.45 587.639,95 634,95C680.361,95 718,144.45 718,205.359Z" style="fill:rgb(141,210,27);"/>
                </g>
                <g transform="matrix(1.52859,0,0,1.16392,-316.956,-63.0043)">
                    <path d="M718,205.359L718,394.641C718,455.55 680.361,505 634,505C587.639,505 550,455.55 550,394.641L550,205.359C550,144.45 587.639,95 634,95C680.361,95 718,144.45 718,205.359Z" style="fill:rgb(141,210,27);"/>
                </g>
                <g id="Tree" transform="matrix(1.23375,0,0,1.23375,70.4685,-247.115)">
                    <g transform="matrix(0.801131,0,0,0.801131,9.14797,61.2627)">
                        <path d="M46,245L66,285L26,285L46,245Z" style="fill:rgb(141,210,27);"/>
                    </g>
                    <g transform="matrix(1,0,0,1,0,24.576)">
                        <path d="M46,245L66,285L26,285L46,245Z" style="fill:rgb(141,210,27);"/>
                    </g>
                    <g transform="matrix(1,0,0,0.577655,0,148.362)">
                        <rect x="39.072" y="258.94" width="11.855" height="69.246" style="fill:rgb(141,210,27);"/>
                    </g>
                </g>
                <g id="Tree1" serif:id="Tree" transform="matrix(1.77621,0,0,1.77621,431.786,-386.819)">
                    <g transform="matrix(0.801131,0,0,0.801131,9.14797,61.2627)">
                        <path d="M46,245L66,285L26,285L46,245Z" style="fill:rgb(141,210,27);"/>
                    </g>
                    <g transform="matrix(1,0,0,1,0,24.576)">
                        <path d="M46,245L66,285L26,285L46,245Z" style="fill:rgb(141,210,27);"/>
                    </g>
                    <g transform="matrix(1,0,0,0.577655,0,148.362)">
                        <rect x="39.072" y="258.94" width="11.855" height="69.246" style="fill:rgb(141,210,27);"/>
                    </g>
                </g>
            </g>
            <g id="Layer-3" serif:id="Layer 3" transform="matrix(1,0,0,1,0,69.7932)">
                <g transform="matrix(1.49718,0,0,1.14,-934.116,-54.3)">
                    <path d="M718,205.359L718,394.641C718,455.55 680.361,505 634,505C587.639,505 550,455.55 550,394.641L550,205.359C550,144.45 587.639,95 634,95C680.361,95 718,144.45 718,205.359Z" style="fill:rgb(111,187,0);"/>
                </g>
                <g transform="matrix(1.49718,0,0,1.14,-757.554,-4.30004)">
                    <path d="M718,205.359L718,394.641C718,455.55 680.361,505 634,505C587.639,505 550,455.55 550,394.641L550,205.359C550,144.45 587.639,95 634,95C680.361,95 718,144.45 718,205.359Z" style="fill:rgb(111,187,0);"/>
                </g>
                <g transform="matrix(1.49718,0,0,1.14,-563.804,-43.3625)">
                    <path d="M718,205.359L718,394.641C718,455.55 680.361,505 634,505C587.639,505 550,455.55 550,394.641L550,205.359C550,144.45 587.639,95 634,95C680.361,95 718,144.45 718,205.359Z" style="fill:rgb(111,187,0);"/>
                </g>
                <g transform="matrix(1.49718,0,0,1.23479,-340.366,-30.2953)">
                    <path d="M718,196.887L718,403.113C718,459.346 680.361,505 634,505C587.639,505 550,459.346 550,403.113L550,196.887C550,140.654 587.639,95 634,95C680.361,95 718,140.654 718,196.887Z" style="fill:rgb(111,187,0);"/>
                </g>
                <g id="Tree2" serif:id="Tree" transform="matrix(1.57858,0,0,1.57858,24.853,-413.246)">
                    <g transform="matrix(0.801131,0,0,0.801131,9.14797,61.2627)">
                        <path d="M46,245L66,285L26,285L46,245Z" style="fill:rgb(111,187,0);"/>
                    </g>
                    <g transform="matrix(1,0,0,1,0,24.576)">
                        <path d="M46,245L66,285L26,285L46,245Z" style="fill:rgb(111,187,0);"/>
                    </g>
                    <g transform="matrix(1,0,0,0.577655,0,148.362)">
                        <rect x="39.072" y="258.94" width="11.855" height="69.246" style="fill:rgb(111,187,0);"/>
                    </g>
                </g>
                <g id="Tree3" serif:id="Tree" transform="matrix(1.57858,0,0,1.57858,228.161,-387.203)">
                    <g transform="matrix(0.801131,0,0,0.801131,9.14797,61.2627)">
                        <path d="M46,245L66,285L26,285L46,245Z" style="fill:rgb(111,187,0);"/>
                    </g>
                    <g transform="matrix(1,0,0,1,0,24.576)">
                        <path d="M46,245L66,285L26,285L46,245Z" style="fill:rgb(111,187,0);"/>
                    </g>
                    <g transform="matrix(1,0,0,0.577655,0,148.362)">
                        <rect x="39.072" y="258.94" width="11.855" height="69.246" style="fill:rgb(111,187,0);"/>
                    </g>
                </g>
                <g id="Tree4" serif:id="Tree" transform="matrix(1.57858,0,0,1.57858,472.092,-378.235)">
                    <g transform="matrix(0.801131,0,0,0.801131,9.14797,61.2627)">
                        <path d="M46,245L66,285L26,285L46,245Z" style="fill:rgb(111,187,0);"/>
                    </g>
                    <g transform="matrix(1,0,0,1,0,24.576)">
                        <path d="M46,245L66,285L26,285L46,245Z" style="fill:rgb(111,187,0);"/>
                    </g>
                    <g transform="matrix(1,0,0,0.577655,0,148.362)">
                        <rect x="39.072" y="258.94" width="11.855" height="69.246" style="fill:rgb(111,187,0);"/>
                    </g>
                </g>
                <g id="Tree5" serif:id="Tree" transform="matrix(1.31054,0,0,1.31054,512.959,-322.667)">
                    <g transform="matrix(0.801131,0,0,0.801131,9.14797,61.2627)">
                        <path d="M46,245L66,285L26,285L46,245Z" style="fill:rgb(111,187,0);"/>
                    </g>
                    <g transform="matrix(1,0,0,1,0,24.576)">
                        <path d="M46,245L66,285L26,285L46,245Z" style="fill:rgb(111,187,0);"/>
                    </g>
                    <g transform="matrix(1,0,0,0.577655,0,148.362)">
                        <rect x="39.072" y="258.94" width="11.855" height="69.246" style="fill:rgb(111,187,0);"/>
                    </g>
                </g>
            </g>
            <g id="Layer-4" serif:id="Layer 4" transform="matrix(1,0,0,1,66.8588,19.9999)">
                <g transform="matrix(1.34242,0,0,0.766677,-812.997,246.978)">
                    <path d="M718,242.134L718,357.866C718,439.071 680.361,505 634,505C587.639,505 550,439.071 550,357.866L550,242.134C550,160.929 587.639,95 634,95C680.361,95 718,160.929 718,242.134Z" style="fill:rgb(78,162,0);"/>
                </g>
                <g transform="matrix(1.34242,0,0,0.766677,-648.934,231.666)">
                    <path d="M718,242.134L718,357.866C718,439.071 680.361,505 634,505C587.639,505 550,439.071 550,357.866L550,242.134C550,160.929 587.639,95 634,95C680.361,95 718,160.929 718,242.134Z" style="fill:rgb(78,162,0);"/>
                </g>
                <g transform="matrix(1.55595,0,0,0.888628,-660.127,220.08)">
                    <path d="M718,242.134L718,357.866C718,439.071 680.361,505 634,505C587.639,505 550,439.071 550,357.866L550,242.134C550,160.929 587.639,95 634,95C680.361,95 718,160.929 718,242.134Z" style="fill:rgb(78,162,0);"/>
                </g>
                <g transform="matrix(1.55595,0,0,0.888628,-428.877,232.58)">
                    <path d="M718,242.134L718,357.866C718,439.071 680.361,505 634,505C587.639,505 550,439.071 550,357.866L550,242.134C550,160.929 587.639,95 634,95C680.361,95 718,160.929 718,242.134Z" style="fill:rgb(78,162,0);"/>
                </g>
                <g id="Tree6" serif:id="Tree" transform="matrix(1.5849,0,0,1.5849,91.0421,-201.899)">
                    <g transform="matrix(0.801131,0,0,0.801131,9.14797,61.2627)">
                        <path d="M46,245L66,285L26,285L46,245Z" style="fill:rgb(78,162,0);"/>
                    </g>
                    <g transform="matrix(1,0,0,1,0,24.576)">
                        <path d="M46,245L66,285L26,285L46,245Z" style="fill:rgb(78,162,0);"/>
                    </g>
                    <g transform="matrix(1,0,0,0.68229,0,121.268)">
                        <rect x="39.072" y="258.94" width="11.855" height="69.246" style="fill:rgb(78,162,0);"/>
                    </g>
                </g>
                <g id="Tree7" serif:id="Tree" transform="matrix(1.5849,0,0,1.5849,325.343,-165.935)">
                    <g transform="matrix(0.801131,0,0,0.801131,9.14797,61.2627)">
                        <path d="M46,245L66,285L26,285L46,245Z" style="fill:rgb(78,162,0);"/>
                    </g>
                    <g transform="matrix(1,0,0,1,0,24.576)">
                        <path d="M46,245L66,285L26,285L46,245Z" style="fill:rgb(78,162,0);"/>
                    </g>
                    <g transform="matrix(1,0,0,0.68229,0,121.268)">
                        <rect x="39.072" y="258.94" width="11.855" height="69.246" style="fill:rgb(78,162,0);"/>
                    </g>
                </g>
            </g>
        </g>
        <g id="Kitty" transform="matrix(0.0581151,0.0155719,-0.0155719,0.0581151,376.338,244.791)">
            <g transform="matrix(1,0,0,1,309.49,191.15)">
                <path d="M145.024,61.304C151.789,79.888 156.68,100.54 159.633,123.224C176.206,250.561 68.032,316.925 -42.714,316.925L-43.485,316.925C-154.229,316.925 -262.404,250.561 -245.831,123.224C-242.634,98.654 -237.161,76.468 -229.496,56.711C-254.15,0.292 -258.376,-64.553 -244.115,-124.582C-186.299,-121.309 -129.924,-97.038 -87.691,-57.442C-73.671,-59.738 -58.799,-60.892 -43.099,-60.892C-26.198,-60.892 -10.255,-59.554 4.698,-56.895C46.994,-96.814 103.622,-121.294 161.704,-124.582C176.354,-62.918 171.495,3.829 145.024,61.304Z" style="fill-opacity:0.25;"/>
            </g>
            <g transform="matrix(1,0,0,1,299.125,166.589)">
                <path d="M0,-52.338C42.748,-94.948 101.443,-121.171 161.704,-124.582C177.294,-58.963 170.792,12.411 139.664,72.244" style="fill:rgb(255,203,76);fill-rule:nonzero;"/>
            </g>
            <g transform="matrix(1,0,0,1,332.083,172.887)">
                <path d="M0,-48.302C31.116,-74.427 70.771,-90.209 111.329,-92.611C126.587,-47.375 120.807,5.235 93.379,44.309" style="fill:rgb(231,104,93);fill-rule:nonzero;"/>
            </g>
            <g transform="matrix(1,0,0,1,355.708,161.227)">
                <path d="M0,-28.146C11.862,-37.761 27.208,-42.98 42.474,-42.589C43.379,-23.373 43.095,-3.989 39.116,14.834" style="fill:rgb(255,203,76);fill-rule:nonzero;"/>
            </g>
            <g transform="matrix(1,0,0,1,216.714,166.589)">
                <path d="M0,-52.338C-42.748,-94.948 -101.443,-121.171 -161.704,-124.582C-177.293,-58.963 -170.792,12.411 -139.664,72.244" style="fill:rgb(255,203,76);fill-rule:nonzero;"/>
            </g>
            <g transform="matrix(1,0,0,1,183.757,172.887)">
                <path d="M0,-48.302C-31.117,-74.427 -70.771,-90.209 -111.33,-92.611C-126.587,-47.375 -120.807,5.235 -93.379,44.309" style="fill:rgb(231,104,93);fill-rule:nonzero;"/>
            </g>
            <g transform="matrix(1,0,0,1,160.132,161.227)">
                <path d="M0,-28.146C-11.862,-37.761 -27.209,-42.98 -42.474,-42.589C-43.379,-23.373 -43.095,-3.989 -39.116,14.834" style="fill:rgb(255,203,76);fill-rule:nonzero;"/>
            </g>
            <g transform="matrix(1,0,0,1,255.64,105.697)">
                <path d="M0,377.817C-110.744,377.817 -218.919,311.453 -202.346,184.116C-186.606,63.182 -115.759,0 0.386,0C116.53,0 187.379,63.182 203.118,184.116C219.691,311.453 111.517,377.817 0.771,377.817L0,377.817Z" style="fill:rgb(255,203,76);fill-rule:nonzero;"/>
            </g>
            <g transform="matrix(0,-1,-1,0,334.777,227.583)">
                <path d="M-22.669,-22.67C-1.943,-22.67 14.858,-12.521 14.858,-0.001C14.858,12.519 -1.943,22.669 -22.669,22.669C-43.396,22.669 -60.197,12.519 -60.197,-0.001C-60.197,-12.521 -43.396,-22.67 -22.669,-22.67" style="fill:rgb(73,54,31);fill-rule:nonzero;"/>
            </g>
            <g transform="matrix(0,-1,-1,0,177.273,227.584)">
                <path d="M-22.668,-22.67C-1.942,-22.67 14.859,-12.521 14.859,-0.001C14.859,12.519 -1.942,22.668 -22.668,22.668C-43.396,22.668 -60.197,12.519 -60.197,-0.001C-60.197,-12.521 -43.396,-22.67 -22.668,-22.67" style="fill:rgb(73,54,31);fill-rule:nonzero;"/>
            </g>
            <g transform="matrix(0,1,1,0,277.709,282.45)">
                <path d="M65.051,-31.684L65.051,-11.684C83.479,-11.684 98.417,3.255 98.417,21.684C98.417,40.112 83.479,55.051 65.051,55.051C59.532,55.051 55.051,59.532 55.051,65.051C55.051,70.57 59.532,75.051 65.051,75.051C94.525,75.051 118.417,51.158 118.417,21.684C118.417,3.818 109.639,-11.998 96.16,-21.684C109.639,-31.37 118.417,-47.185 118.417,-65.05C118.417,-94.524 94.525,-118.417 65.051,-118.417C59.532,-118.417 55.051,-113.936 55.051,-108.417C55.051,-102.898 59.532,-98.417 65.051,-98.417C83.479,-98.417 98.417,-83.478 98.417,-65.05C98.417,-46.623 83.479,-31.684 65.051,-31.684Z" style="fill:rgb(73,54,31);"/>
            </g>
            <g transform="matrix(-0.999024,-0.0441795,-0.0441795,0.999024,20.0911,267.466)">
                <path d="M-143.927,21.749C-146.484,22.785 -147.719,25.703 -146.683,28.26C-145.647,30.818 -142.729,32.053 -140.171,31.017C-140.171,31.017 -76.06,5.122 -2.102,31.1C0.502,32.015 3.358,30.643 4.273,28.04C5.187,25.436 3.816,22.58 1.212,21.665C-76.533,-5.643 -143.927,21.749 -143.927,21.749Z" style="fill:rgb(255,244,235);"/>
            </g>
            <g transform="matrix(-0.998282,0.0585933,0.0585933,0.998282,23.4236,318.415)">
                <path d="M-161.308,10.477C-163.973,11.193 -165.555,13.938 -164.839,16.603C-164.123,19.268 -161.378,20.851 -158.713,20.135C-158.713,20.135 -65.011,-5.218 -1.108,19.958C1.46,20.969 4.365,19.706 5.377,17.139C6.388,14.571 5.125,11.665 2.558,10.654C-63.884,-15.522 -161.308,10.477 -161.308,10.477Z" style="fill:rgb(255,244,235);"/>
            </g>
            <g transform="matrix(0.999024,-0.0441795,-0.0441795,-0.999024,351.885,303.209)">
                <path d="M1.295,-1.495C-1.263,-2.531 -4.181,-1.296 -5.217,1.262C-6.253,3.819 -5.018,6.737 -2.461,7.773C-2.461,7.773 64.933,35.165 142.678,7.857C145.282,6.942 146.653,4.086 145.739,1.482C144.824,-1.121 141.968,-2.493 139.364,-1.578C65.406,24.4 1.295,-1.495 1.295,-1.495Z" style="fill:rgb(255,244,235);"/>
            </g>
            <g transform="matrix(0.998282,0.0585929,0.0585929,-0.998282,327.771,319.609)">
                <path d="M1.746,-9.521C-0.919,-10.237 -3.664,-8.654 -4.38,-5.989C-5.096,-3.324 -3.514,-0.579 -0.849,0.137C-0.849,0.137 96.575,26.136 163.018,-0.04C165.585,-1.051 166.848,-3.957 165.837,-6.524C164.825,-9.092 161.92,-10.355 159.352,-9.344C95.448,15.832 1.746,-9.521 1.746,-9.521Z" style="fill:rgb(255,244,235);"/>
            </g>
            <g transform="matrix(0,-1,-1,0,252.183,288.199)">
                <path d="M-28.573,-36.258C-10.671,-36.258 -7.784,-21.745 -7.784,-3.842C-7.784,14.06 -10.671,28.573 -28.573,28.573C-46.476,28.573 -57.047,8.578 -57.047,-3.842C-57.047,-16.263 -46.476,-36.258 -28.573,-36.258" style="fill:rgb(231,104,93);fill-rule:nonzero;"/>
            </g>
        </g>
        <g id="Puppy" transform="matrix(0.777648,-0.448975,0.448975,0.777648,195.651,144.72)">
            <g transform="matrix(0.0759598,-0.000439997,0.000439997,0.0759598,227.476,191.865)">
                <path d="M209.093,184.903C210.47,192.14 211.705,199.695 212.818,207.573C229.093,322.771 153.375,392.93 44.63,392.93L43.873,392.93C-64.872,392.93 -140.589,322.771 -124.315,207.573C-123.202,199.694 -121.967,192.14 -120.59,184.903C-122.925,180.655 -124.824,174.024 -126.305,164.553C-140.858,71.444 -97.851,-7.288 -34.861,-71.607C-28.262,-78.345 -20.754,-78.175 -18.374,-72.754C-3.011,-37.754 5.874,9.279 12.033,52.574C22.048,51.604 32.77,51.128 44.252,51.128C55.734,51.128 66.456,51.604 76.471,52.574C82.63,9.279 91.515,-37.754 106.878,-72.754C109.257,-78.175 116.764,-78.345 123.364,-71.607C186.354,-7.288 229.362,71.444 214.807,164.553C213.327,174.024 211.428,180.655 209.093,184.903Z" style="fill-opacity:0.25;"/>
            </g>
            <g transform="matrix(0.0759598,-0.000439997,0.000439997,0.0759598,228.683,190.074)">
                <path d="M0,117.792C-45.777,119.345 -65.359,150.459 -96.964,181.546C-111.797,196.137 -121.373,196.096 -126.305,164.553C-140.858,71.444 -97.851,-7.288 -34.861,-71.607C-28.262,-78.345 -20.754,-78.175 -18.374,-72.754C2.711,-24.717 11.594,45.985 17.975,98.581C19.804,113.656 20.773,117.088 0,117.792" style="fill:rgb(255,203,76);fill-rule:nonzero;"/>
            </g>
            <g transform="matrix(0.0759598,-0.000439997,0.000439997,0.0759598,222.013,191.067)">
                <path d="M0,164.706C19.072,137.418 46.176,118.452 77.574,113.198C89.537,111.196 89.57,106.883 87.839,95.893C81.877,58.06 72.081,29.782 53.767,-4.618C50.508,-10.738 42.428,-9.329 36.519,-3.161C-1.229,36.237 -23.957,106.211 -15.9,160.866C-13.751,175.444 -6.694,174.286 0,164.706" style="fill:rgb(231,104,93);fill-rule:nonzero;"/>
            </g>
            <g transform="matrix(0.0759598,-0.000439997,0.000439997,0.0759598,234.049,191.503)">
                <path d="M0,79.37C6.382,26.774 15.264,-43.928 36.35,-91.965C38.729,-97.386 46.236,-97.556 52.836,-90.818C115.826,-26.499 158.834,52.233 144.279,145.342C139.349,176.885 129.772,176.926 114.938,162.335C83.334,131.248 63.753,100.134 17.975,98.581C-2.799,97.877 -1.828,94.445 0,79.37" style="fill:rgb(255,203,76);fill-rule:nonzero;"/>
            </g>
            <g transform="matrix(0.0759598,-0.000439997,0.000439997,0.0759598,242.087,190.951)">
                <path d="M0,164.706C-19.072,137.418 -46.175,118.452 -77.573,113.198C-89.537,111.196 -89.569,106.883 -87.838,95.893C-81.877,58.06 -72.081,29.782 -53.766,-4.618C-50.508,-10.738 -42.427,-9.329 -36.518,-3.161C1.23,36.237 23.958,106.211 15.9,160.866C13.752,175.444 6.695,174.286 0,164.706" style="fill:rgb(231,104,93);fill-rule:nonzero;"/>
            </g>
            <g transform="matrix(0.0759598,-0.000439997,0.000439997,0.0759598,232.038,193.939)">
                <path d="M0,341.802C-108.745,341.802 -184.462,271.643 -168.188,156.445C-152.733,47.038 -113.669,0 0.379,0C114.426,0 153.49,47.038 168.945,156.445C185.22,271.643 109.502,341.802 0.757,341.802L0,341.802Z" style="fill:rgb(255,203,76);fill-rule:nonzero;"/>
            </g>
            <g transform="matrix(0.0759598,-0.000439997,0.000439997,0.0759598,232.215,217.216)">
                <path d="M0,-135.741C64.799,-135.741 128.094,-111.898 118.396,-66.149C109.187,-22.7 67.732,0 -0.226,0C-68.184,0 -109.639,-22.7 -118.848,-66.149C-128.545,-111.898 -65.25,-135.741 -0.451,-135.741L0,-135.741Z" style="fill:rgb(255,244,235);fill-rule:nonzero;"/>
            </g>
            <g transform="matrix(0.0759598,-0.000439997,0.000439997,0.0759598,223.555,202.011)">
                <path d="M0,0.109C0,15.675 13.286,30.88 38.778,28.55C62.99,26.338 75.639,16.38 75.639,0.054C75.639,-16.271 62.99,-26.229 38.778,-28.442C13.286,-30.771 0,-15.566 0,0.001L0,0.109Z" style="fill:rgb(255,244,235);fill-rule:nonzero;"/>
            </g>
            <g transform="matrix(0.0759598,-0.000439997,0.000439997,0.0759598,240.544,201.912)">
                <path d="M0,0.109C0,15.675 -13.286,30.88 -38.779,28.55C-62.99,26.338 -75.64,16.38 -75.64,0.054C-75.64,-16.271 -62.99,-26.229 -38.779,-28.442C-13.286,-30.771 0,-15.566 0,0.001L0,0.109Z" style="fill:rgb(255,244,235);fill-rule:nonzero;"/>
            </g>
            <g transform="matrix(0.0759598,-0.000439997,0.000439997,0.0759598,232.048,203.259)">
                <path d="M0,75.64C-25.493,75.64 -50.394,62.354 -46.579,36.861C-42.956,12.65 -26.646,0 0.089,0C26.825,0 43.134,12.65 46.757,36.861C50.572,62.354 25.671,75.64 0.178,75.64L0,75.64Z" style="fill:rgb(255,244,235);fill-rule:nonzero;"/>
            </g>
            <g transform="matrix(0.0759598,-0.000439997,0.000439997,0.0759598,232.704,217.872)">
                <path d="M0,-38.582L3.094,-12.534C4.614,0.267 16.031,9.772 28.855,8.465C41.957,7.131 51.373,-4.67 49.826,-17.695L46.687,-44.128C46.394,-46.594 44.157,-48.354 41.692,-48.061L3.935,-43.577C1.469,-43.284 -0.293,-41.048 0,-38.582" style="fill:rgb(255,98,160);fill-rule:nonzero;"/>
            </g>
            <g transform="matrix(0.0759598,-0.000439997,0.000439997,0.0759598,234.255,217.74)">
                <path d="M0,-43.914L5.015,-1.693C5.171,-0.375 6.367,0.567 7.687,0.411C9.006,0.254 9.948,-0.942 9.791,-2.261L4.776,-44.481L0,-43.914Z" style="fill:rgb(245,43,120);fill-rule:nonzero;"/>
            </g>
            <g transform="matrix(0.0759598,-0.000439997,0.000439997,0.0759598,226.057,214.601)">
                <path d="M-5.268,-38.071C-5.268,-40.978 -2.907,-43.339 0,-43.339C2.907,-43.339 5.268,-40.978 5.268,-38.071C5.268,-30.934 4.865,-24.251 9.202,-18.905C12.512,-14.824 18.439,-11.727 28.577,-9.381C40.049,-6.728 56.441,-5.267 79.854,-5.267C103.266,-5.267 119.658,-6.728 131.13,-9.381C141.268,-11.727 147.195,-14.824 150.506,-18.905C154.842,-24.251 154.439,-30.934 154.439,-38.071C154.439,-40.978 156.8,-43.339 159.707,-43.339C162.614,-43.339 164.975,-40.978 164.975,-38.071C164.975,-28.384 164.574,-19.525 158.687,-12.268C155.125,-7.877 149.514,-3.955 140.395,-1.006C128.294,2.908 109.396,5.267 79.854,5.267C50.311,5.267 31.413,2.908 19.312,-1.006C10.193,-3.955 4.582,-7.877 1.02,-12.268C-4.867,-19.525 -5.268,-28.384 -5.268,-38.071Z" style="fill:rgb(73,54,31);"/>
            </g>
            <g transform="matrix(-0.000439997,-0.0759598,-0.0759598,0.000439997,234.283,212.381)">
                <path d="M-28.604,23.337C-31.512,23.337 -33.872,25.697 -33.872,28.604C-33.872,31.512 -31.512,33.872 -28.605,33.872L28.605,33.872C31.512,33.872 33.872,31.512 33.872,28.604C33.872,25.697 31.512,23.337 28.604,23.337L-28.604,23.337Z" style="fill:rgb(73,54,31);"/>
            </g>
            <g transform="matrix(-0.000439997,-0.0759598,-0.0759598,0.000439997,238.779,202.388)">
                <path d="M-48.773,-48.772C-20.493,-48.772 2.432,-26.936 2.432,-0.001C2.432,26.936 -20.493,48.773 -48.773,48.773C-77.052,48.773 -99.977,26.936 -99.977,-0.001C-99.977,-26.936 -77.052,-48.772 -48.773,-48.772" style="fill:rgb(255,203,76);fill-rule:nonzero;"/>
            </g>
            <g transform="matrix(-0.000439997,-0.0759598,-0.0759598,0.000439997,238.793,204.661)">
                <path d="M-18.854,-18.853C0.246,-18.853 15.729,-10.412 15.729,0.001C15.729,10.414 0.246,18.854 -18.854,18.854C-37.954,18.854 -53.436,10.414 -53.436,0.001C-53.436,-10.412 -37.954,-18.853 -18.854,-18.853" style="fill:rgb(73,54,31);fill-rule:nonzero;"/>
            </g>
            <g transform="matrix(-0.000439997,-0.0759598,-0.0759598,0.000439997,231.887,207.721)">
                <path d="M-25.084,-31.83C-9.368,-31.83 -6.834,-19.09 -6.834,-3.373C-6.834,12.344 -9.368,25.084 -25.084,25.084C-40.801,25.084 -50.08,7.53 -50.08,-3.373C-50.08,-14.276 -40.801,-31.83 -25.084,-31.83" style="fill:rgb(73,54,31);fill-rule:nonzero;"/>
            </g>
            <g transform="matrix(-0.000439997,-0.0759598,-0.0759598,0.000439997,225.388,202.465)">
                <path d="M-48.773,-48.772C-20.493,-48.772 2.432,-26.936 2.432,-0.001C2.432,26.936 -20.493,48.773 -48.773,48.773C-77.052,48.773 -99.977,26.936 -99.977,-0.001C-99.977,-26.936 -77.052,-48.772 -48.773,-48.772" style="fill:rgb(255,203,76);fill-rule:nonzero;"/>
            </g>
            <g transform="matrix(-0.000439997,-0.0759598,-0.0759598,0.000439997,225.401,204.738)">
                <path d="M-18.854,-18.853C0.246,-18.853 15.729,-10.412 15.729,0.001C15.729,10.414 0.246,18.854 -18.854,18.854C-37.954,18.854 -53.436,10.414 -53.436,0.001C-53.436,-10.412 -37.954,-18.853 -18.854,-18.853" style="fill:rgb(73,54,31);fill-rule:nonzero;"/>
            </g>
        </g>
        <g id="Chat" transform="matrix(0.801237,0,0,0.801237,77.9251,56.1402)">
            <g transform="matrix(0.965926,0.258819,-0.258819,0.965926,392.375,176.999)">
                <path d="M57,74.85L57,82.55C57,84.675 55.275,86.4 53.15,86.4L45.45,86.4L39.4,93L42.15,86.4L38.85,86.4C36.725,86.4 35,84.675 35,82.55L35,74.85C35,72.725 36.725,71 38.85,71L53.15,71C55.275,71 57,72.725 57,74.85Z" style="fill-opacity:0.25;"/>
            </g>
            <g transform="matrix(0.965926,0.258819,-0.258819,0.965926,392.375,174.622)">
                <path d="M57,74.85L57,82.55C57,84.675 55.275,86.4 53.15,86.4L45.45,86.4L39.4,93L42.15,86.4L38.85,86.4C36.725,86.4 35,84.675 35,82.55L35,74.85C35,72.725 36.725,71 38.85,71L53.15,71C55.275,71 57,72.725 57,74.85Z" style="fill:white;"/>
            </g>
            <g transform="matrix(0.874925,0.234435,-0.29314,1.09401,405.416,161.34)">
                <path d="M40.5,80.95C41.868,79 44.605,79 45.974,79.975C47.342,80.95 47.342,82.9 45.974,84.85C45.016,86.313 42.553,87.775 40.5,88.75C38.447,87.775 35.984,86.313 35.026,84.85C33.658,82.9 33.658,80.95 35.026,79.975C36.395,79 39.132,79 40.5,80.95Z" style="fill:rgb(231,104,93);"/>
            </g>
        </g>
        <g id="Chat1" serif:id="Chat" transform="matrix(1,0,0,1,0,-1)">
            <g transform="matrix(-0.965926,0.258819,0.258819,0.965926,464.009,108.49)">
                <path d="M57,74.85L57,82.55C57,84.675 55.275,86.4 53.15,86.4L45.45,86.4L39.4,93L42.15,86.4L38.85,86.4C36.725,86.4 35,84.675 35,82.55L35,74.85C35,72.725 36.725,71 38.85,71L53.15,71C55.275,71 57,72.725 57,74.85Z" style="fill-opacity:0.25;"/>
            </g>
            <g transform="matrix(-0.965926,0.258819,0.258819,0.965926,464.009,106.521)">
                <path d="M57,74.85L57,82.55C57,84.675 55.275,86.4 53.15,86.4L45.45,86.4L39.4,93L42.15,86.4L38.85,86.4C36.725,86.4 35,84.675 35,82.55L35,74.85C35,72.725 36.725,71 38.85,71L53.15,71C55.275,71 57,72.725 57,74.85Z" style="fill:white;"/>
            </g>
            <g transform="matrix(0.874925,-0.234435,0.29314,1.09401,379.962,112.2)">
                <path d="M40.5,80.95C41.868,79 44.605,79 45.974,79.975C47.342,80.95 47.342,82.9 45.974,84.85C45.016,86.313 42.553,87.775 40.5,88.75C38.447,87.775 35.984,86.313 35.026,84.85C33.658,82.9 33.658,80.95 35.026,79.975C36.395,79 39.132,79 40.5,80.95Z" style="fill:rgb(231,104,93);"/>
            </g>
        </g>
    </g>
</svg>
