<svg xmlns="http://www.w3.org/2000/svg" width="26" height="22" viewBox="0 0 26 22">
  <g id="cloud-check" transform="translate(136.105 385.305) rotate(180)">
    <path id="cloud" d="M-344.9,2111.3a5.977,5.977,0,0,1,.553-2.52,6,6,0,0,1-3.553-5.48,6,6,0,0,1,6-6h13a5,5,0,0,1,5,5,5,5,0,0,1-2.325,4.225,4.989,4.989,0,0,1,.324,1.775,5,5,0,0,1-5,5,4.979,4.979,0,0,1-2.188-.5,6,6,0,0,1-5.812,4.5A6,6,0,0,1-344.9,2111.3Z" transform="translate(459 -1733)" fill="none" stroke="#fff" stroke-linecap="round" stroke-linejoin="round" stroke-width="2"/>
    <path id="Path_92" data-name="Path 92" d="M126.1,374.3l-3-3-6,6" transform="translate(2 -2)" fill="none" stroke="#fff" stroke-linecap="round" stroke-linejoin="round" stroke-width="2"/>
  </g>
</svg>
