<svg xmlns="http://www.w3.org/2000/svg" width="22.476" height="23.123" viewBox="0 0 22.476 23.123">
  <g id="gear" transform="translate(-112.762 -376.639)">
    <g id="shapes" transform="translate(460.755 -1795.244)" fill="none">
      <path d="M-338.13,2192.908l-.649-2.628a7.121,7.121,0,0,1-2.882-1.666l-2.6.752a9.557,9.557,0,0,1-1.374-2.374l1.951-1.878a7.151,7.151,0,0,1-.2-1.671,7.139,7.139,0,0,1,.2-1.667l-1.951-1.878a9.549,9.549,0,0,1,1.372-2.374l2.6.751a7.122,7.122,0,0,1,2.89-1.669l.65-2.626a9.658,9.658,0,0,1,1.369-.1,9.636,9.636,0,0,1,1.374.1l.649,2.627a7.12,7.12,0,0,1,2.882,1.666l2.6-.752a9.558,9.558,0,0,1,1.374,2.373l-1.95,1.878a7.146,7.146,0,0,1,.2,1.67,7.149,7.149,0,0,1-.2,1.668l1.95,1.878a9.553,9.553,0,0,1-1.372,2.373l-2.6-.75a7.122,7.122,0,0,1-2.889,1.669l-.651,2.627a9.633,9.633,0,0,1-1.367.1A9.747,9.747,0,0,1-338.13,2192.908Z" stroke="none"/>
      <path d="M -336.7548217773438 2193.006591796875 C -336.2904052734375 2193.006591796875 -335.8341064453125 2192.973388671875 -335.3876953125 2192.909423828125 L -334.7368469238281 2190.2822265625 C -333.640625 2189.958984375 -332.6547241210938 2189.379638671875 -331.8476867675781 2188.61328125 L -329.24609375 2189.363525390625 C -328.6817932128906 2188.64794921875 -328.2165222167969 2187.849609375 -327.8735961914063 2186.990234375 L -329.8240661621094 2185.112548828125 C -329.6957397460938 2184.577392578125 -329.6277160644531 2184.0185546875 -329.6277160644531 2183.444091796875 C -329.6277160644531 2182.869140625 -329.6959228515625 2182.3095703125 -329.8245849609375 2181.77392578125 L -327.87451171875 2179.896240234375 C -328.2183227539063 2179.036865234375 -328.68359375 2178.238525390625 -329.2488098144531 2177.52294921875 L -331.848876953125 2178.27490234375 C -332.6541748046875 2177.51025390625 -333.6380310058594 2176.931884765625 -334.7312316894531 2176.608642578125 L -335.3804931640625 2173.9814453125 C -335.8296203613281 2173.916748046875 -336.2886047363281 2173.883544921875 -336.7548217773438 2173.883544921875 C -337.2201232910156 2173.883544921875 -337.6764221191406 2173.916748046875 -338.1237182617188 2173.980712890625 L -338.7738342285156 2176.60693359375 C -339.8701171875 2176.93017578125 -340.8564453125 2177.509765625 -341.6634826660156 2178.2763671875 L -344.2653198242188 2177.525634765625 C -344.8296203613281 2178.2412109375 -345.294921875 2179.03955078125 -345.6378173828125 2179.899169921875 L -343.6867065429688 2181.77734375 C -343.81494140625 2182.31201171875 -343.8828125 2182.8701171875 -343.8828125 2183.444091796875 C -343.8828125 2184.01953125 -343.8145446777344 2184.5791015625 -343.6858215332031 2185.115234375 L -345.6369018554688 2186.992919921875 C -345.2931213378906 2187.852294921875 -344.8278198242188 2188.651611328125 -344.2626037597656 2189.366943359375 L -341.660888671875 2188.615234375 C -340.855712890625 2189.37939453125 -339.871826171875 2189.957763671875 -338.7789611816406 2190.28076171875 L -338.1300048828125 2192.908447265625 C -337.680908203125 2192.972412109375 -337.2218933105469 2193.006591796875 -336.7548217773438 2193.006591796875 M -336.7548217773438 2195.006591796875 C -337.3041076660156 2195.006591796875 -337.8616638183594 2194.966796875 -338.4119873046875 2194.888427734375 L -339.7481079101563 2194.6982421875 L -340.0716552734375 2193.387939453125 L -340.4677734375 2191.7841796875 C -341.0487060546875 2191.524658203125 -341.6031494140625 2191.2041015625 -342.1190795898438 2190.829345703125 L -343.7074584960938 2191.288330078125 L -344.9986572265625 2191.661376953125 L -345.8318786621094 2190.60693359375 C -346.5219116210938 2189.733642578125 -347.0810546875 2188.767578125 -347.4938354492188 2187.73583984375 L -347.9939575195313 2186.485595703125 L -347.0237426757813 2185.5517578125 L -345.8324890136719 2184.405517578125 C -345.865966796875 2184.086669921875 -345.8828125 2183.765625 -345.8828125 2183.444091796875 C -345.8828125 2183.1240234375 -345.8661499023438 2182.8046875 -345.8329772949219 2182.4873046875 L -347.0248413085938 2181.340087890625 L -347.9937744140625 2180.4072265625 L -347.4954833984375 2179.158203125 C -347.0850219726563 2178.129150390625 -346.526611328125 2177.163330078125 -345.8357543945313 2176.287109375 L -345.0029907226563 2175.231201171875 L -343.7108459472656 2175.60400390625 L -342.12255859375 2176.062255859375 C -341.6038818359375 2175.685302734375 -341.0462646484375 2175.363037109375 -340.4617919921875 2175.1025390625 L -340.0651245117188 2173.5 L -339.7412109375 2172.191650390625 L -338.4068298339844 2172.000732421875 C -337.8625183105469 2171.923095703125 -337.3067016601563 2171.883544921875 -336.7548217773438 2171.883544921875 C -336.19873046875 2171.883544921875 -335.640380859375 2171.92333984375 -335.0953063964844 2172.001953125 L -333.7620849609375 2172.19384765625 L -333.4389038085938 2173.501708984375 L -333.0425720214844 2175.105224609375 C -332.4613952636719 2175.364990234375 -331.90673828125 2175.685546875 -331.3907470703125 2176.060546875 L -329.804443359375 2175.6015625 L -328.5127563476563 2175.22802734375 L -327.6793518066406 2176.283203125 C -326.9888916015625 2177.157470703125 -326.4298095703125 2178.123046875 -326.0176086425781 2179.1533203125 L -325.5175476074219 2180.4033203125 L -326.4872741699219 2181.3369140625 L -327.677978515625 2182.4833984375 C -327.64453125 2182.802001953125 -327.6277160644531 2183.122802734375 -327.6277160644531 2183.444091796875 C -327.6277160644531 2183.7646484375 -327.6444702148438 2184.084716796875 -327.677734375 2184.402587890625 L -326.4865112304688 2185.54931640625 L -325.5175170898438 2186.482177734375 L -326.0160217285156 2187.7314453125 C -326.4266052246094 2188.76025390625 -326.9849853515625 2189.72607421875 -327.6756591796875 2190.60205078125 L -328.50830078125 2191.65771484375 L -329.8002624511719 2191.28515625 L -331.3886108398438 2190.8271484375 C -331.9071960449219 2191.2041015625 -332.4647827148438 2191.526123046875 -333.0491027832031 2191.78662109375 L -333.4463806152344 2193.390380859375 L -333.7703552246094 2194.6982421875 L -335.1040344238281 2194.88916015625 C -335.6476440429688 2194.967041015625 -336.2030334472656 2195.006591796875 -336.7548217773438 2195.006591796875 Z" stroke="none" fill="#fff"/>
    </g>
    <circle id="center" cx="3" cy="3" r="3" stroke-width="2" transform="translate(127 385.2) rotate(90)" stroke="#fff" stroke-linecap="round" stroke-linejoin="round" fill="none"/>
  </g>
</svg>
