<?xml version="1.0" encoding="UTF-8" standalone="no"?>
<!DOCTYPE svg PUBLIC "-//W3C//DTD SVG 1.1//EN" "http://www.w3.org/Graphics/SVG/1.1/DTD/svg11.dtd">
<svg width="100%" height="100%" viewBox="0 0 100 100" version="1.1" xmlns="http://www.w3.org/2000/svg" xmlns:xlink="http://www.w3.org/1999/xlink" xml:space="preserve" xmlns:serif="http://www.serif.com/" style="fill-rule:evenodd;clip-rule:evenodd;stroke-linejoin:round;stroke-miterlimit:2;">
    <g id="Glass" transform="matrix(1,0,0,1,-492,-46.7273)">
        <clipPath id="_clip1">
            <path d="M592,54.727L592,138.727C592,143.143 588.415,146.727 584,146.727L500,146.727C495.585,146.727 492,143.143 492,138.727L492,54.727C492,50.312 495.585,46.727 500,46.727L584,46.727C588.415,46.727 592,50.312 592,54.727Z"/>
        </clipPath>
        <g clip-path="url(#_clip1)">
            <g transform="matrix(3.84615,-1.5,0,1,-1469.54,360)">
                <rect x="510" y="503" width="26" height="25" style="fill:white;"/>
            </g>
            <g transform="matrix(3.84615,-1.5,0,0.28,-1469.54,751.615)">
                <rect x="510" y="503" width="26" height="25" style="fill:white;"/>
            </g>
        </g>
    </g>
</svg>
