<svg xmlns="http://www.w3.org/2000/svg" width="20" height="20" viewBox="0 0 20 20">
  <g id="heart" transform="translate(135.929 394.2) rotate(180)">
    <g id="Path_91" data-name="Path 91" transform="translate(135.929 394.2) rotate(180)" fill="none" stroke-linecap="round">
      <path d="M10,20C4.623,16.007,1.8,12.374.647,9.333-2.452,1.185,6.4-2.711,10,2.1c3.6-4.81,12.452-.913,9.353,7.235C18.2,12.374,15.377,16.007,10,20Z" stroke="none"/>
      <path d="M 10.00000095367432 17.48077201843262 C 14.82789993286133 13.66113662719727 16.7378044128418 10.58428287506104 17.4840202331543 8.622470855712891 C 18.23748016357422 6.640950679779053 18.17094039916992 4.919590950012207 17.29161071777344 3.64448094367981 C 16.59210014343262 2.630130767822266 15.40006065368652 2.000000953674316 14.18067073822021 2.000000953674316 C 13.14359092712402 2.000000953674316 12.22739124298096 2.460750818252563 11.60085105895996 3.297370910644531 L 10.00000095367432 5.435000896453857 L 8.399150848388672 3.297380924224854 C 7.772611141204834 2.460750818252563 6.856410980224609 2.000000953674316 5.819331169128418 2.000000953674316 C 4.600131034851074 2.000000953674316 3.408180952072144 2.630180835723877 2.708611011505127 3.64461088180542 C 1.829210996627808 4.919830799102783 1.762600898742676 6.641140937805176 2.515900850296021 8.622261047363281 C 3.262192249298096 10.58426761627197 5.172101497650146 13.66113471984863 10.00000095367432 17.48077201843262 M 10.00000095367432 20 C 4.623061180114746 16.00665092468262 1.803070902824402 12.37378120422363 0.6465609669685364 9.333300590515137 C -1.524899244308472 3.622555017471313 2.172826290130615 -8.489990364068944e-07 5.819331645965576 -8.489990364068944e-07 C 7.375678062438965 -8.489990364068944e-07 8.92247486114502 0.659676730632782 10.00000095367432 2.098510980606079 C 11.07730674743652 0.6599702835083008 12.6246452331543 -8.489990364068944e-07 14.1806697845459 -8.489990364068944e-07 C 17.82748413085938 -8.489990364068944e-07 21.52509117126465 3.622057676315308 19.35344123840332 9.333300590515137 C 18.19693183898926 12.37378120422363 15.37694072723389 16.00665092468262 10.00000095367432 20 Z" stroke="none" fill="#fff"/>
    </g>
  </g>
</svg>
