<?xml version="1.0" encoding="utf-8"?>
<!-- Generator: Adobe Illustrator 25.0.1, SVG Export Plug-In . SVG Version: 6.00 Build 0)  -->
<svg version="1.1" id="Layer_1" xmlns="http://www.w3.org/2000/svg" xmlns:xlink="http://www.w3.org/1999/xlink" x="0px" y="0px"
	 viewBox="0 0 261 72" style="enable-background:new 0 0 261 72;" xml:space="preserve">
<style type="text/css">
	.st0{enable-background:new    ;}
	.st1{fill:#FFFFFF;}
	.st2{fill:#DC265A;}
</style>
<g class="st0">
	<path class="st1" d="M10.34,52.54c-0.616,0-1.134-0.21-1.554-0.63s-0.63-0.938-0.63-1.554V21.922c0-0.644,0.21-1.169,0.63-1.575
		c0.42-0.405,0.938-0.608,1.554-0.608h10.038c1.904,0,3.577,0.371,5.02,1.112c1.441,0.742,2.575,1.771,3.401,3.088
		s1.239,2.828,1.239,4.535c0,1.373-0.371,2.611-1.112,3.718c-0.743,1.106-1.758,1.98-3.046,2.625
		c1.849,0.448,3.332,1.33,4.452,2.646c1.12,1.316,1.681,3.038,1.681,5.166c0,1.932-0.456,3.641-1.365,5.124
		c-0.91,1.484-2.178,2.653-3.801,3.507c-1.625,0.854-3.486,1.281-5.586,1.281H10.34V52.54z M12.524,33.22h7.854
		c1.597,0,2.905-0.392,3.928-1.176c1.021-0.783,1.532-1.974,1.532-3.57s-0.511-2.778-1.532-3.549
		c-1.022-0.77-2.331-1.154-3.928-1.154h-7.854V33.22z M12.524,48.508h8.736c1.287,0,2.421-0.224,3.401-0.672
		c0.979-0.447,1.75-1.105,2.311-1.974c0.56-0.868,0.84-1.946,0.84-3.234c0-1.203-0.28-2.197-0.84-2.981
		c-0.561-0.784-1.331-1.379-2.311-1.785c-0.98-0.406-2.114-0.609-3.401-0.609h-8.736C12.524,37.253,12.524,48.508,12.524,48.508z"/>
	<path class="st1" d="M59.816,52.96c-2.464,0-4.719-0.413-6.762-1.239c-2.045-0.825-3.802-1.987-5.271-3.485
		s-2.611-3.276-3.423-5.334c-0.813-2.059-1.218-4.319-1.218-6.783s0.405-4.718,1.218-6.762c0.812-2.044,1.953-3.815,3.423-5.313
		c1.47-1.497,3.227-2.66,5.271-3.486c2.043-0.825,4.298-1.238,6.762-1.238s4.711,0.413,6.741,1.238
		c2.029,0.826,3.786,1.989,5.271,3.486c1.484,1.498,2.632,3.27,3.444,5.313c0.812,2.044,1.218,4.298,1.218,6.762
		s-0.406,4.725-1.218,6.783c-0.813,2.058-1.96,3.836-3.444,5.334s-3.241,2.66-5.271,3.485C64.527,52.547,62.28,52.96,59.816,52.96z
		 M59.816,49.012c1.819,0,3.492-0.328,5.019-0.986c1.527-0.658,2.85-1.568,3.97-2.73c1.119-1.161,1.98-2.526,2.583-4.095
		c0.602-1.568,0.902-3.262,0.902-5.082s-0.301-3.514-0.902-5.082c-0.603-1.568-1.464-2.933-2.583-4.095
		c-1.12-1.162-2.443-2.064-3.97-2.709s-3.199-0.967-5.019-0.967s-3.493,0.322-5.02,0.967s-2.842,1.547-3.947,2.709
		c-1.106,1.162-1.968,2.526-2.583,4.095c-0.616,1.568-0.924,3.262-0.924,5.082s0.308,3.514,0.924,5.082
		c0.615,1.568,1.477,2.934,2.583,4.095c1.105,1.162,2.421,2.072,3.947,2.73S57.996,49.012,59.816,49.012z"/>
	<path class="st1" d="M88.503,52.54c-0.645,0-1.135-0.203-1.471-0.609c-0.336-0.405-0.504-0.882-0.504-1.428
		s0.168-1.043,0.504-1.491L97.616,34.9l1.891-1.681l9.659-12.852c0.393-0.42,0.91-0.63,1.555-0.63c0.588,0,1.05,0.183,1.386,0.546
		c0.336,0.364,0.518,0.813,0.546,1.344c0.027,0.532-0.126,1.05-0.462,1.554L101.984,36.79l-1.806,1.596L90.015,51.91
		C89.595,52.33,89.091,52.54,88.503,52.54z M110.469,52.54c-0.364,0-0.68-0.063-0.945-0.189c-0.267-0.126-0.511-0.328-0.735-0.608
		l-9.785-13.566l-1.555-1.302l-9.87-13.692c-0.336-0.447-0.477-0.938-0.42-1.47c0.056-0.531,0.259-0.993,0.609-1.386
		c0.35-0.392,0.819-0.588,1.407-0.588c0.728,0,1.245,0.21,1.554,0.63l9.324,12.936l1.596,1.303l10.374,14.405
		c0.336,0.448,0.489,0.952,0.462,1.513c-0.028,0.561-0.217,1.036-0.567,1.428C111.567,52.345,111.084,52.54,110.469,52.54z"/>
	<path class="st1" d="M127.855,52.54c-0.616,0-1.134-0.21-1.554-0.63s-0.63-0.938-0.63-1.554V21.922c0-0.644,0.21-1.169,0.63-1.575
		c0.42-0.405,0.938-0.608,1.554-0.608h18.984c0.644,0,1.162,0.188,1.554,0.566c0.393,0.378,0.588,0.876,0.588,1.491
		c0,0.588-0.195,1.064-0.588,1.428c-0.392,0.364-0.91,0.547-1.554,0.547h-16.8v10.205h12.054c0.644,0,1.162,0.189,1.554,0.567
		c0.393,0.378,0.589,0.861,0.589,1.449s-0.196,1.071-0.589,1.449c-0.392,0.378-0.91,0.566-1.554,0.566H130.04v10.5h16.8
		c0.644,0,1.162,0.183,1.554,0.546c0.393,0.364,0.588,0.84,0.588,1.429c0,0.616-0.195,1.112-0.588,1.49
		c-0.392,0.378-0.91,0.567-1.554,0.567h-18.985V52.54z"/>
	<path class="st1" d="M164.186,52.54c-0.616,0-1.128-0.21-1.533-0.63c-0.406-0.42-0.608-0.938-0.608-1.554V21.922
		c0-0.615,0.21-1.134,0.63-1.554s0.924-0.63,1.512-0.63c0.615,0,1.134,0.21,1.554,0.63s0.63,0.938,0.63,1.554v26.25h15.204
		c0.616,0,1.134,0.21,1.555,0.63c0.42,0.42,0.63,0.938,0.63,1.555s-0.21,1.134-0.63,1.554c-0.421,0.42-0.938,0.63-1.555,0.63
		h-17.389V52.54z"/>
</g>
<g class="st0">
	<path class="st2" d="M205.561,52.54c-2.101,0-3.963-0.441-5.586-1.323c-1.625-0.882-2.898-2.085-3.822-3.611
		s-1.386-3.241-1.386-5.146c0-0.644,0.188-1.169,0.566-1.575c0.378-0.405,0.833-0.608,1.365-0.608c0.56,0,1.021,0.203,1.386,0.608
		c0.364,0.406,0.546,0.932,0.546,1.575c0,1.148,0.294,2.205,0.883,3.171c0.588,0.966,1.386,1.736,2.394,2.311s2.142,0.86,3.402,0.86
		c1.848,0,3.339-0.511,4.473-1.533c1.134-1.021,1.701-2.456,1.701-4.305c0-1.176-0.252-2.232-0.756-3.171
		c-0.504-0.938-1.19-1.687-2.059-2.247c-0.868-0.56-1.848-0.84-2.939-0.84c-0.616,0-1.128-0.21-1.533-0.63
		c-0.406-0.42-0.609-0.938-0.609-1.554s0.203-1.127,0.609-1.533c0.405-0.406,0.917-0.609,1.533-0.609
		c0.783,0,1.539-0.202,2.268-0.608c0.728-0.406,1.33-0.952,1.807-1.639c0.476-0.686,0.714-1.463,0.714-2.331
		c0-1.231-0.448-2.268-1.345-3.107s-2.044-1.261-3.443-1.261c-1.064,0-2.037,0.21-2.919,0.631c-0.882,0.42-1.582,0.98-2.101,1.68
		s-0.776,1.484-0.776,2.352c0,0.645-0.183,1.184-0.546,1.617c-0.364,0.435-0.826,0.651-1.387,0.651
		c-0.532,0-0.986-0.203-1.364-0.609c-0.379-0.405-0.567-0.917-0.567-1.533c0-1.623,0.42-3.079,1.26-4.367s1.988-2.304,3.444-3.046
		c1.455-0.741,3.08-1.112,4.872-1.112c1.651,0,3.143,0.356,4.473,1.07c1.33,0.715,2.38,1.681,3.15,2.898
		c0.77,1.218,1.154,2.598,1.154,4.137c0,1.092-0.245,2.059-0.734,2.898c-0.49,0.84-1.113,1.562-1.869,2.163
		c-0.756,0.603-1.554,1.099-2.395,1.491c1.484,0.504,2.688,1.183,3.612,2.036c0.924,0.854,1.603,1.842,2.037,2.961
		c0.434,1.121,0.651,2.339,0.651,3.654c0,1.82-0.462,3.451-1.387,4.894c-0.924,1.442-2.156,2.576-3.695,3.401
		C209.103,52.127,207.408,52.54,205.561,52.54z"/>
	<path class="st2" d="M230.97,52.54c-0.616,0-1.134-0.21-1.554-0.63s-0.63-0.938-0.63-1.554V21.922c0-0.644,0.21-1.169,0.63-1.575
		c0.42-0.405,0.938-0.608,1.554-0.608h7.603c2.407,0,4.599,0.398,6.573,1.196c1.974,0.799,3.688,1.933,5.145,3.402
		s2.576,3.199,3.36,5.188c0.783,1.988,1.176,4.186,1.176,6.594s-0.393,4.613-1.176,6.615c-0.784,2.002-1.904,3.737-3.36,5.208
		c-1.456,1.47-3.171,2.604-5.145,3.401c-1.975,0.798-4.166,1.197-6.573,1.197H230.97z M233.154,48.676h5.418
		c2.352,0,4.431-0.538,6.237-1.617c1.806-1.077,3.227-2.562,4.263-4.451c1.035-1.891,1.554-4.054,1.554-6.489
		c0-2.464-0.519-4.634-1.554-6.51c-1.036-1.876-2.457-3.346-4.263-4.41c-1.807-1.064-3.886-1.597-6.237-1.597h-5.418V48.676z"/>
</g>
</svg>
