<?xml version="1.0" encoding="UTF-8" standalone="no"?>
<!DOCTYPE svg PUBLIC "-//W3C//DTD SVG 1.1//EN" "http://www.w3.org/Graphics/SVG/1.1/DTD/svg11.dtd">
<svg width="100%" height="100%" viewBox="0 0 12 12" version="1.1" xmlns="http://www.w3.org/2000/svg" xmlns:xlink="http://www.w3.org/1999/xlink" xml:space="preserve" xmlns:serif="http://www.serif.com/" style="fill-rule:evenodd;clip-rule:evenodd;stroke-linejoin:round;stroke-miterlimit:2;">
    <g transform="matrix(0.666667,0,0,0.625,-1091.98,-72.125)">
        <path d="M1641,118.6L1641,131.4C1641,132.283 1640.33,133 1639.5,133C1638.67,133 1638,132.283 1638,131.4L1638,118.6C1638,117.717 1638.67,117 1639.5,117C1640.33,117 1641,117.717 1641,118.6Z" style="fill:rgb(235,43,109);"/>
    </g>
    <g transform="matrix(0.666667,0,0,0.625,-1087,-72.125)">
        <path d="M1641,118.6L1641,131.4C1641,132.283 1640.33,133 1639.5,133C1638.67,133 1638,132.283 1638,131.4L1638,118.6C1638,117.717 1638.67,117 1639.5,117C1640.33,117 1641,117.717 1641,118.6Z" style="fill:rgb(235,43,109);"/>
    </g>
    <g transform="matrix(0.666667,0,0,0.625,-1082.02,-72.125)">
        <path d="M1641,118.6L1641,131.4C1641,132.283 1640.33,133 1639.5,133C1638.67,133 1638,132.283 1638,131.4L1638,118.6C1638,117.717 1638.67,117 1639.5,117C1640.33,117 1641,117.717 1641,118.6Z" style="fill:rgb(235,43,109);"/>
    </g>
</svg>
