<svg xmlns="http://www.w3.org/2000/svg" width="32.631" height="32.801" viewBox="0 0 32.631 32.801">
  <g id="star" transform="translate(-107.856 -383.126)">
    <g id="Polygon_23" data-name="Polygon 23" transform="translate(112.172 388.028)" fill="none" stroke-linecap="round" stroke-linejoin="round">
      <path d="M12,0l3.6,8.057L24,9.167l-6.175,6.09L19.416,24,12,19.707,4.584,24l1.591-8.743L0,9.167l8.4-1.11Z" stroke="none"/>
      <path d="M 12 0 L 8.399999618530273 8.056909561157227 L 0 9.167189598083496 L 6.175079345703125 15.2568998336792 L 4.583589553833008 24 L 12 19.70674896240234 L 19.41640090942383 24 L 17.82492065429688 15.2568998336792 L 24 9.167180061340332 L 15.60000038146973 8.056909561157227 L 12 0 M 12 -2 C 12.7889404296875 -2 13.50415992736816 -1.536199569702148 13.82600975036621 -0.8159008026123047 L 16.97006988525391 6.220600128173828 L 24.26206970214844 7.184419631958008 C 25.01931953430176 7.284509658813477 25.6534309387207 7.807170867919922 25.89624977111816 8.531379699707031 C 26.13907051086426 9.255590438842773 25.94819068908691 10.05486011505127 25.40434074401855 10.59119987487793 L 19.98189163208008 15.93869304656982 L 21.38406944274902 23.64183044433594 C 21.52370071411133 24.40889930725098 21.20483016967773 25.18719100952148 20.56713104248047 25.63578987121582 C 19.92943954467773 26.08439064025879 19.08917999267578 26.12150955200195 18.41440963745117 25.73089981079102 L 11.99999904632568 22.01768684387207 L 5.585580825805664 25.73089981079102 C 4.910810470581055 26.12150955200195 4.070552825927734 26.08439064025879 3.432859420776367 25.63578987121582 C 2.795160293579102 25.18719100952148 2.476289749145508 24.40889930725098 2.61591911315918 23.64183044433594 L 4.018108367919922 15.93869304656982 L -1.404340744018555 10.59121036529541 C -1.948190689086914 10.05486965179443 -2.139070510864258 9.255599975585938 -1.896249771118164 8.531390190124512 C -1.653430938720703 7.80718994140625 -1.019319534301758 7.284519195556641 -0.2620697021484375 7.184429168701172 L 7.029930114746094 6.220602035522461 L 10.17399024963379 -0.8159008026123047 C 10.49584007263184 -1.536199569702148 11.2110595703125 -2 12 -2 Z" stroke="none" fill="#fff"/>
    </g>
  </g>
</svg>
