<?xml version="1.0" encoding="utf-8"?>
<!-- Generator: Adobe Illustrator 24.1.2, SVG Export Plug-In . SVG Version: 6.00 Build 0)  -->
<svg version="1.1" id="Layer_1" xmlns="http://www.w3.org/2000/svg" xmlns:xlink="http://www.w3.org/1999/xlink" x="0px" y="0px"
	 viewBox="0 0 504 504" style="enable-background:new 0 0 504 504;" xml:space="preserve">
<style type="text/css">
	.st0{fill:#0287EF;}
	.st1{fill:#231F20;}
	.st2{fill:#E5E5E5;}
</style>
<rect x="72" y="72" class="st0" width="45" height="45"/>
<rect x="144" y="144" class="st1" width="9" height="9"/>
<rect x="180" y="144" class="st1" width="9" height="9"/>
<rect x="144" y="72" class="st1" width="45" height="9"/>
<rect x="144" y="90" class="st1" width="45" height="27"/>
<rect x="162" y="81" class="st1" width="9" height="9"/>
<rect x="180" y="180" transform="matrix(-1 -1.224647e-16 1.224647e-16 -1 369 369)" class="st1" width="9" height="9"/>
<rect x="144" y="180" transform="matrix(-1 -1.224647e-16 1.224647e-16 -1 297 369)" class="st1" width="9" height="9"/>
<rect x="81" y="153" class="st1" width="9" height="9"/>
<rect x="99" y="153" class="st1" width="9" height="9"/>
<rect x="90" y="162" class="st1" width="9" height="9"/>
<rect x="153" y="153" class="st1" width="27" height="27"/>
<rect x="216" y="72" class="st1" width="45" height="9"/>
<rect x="216" y="81" class="st1" width="9" height="27"/>
<rect x="252" y="81" class="st1" width="9" height="27"/>
<rect x="225" y="153" class="st1" width="9" height="9"/>
<rect x="234" y="162" class="st1" width="9" height="9"/>
<rect x="243" y="153" class="st1" width="9" height="9"/>
<rect x="234" y="90" class="st1" width="9" height="9"/>
<rect x="225" y="171" class="st1" width="9" height="9"/>
<rect x="225" y="162" class="st2" width="9" height="9"/>
<rect x="234" y="153" class="st2" width="9" height="9"/>
<rect x="243" y="162" class="st2" width="9" height="9"/>
<rect x="234" y="171" class="st2" width="9" height="9"/>
<rect x="243" y="171" class="st1" width="9" height="9"/>
<rect x="216" y="108" class="st1" width="45" height="9"/>
<rect x="99" y="171" transform="matrix(-1 -1.224647e-16 1.224647e-16 -1 207 351)" class="st1" width="9" height="9"/>
<rect x="81" y="171" transform="matrix(-1 -1.224647e-16 1.224647e-16 -1 171 351)" class="st1" width="9" height="9"/>
<polygon class="st1" points="297,72 288,108 306,108 "/>
<polygon class="st1" points="315,72 306,108 324,108 "/>
<rect x="90" y="103.5" class="st2" width="9" height="9"/>
<rect x="90" y="76.5" class="st2" width="9" height="18"/>
</svg>
